G04 EAGLE Gerber RS-274X export*
G75*
%MOMM*%
%FSLAX34Y34*%
%LPD*%
%AMOC8*
5,1,8,0,0,1.08239X$1,22.5*%
G01*
%ADD10R,1.350000X0.600000*%
%ADD11R,2.000000X1.200000*%
%ADD12R,1.200000X0.400000*%
%ADD13C,0.222250*%


D10*
X190000Y365000D03*
X190000Y355000D03*
X190000Y345000D03*
X190000Y335000D03*
D11*
X153250Y322000D03*
X153250Y378000D03*
D10*
X190000Y465000D03*
X190000Y455000D03*
X190000Y445000D03*
X190000Y435000D03*
D11*
X153250Y422000D03*
X153250Y478000D03*
D10*
X190000Y165000D03*
X190000Y155000D03*
X190000Y145000D03*
X190000Y135000D03*
D11*
X153250Y122000D03*
X153250Y178000D03*
D10*
X190000Y265000D03*
X190000Y255000D03*
X190000Y245000D03*
X190000Y235000D03*
D11*
X153250Y222000D03*
X153250Y278000D03*
D12*
X153633Y38610D03*
X153633Y29110D03*
X153633Y19610D03*
X179635Y19610D03*
X179635Y38610D03*
D13*
X138448Y24924D02*
X138448Y18256D01*
X131780Y18256D01*
X131780Y24924D01*
X138448Y24924D01*
X138448Y20368D02*
X131780Y20368D01*
X131780Y22480D02*
X138448Y22480D01*
X138448Y24592D02*
X131780Y24592D01*
X138448Y33496D02*
X138448Y40164D01*
X138448Y33496D02*
X131780Y33496D01*
X131780Y40164D01*
X138448Y40164D01*
X138448Y35608D02*
X131780Y35608D01*
X131780Y37720D02*
X138448Y37720D01*
X138448Y39832D02*
X131780Y39832D01*
X199812Y26702D02*
X199812Y20034D01*
X193144Y20034D01*
X193144Y26702D01*
X199812Y26702D01*
X199812Y22146D02*
X193144Y22146D01*
X193144Y24258D02*
X199812Y24258D01*
X199812Y26370D02*
X193144Y26370D01*
X199812Y35274D02*
X199812Y41942D01*
X199812Y35274D02*
X193144Y35274D01*
X193144Y41942D01*
X199812Y41942D01*
X199812Y37386D02*
X193144Y37386D01*
X193144Y39498D02*
X199812Y39498D01*
X199812Y41610D02*
X193144Y41610D01*
X192056Y86582D02*
X185388Y86582D01*
X185388Y93250D01*
X192056Y93250D01*
X192056Y86582D01*
X192056Y88694D02*
X185388Y88694D01*
X185388Y90806D02*
X192056Y90806D01*
X192056Y92918D02*
X185388Y92918D01*
X200628Y86582D02*
X207296Y86582D01*
X200628Y86582D02*
X200628Y93250D01*
X207296Y93250D01*
X207296Y86582D01*
X207296Y88694D02*
X200628Y88694D01*
X200628Y90806D02*
X207296Y90806D01*
X207296Y92918D02*
X200628Y92918D01*
X192056Y101060D02*
X185388Y101060D01*
X185388Y107728D01*
X192056Y107728D01*
X192056Y101060D01*
X192056Y103172D02*
X185388Y103172D01*
X185388Y105284D02*
X192056Y105284D01*
X192056Y107396D02*
X185388Y107396D01*
X200628Y101060D02*
X207296Y101060D01*
X200628Y101060D02*
X200628Y107728D01*
X207296Y107728D01*
X207296Y101060D01*
X207296Y103172D02*
X200628Y103172D01*
X200628Y105284D02*
X207296Y105284D01*
X207296Y107396D02*
X200628Y107396D01*
M02*
