G04 EAGLE Gerber RS-274X export*
G75*
%MOMM*%
%FSLAX34Y34*%
%LPD*%
%AMOC8*
5,1,8,0,0,1.08239X$1,22.5*%
G01*
%ADD10R,1.752600X1.752600*%
%ADD11C,1.752600*%
%ADD12R,1.451600X0.701600*%
%ADD13R,2.101600X1.301600*%
%ADD14R,1.301600X0.501600*%
%ADD15C,0.326897*%


D10*
X43700Y496300D03*
D11*
X43700Y470900D03*
X43700Y445500D03*
X43700Y420100D03*
X43700Y394700D03*
X43700Y369300D03*
X43700Y343900D03*
X43700Y318500D03*
X43700Y293100D03*
X43700Y267700D03*
X43700Y242300D03*
X43700Y216900D03*
X43700Y191500D03*
X43700Y166100D03*
X43700Y140700D03*
X43700Y115300D03*
X43700Y89900D03*
X43700Y64500D03*
X43700Y39100D03*
X43700Y13700D03*
X18300Y13700D03*
X18300Y39100D03*
X18300Y64500D03*
X18300Y89900D03*
X18300Y115300D03*
X18300Y140700D03*
X18300Y166100D03*
X18300Y191500D03*
X18300Y216900D03*
X18300Y242300D03*
X18300Y267700D03*
X18300Y293100D03*
X18300Y318500D03*
X18300Y343900D03*
X18300Y369300D03*
X18300Y394700D03*
X18300Y420100D03*
X18300Y445500D03*
X18300Y470900D03*
X18300Y496300D03*
D12*
X190000Y365000D03*
X190000Y355000D03*
X190000Y345000D03*
X190000Y335000D03*
D13*
X153250Y322000D03*
X153250Y378000D03*
D12*
X190000Y465000D03*
X190000Y455000D03*
X190000Y445000D03*
X190000Y435000D03*
D13*
X153250Y422000D03*
X153250Y478000D03*
D12*
X190000Y165000D03*
X190000Y155000D03*
X190000Y145000D03*
X190000Y135000D03*
D13*
X153250Y122000D03*
X153250Y178000D03*
D12*
X190000Y265000D03*
X190000Y255000D03*
X190000Y245000D03*
X190000Y235000D03*
D13*
X153250Y222000D03*
X153250Y278000D03*
D14*
X153633Y38610D03*
X153633Y29110D03*
X153633Y19610D03*
X179635Y19610D03*
X179635Y38610D03*
D15*
X138433Y24909D02*
X138433Y18271D01*
X131795Y18271D01*
X131795Y24909D01*
X138433Y24909D01*
X138433Y21377D02*
X131795Y21377D01*
X131795Y24483D02*
X138433Y24483D01*
X138433Y33511D02*
X138433Y40149D01*
X138433Y33511D02*
X131795Y33511D01*
X131795Y40149D01*
X138433Y40149D01*
X138433Y36617D02*
X131795Y36617D01*
X131795Y39723D02*
X138433Y39723D01*
X199797Y26687D02*
X199797Y20049D01*
X193159Y20049D01*
X193159Y26687D01*
X199797Y26687D01*
X199797Y23155D02*
X193159Y23155D01*
X193159Y26261D02*
X199797Y26261D01*
X199797Y35289D02*
X199797Y41927D01*
X199797Y35289D02*
X193159Y35289D01*
X193159Y41927D01*
X199797Y41927D01*
X199797Y38395D02*
X193159Y38395D01*
X193159Y41501D02*
X199797Y41501D01*
X192041Y86597D02*
X185403Y86597D01*
X185403Y93235D01*
X192041Y93235D01*
X192041Y86597D01*
X192041Y89703D02*
X185403Y89703D01*
X185403Y92809D02*
X192041Y92809D01*
X200643Y86597D02*
X207281Y86597D01*
X200643Y86597D02*
X200643Y93235D01*
X207281Y93235D01*
X207281Y86597D01*
X207281Y89703D02*
X200643Y89703D01*
X200643Y92809D02*
X207281Y92809D01*
X192041Y101075D02*
X185403Y101075D01*
X185403Y107713D01*
X192041Y107713D01*
X192041Y101075D01*
X192041Y104181D02*
X185403Y104181D01*
X185403Y107287D02*
X192041Y107287D01*
X200643Y101075D02*
X207281Y101075D01*
X200643Y101075D02*
X200643Y107713D01*
X207281Y107713D01*
X207281Y101075D01*
X207281Y104181D02*
X200643Y104181D01*
X200643Y107287D02*
X207281Y107287D01*
M02*
