G04 EAGLE Gerber RS-274X export*
G75*
%MOMM*%
%FSLAX34Y34*%
%LPD*%
%AMOC8*
5,1,8,0,0,1.08239X$1,22.5*%
G01*
%ADD10R,1.651000X1.651000*%
%ADD11C,1.651000*%
%ADD12R,1.350000X0.600000*%
%ADD13R,2.000000X1.200000*%
%ADD14R,1.200000X0.400000*%
%ADD15C,0.222250*%
%ADD16C,0.304800*%
%ADD17C,0.609600*%

G36*
X10509Y5215D02*
X10509Y5215D01*
X10561Y5214D01*
X10640Y5235D01*
X10721Y5248D01*
X10767Y5270D01*
X10817Y5284D01*
X10886Y5328D01*
X10960Y5363D01*
X10998Y5398D01*
X11041Y5426D01*
X11095Y5489D01*
X11154Y5545D01*
X11180Y5589D01*
X11213Y5629D01*
X11246Y5704D01*
X11286Y5775D01*
X11298Y5826D01*
X11318Y5873D01*
X11326Y5955D01*
X11344Y6035D01*
X11340Y6086D01*
X11345Y6138D01*
X11329Y6218D01*
X11323Y6300D01*
X11303Y6348D01*
X11293Y6398D01*
X11266Y6442D01*
X11224Y6547D01*
X11111Y6686D01*
X11086Y6724D01*
X9794Y8016D01*
X8266Y11704D01*
X8266Y15696D01*
X9794Y19384D01*
X12616Y22206D01*
X16304Y23734D01*
X20296Y23734D01*
X22128Y22975D01*
X22189Y22960D01*
X22246Y22935D01*
X22317Y22928D01*
X22386Y22911D01*
X22448Y22914D01*
X22510Y22908D01*
X22580Y22922D01*
X22652Y22926D01*
X22710Y22948D01*
X22771Y22960D01*
X22811Y22986D01*
X22901Y23019D01*
X23070Y23150D01*
X23096Y23167D01*
X25280Y25351D01*
X25391Y25462D01*
X25404Y25479D01*
X25420Y25492D01*
X25482Y25586D01*
X25549Y25676D01*
X25556Y25696D01*
X25567Y25713D01*
X25577Y25758D01*
X25636Y25927D01*
X25640Y26040D01*
X25651Y26090D01*
X25651Y26710D01*
X25648Y26731D01*
X25650Y26752D01*
X25628Y26862D01*
X25611Y26973D01*
X25602Y26992D01*
X25598Y27012D01*
X25574Y27051D01*
X25496Y27212D01*
X25419Y27295D01*
X25391Y27338D01*
X23096Y29633D01*
X23047Y29670D01*
X23003Y29714D01*
X22940Y29748D01*
X22882Y29791D01*
X22824Y29811D01*
X22769Y29840D01*
X22699Y29854D01*
X22631Y29878D01*
X22569Y29880D01*
X22509Y29892D01*
X22461Y29884D01*
X22366Y29887D01*
X22159Y29831D01*
X22128Y29825D01*
X20296Y29066D01*
X16304Y29066D01*
X12616Y30594D01*
X9794Y33416D01*
X8266Y37104D01*
X8266Y41096D01*
X9794Y44784D01*
X12616Y47606D01*
X16304Y49134D01*
X20296Y49134D01*
X23984Y47606D01*
X26806Y44784D01*
X28334Y41096D01*
X28334Y37104D01*
X27575Y35272D01*
X27560Y35211D01*
X27535Y35154D01*
X27528Y35083D01*
X27511Y35014D01*
X27514Y34952D01*
X27508Y34890D01*
X27522Y34820D01*
X27526Y34748D01*
X27548Y34690D01*
X27560Y34629D01*
X27586Y34589D01*
X27619Y34499D01*
X27750Y34330D01*
X27767Y34304D01*
X30062Y32009D01*
X32092Y29979D01*
X32109Y29966D01*
X32122Y29950D01*
X32216Y29888D01*
X32306Y29821D01*
X32326Y29814D01*
X32343Y29803D01*
X32388Y29793D01*
X32557Y29734D01*
X32670Y29730D01*
X32720Y29719D01*
X36747Y29719D01*
X36798Y29726D01*
X36850Y29725D01*
X36929Y29746D01*
X37010Y29759D01*
X37056Y29781D01*
X37106Y29795D01*
X37175Y29839D01*
X37249Y29874D01*
X37287Y29909D01*
X37330Y29937D01*
X37384Y30000D01*
X37443Y30056D01*
X37469Y30100D01*
X37502Y30140D01*
X37535Y30215D01*
X37575Y30286D01*
X37587Y30337D01*
X37607Y30384D01*
X37615Y30466D01*
X37633Y30546D01*
X37629Y30597D01*
X37634Y30649D01*
X37618Y30729D01*
X37612Y30811D01*
X37592Y30859D01*
X37582Y30909D01*
X37555Y30953D01*
X37513Y31058D01*
X37400Y31197D01*
X37375Y31235D01*
X35194Y33416D01*
X33666Y37104D01*
X33666Y41096D01*
X35194Y44784D01*
X38016Y47606D01*
X41704Y49134D01*
X45696Y49134D01*
X49384Y47606D01*
X52206Y44784D01*
X52965Y42951D01*
X52997Y42898D01*
X53020Y42840D01*
X53066Y42785D01*
X53103Y42723D01*
X53149Y42682D01*
X53188Y42634D01*
X53248Y42594D01*
X53301Y42547D01*
X53357Y42521D01*
X53409Y42487D01*
X53456Y42476D01*
X53543Y42437D01*
X53755Y42410D01*
X53786Y42403D01*
X106960Y42403D01*
X106981Y42406D01*
X107002Y42404D01*
X107112Y42426D01*
X107223Y42443D01*
X107242Y42452D01*
X107262Y42456D01*
X107301Y42480D01*
X107462Y42558D01*
X107545Y42635D01*
X107588Y42663D01*
X124606Y59681D01*
X124632Y59716D01*
X124645Y59728D01*
X124647Y59732D01*
X124675Y59758D01*
X124715Y59829D01*
X124764Y59895D01*
X124781Y59944D01*
X124806Y59988D01*
X124824Y60068D01*
X124851Y60146D01*
X124853Y60198D01*
X124864Y60248D01*
X124858Y60330D01*
X124860Y60412D01*
X124847Y60461D01*
X124843Y60513D01*
X124812Y60589D01*
X124791Y60668D01*
X124763Y60712D01*
X124744Y60760D01*
X124692Y60823D01*
X124648Y60892D01*
X124609Y60926D01*
X124576Y60966D01*
X124508Y61011D01*
X124445Y61064D01*
X124398Y61085D01*
X124355Y61113D01*
X124305Y61125D01*
X124201Y61169D01*
X124023Y61187D01*
X123978Y61197D01*
X53786Y61197D01*
X53725Y61188D01*
X53663Y61189D01*
X53594Y61168D01*
X53523Y61157D01*
X53467Y61130D01*
X53408Y61113D01*
X53348Y61073D01*
X53284Y61042D01*
X53238Y60999D01*
X53187Y60965D01*
X53159Y60926D01*
X53089Y60860D01*
X52983Y60674D01*
X52965Y60649D01*
X52206Y58816D01*
X49384Y55994D01*
X45696Y54466D01*
X41704Y54466D01*
X38016Y55994D01*
X35194Y58816D01*
X33666Y62504D01*
X33666Y66496D01*
X35194Y70184D01*
X38016Y73006D01*
X41704Y74534D01*
X45696Y74534D01*
X49384Y73006D01*
X52206Y70184D01*
X52965Y68351D01*
X52997Y68298D01*
X53020Y68240D01*
X53066Y68185D01*
X53103Y68123D01*
X53149Y68082D01*
X53188Y68034D01*
X53248Y67994D01*
X53301Y67947D01*
X53357Y67921D01*
X53409Y67887D01*
X53456Y67876D01*
X53543Y67837D01*
X53755Y67810D01*
X53786Y67803D01*
X121692Y67803D01*
X121713Y67806D01*
X121734Y67804D01*
X121844Y67826D01*
X121955Y67843D01*
X121974Y67852D01*
X121994Y67856D01*
X122033Y67880D01*
X122194Y67958D01*
X122277Y68035D01*
X122320Y68063D01*
X162807Y108550D01*
X162820Y108567D01*
X162836Y108580D01*
X162898Y108674D01*
X162965Y108764D01*
X162972Y108784D01*
X162983Y108801D01*
X162993Y108846D01*
X163052Y109015D01*
X163056Y109128D01*
X163067Y109178D01*
X163067Y110965D01*
X164045Y111943D01*
X164076Y111984D01*
X164113Y112020D01*
X164154Y112091D01*
X164203Y112157D01*
X164220Y112206D01*
X164245Y112250D01*
X164263Y112330D01*
X164290Y112408D01*
X164292Y112460D01*
X164303Y112510D01*
X164296Y112592D01*
X164299Y112674D01*
X164286Y112723D01*
X164281Y112775D01*
X164251Y112851D01*
X164229Y112930D01*
X164202Y112974D01*
X164182Y113022D01*
X164131Y113085D01*
X164087Y113154D01*
X164047Y113188D01*
X164015Y113228D01*
X163946Y113273D01*
X163884Y113326D01*
X163837Y113347D01*
X163794Y113375D01*
X163743Y113387D01*
X163640Y113431D01*
X163461Y113449D01*
X163417Y113459D01*
X155027Y113459D01*
X155027Y121111D01*
X155012Y121212D01*
X155003Y121315D01*
X154992Y121343D01*
X154987Y121374D01*
X154943Y121466D01*
X154904Y121561D01*
X154885Y121585D01*
X154872Y121613D01*
X154802Y121688D01*
X154737Y121768D01*
X154711Y121785D01*
X154690Y121807D01*
X154601Y121858D01*
X154516Y121915D01*
X154492Y121920D01*
X154459Y121939D01*
X154200Y121997D01*
X154162Y121994D01*
X154139Y121999D01*
X153249Y121999D01*
X153249Y122001D01*
X154139Y122001D01*
X154240Y122016D01*
X154343Y122025D01*
X154371Y122036D01*
X154402Y122041D01*
X154494Y122085D01*
X154589Y122124D01*
X154613Y122143D01*
X154641Y122156D01*
X154716Y122226D01*
X154796Y122291D01*
X154813Y122317D01*
X154835Y122338D01*
X154886Y122427D01*
X154943Y122512D01*
X154948Y122536D01*
X154967Y122569D01*
X155025Y122828D01*
X155022Y122866D01*
X155027Y122889D01*
X155027Y130541D01*
X163257Y130541D01*
X163308Y130548D01*
X163359Y130547D01*
X163439Y130568D01*
X163520Y130581D01*
X163566Y130603D01*
X163616Y130617D01*
X163685Y130661D01*
X163759Y130696D01*
X163797Y130731D01*
X163840Y130759D01*
X163893Y130822D01*
X163953Y130878D01*
X163979Y130922D01*
X164012Y130962D01*
X164045Y131037D01*
X164085Y131108D01*
X164096Y131159D01*
X164117Y131206D01*
X164125Y131288D01*
X164143Y131368D01*
X164139Y131419D01*
X164144Y131471D01*
X164128Y131551D01*
X164121Y131633D01*
X164102Y131681D01*
X164092Y131731D01*
X164064Y131775D01*
X164022Y131880D01*
X163909Y132019D01*
X163885Y132057D01*
X163067Y132875D01*
X163067Y136873D01*
X164331Y138137D01*
X164344Y138154D01*
X164360Y138167D01*
X164422Y138261D01*
X164489Y138351D01*
X164496Y138371D01*
X164507Y138388D01*
X164517Y138433D01*
X164576Y138602D01*
X164580Y138715D01*
X164591Y138765D01*
X164591Y168571D01*
X164578Y168661D01*
X164573Y168752D01*
X164566Y168769D01*
X164566Y168775D01*
X164557Y168797D01*
X164551Y168834D01*
X164512Y168916D01*
X164481Y169001D01*
X164469Y169015D01*
X164467Y169022D01*
X164452Y169040D01*
X164436Y169074D01*
X164374Y169140D01*
X164319Y169212D01*
X164304Y169222D01*
X164299Y169228D01*
X164279Y169241D01*
X164254Y169268D01*
X164176Y169313D01*
X164102Y169365D01*
X164086Y169370D01*
X164078Y169375D01*
X164059Y169380D01*
X164024Y169400D01*
X163935Y169419D01*
X163849Y169448D01*
X163817Y169446D01*
X163764Y169458D01*
X163724Y169454D01*
X163701Y169459D01*
X155027Y169459D01*
X155027Y177111D01*
X155012Y177212D01*
X155003Y177315D01*
X154992Y177343D01*
X154987Y177374D01*
X154943Y177466D01*
X154904Y177561D01*
X154885Y177585D01*
X154872Y177613D01*
X154802Y177688D01*
X154737Y177768D01*
X154711Y177785D01*
X154690Y177807D01*
X154601Y177858D01*
X154516Y177915D01*
X154492Y177920D01*
X154459Y177939D01*
X154200Y177997D01*
X154162Y177994D01*
X154139Y177999D01*
X153249Y177999D01*
X153249Y178001D01*
X154139Y178001D01*
X154240Y178016D01*
X154343Y178025D01*
X154371Y178036D01*
X154402Y178041D01*
X154494Y178085D01*
X154589Y178124D01*
X154613Y178143D01*
X154641Y178156D01*
X154716Y178226D01*
X154796Y178291D01*
X154813Y178317D01*
X154835Y178338D01*
X154886Y178427D01*
X154943Y178512D01*
X154948Y178536D01*
X154967Y178569D01*
X155025Y178828D01*
X155022Y178866D01*
X155027Y178889D01*
X155027Y186541D01*
X163701Y186541D01*
X163713Y186542D01*
X163727Y186541D01*
X163817Y186557D01*
X163907Y186564D01*
X163938Y186577D01*
X163964Y186581D01*
X163973Y186585D01*
X163989Y186588D01*
X164069Y186629D01*
X164154Y186663D01*
X164181Y186685D01*
X164204Y186696D01*
X164210Y186702D01*
X164225Y186710D01*
X164289Y186773D01*
X164360Y186831D01*
X164380Y186861D01*
X164398Y186878D01*
X164401Y186884D01*
X164414Y186896D01*
X164457Y186976D01*
X164507Y187052D01*
X164514Y187080D01*
X164530Y187108D01*
X164531Y187115D01*
X164540Y187131D01*
X164574Y187308D01*
X164588Y187368D01*
X164587Y187374D01*
X164591Y187392D01*
X164588Y187414D01*
X164591Y187429D01*
X164591Y212571D01*
X164578Y212661D01*
X164573Y212752D01*
X164566Y212769D01*
X164566Y212775D01*
X164557Y212797D01*
X164551Y212834D01*
X164512Y212916D01*
X164481Y213001D01*
X164469Y213015D01*
X164467Y213022D01*
X164452Y213040D01*
X164436Y213074D01*
X164374Y213140D01*
X164319Y213212D01*
X164304Y213222D01*
X164299Y213228D01*
X164279Y213241D01*
X164254Y213268D01*
X164176Y213313D01*
X164102Y213365D01*
X164086Y213370D01*
X164078Y213375D01*
X164059Y213380D01*
X164024Y213400D01*
X163935Y213419D01*
X163849Y213448D01*
X163817Y213446D01*
X163764Y213458D01*
X163724Y213454D01*
X163701Y213459D01*
X155027Y213459D01*
X155027Y221111D01*
X155012Y221212D01*
X155003Y221315D01*
X154992Y221343D01*
X154987Y221374D01*
X154943Y221466D01*
X154904Y221561D01*
X154885Y221585D01*
X154872Y221613D01*
X154802Y221688D01*
X154737Y221768D01*
X154711Y221785D01*
X154690Y221807D01*
X154601Y221858D01*
X154516Y221915D01*
X154492Y221920D01*
X154459Y221939D01*
X154200Y221997D01*
X154162Y221994D01*
X154139Y221999D01*
X153249Y221999D01*
X153249Y222001D01*
X154139Y222001D01*
X154240Y222016D01*
X154343Y222025D01*
X154371Y222036D01*
X154402Y222041D01*
X154494Y222085D01*
X154589Y222124D01*
X154613Y222143D01*
X154641Y222156D01*
X154716Y222226D01*
X154796Y222291D01*
X154813Y222317D01*
X154835Y222338D01*
X154886Y222427D01*
X154943Y222512D01*
X154948Y222536D01*
X154967Y222569D01*
X155025Y222828D01*
X155022Y222866D01*
X155027Y222889D01*
X155027Y230541D01*
X163333Y230541D01*
X163384Y230548D01*
X163435Y230547D01*
X163515Y230568D01*
X163596Y230581D01*
X163642Y230603D01*
X163692Y230617D01*
X163761Y230661D01*
X163835Y230696D01*
X163873Y230731D01*
X163916Y230759D01*
X163969Y230822D01*
X164029Y230878D01*
X164055Y230922D01*
X164088Y230962D01*
X164121Y231037D01*
X164161Y231108D01*
X164172Y231159D01*
X164193Y231206D01*
X164201Y231288D01*
X164219Y231368D01*
X164215Y231419D01*
X164220Y231471D01*
X164204Y231551D01*
X164197Y231633D01*
X164178Y231681D01*
X164168Y231731D01*
X164140Y231775D01*
X164098Y231880D01*
X163985Y232019D01*
X163961Y232057D01*
X163067Y232951D01*
X163067Y236949D01*
X164331Y238213D01*
X164344Y238230D01*
X164360Y238243D01*
X164374Y238265D01*
X164376Y238266D01*
X164379Y238272D01*
X164422Y238337D01*
X164489Y238427D01*
X164496Y238447D01*
X164507Y238464D01*
X164517Y238509D01*
X164576Y238678D01*
X164580Y238791D01*
X164591Y238841D01*
X164591Y268571D01*
X164578Y268661D01*
X164573Y268752D01*
X164566Y268769D01*
X164566Y268775D01*
X164557Y268797D01*
X164551Y268834D01*
X164512Y268916D01*
X164481Y269001D01*
X164469Y269015D01*
X164467Y269022D01*
X164452Y269040D01*
X164436Y269074D01*
X164374Y269140D01*
X164319Y269212D01*
X164304Y269222D01*
X164299Y269228D01*
X164279Y269241D01*
X164254Y269268D01*
X164176Y269313D01*
X164102Y269365D01*
X164086Y269370D01*
X164078Y269375D01*
X164059Y269380D01*
X164024Y269400D01*
X163935Y269419D01*
X163849Y269448D01*
X163817Y269446D01*
X163764Y269458D01*
X163724Y269454D01*
X163701Y269459D01*
X155027Y269459D01*
X155027Y277111D01*
X155012Y277212D01*
X155003Y277315D01*
X154992Y277343D01*
X154987Y277374D01*
X154943Y277466D01*
X154904Y277561D01*
X154885Y277585D01*
X154872Y277613D01*
X154802Y277688D01*
X154737Y277768D01*
X154711Y277785D01*
X154690Y277807D01*
X154601Y277858D01*
X154516Y277915D01*
X154492Y277920D01*
X154459Y277939D01*
X154200Y277997D01*
X154162Y277994D01*
X154139Y277999D01*
X153249Y277999D01*
X153249Y278001D01*
X154139Y278001D01*
X154240Y278016D01*
X154343Y278025D01*
X154371Y278036D01*
X154402Y278041D01*
X154494Y278085D01*
X154589Y278124D01*
X154613Y278143D01*
X154641Y278156D01*
X154716Y278226D01*
X154796Y278291D01*
X154813Y278317D01*
X154835Y278338D01*
X154886Y278427D01*
X154943Y278512D01*
X154948Y278536D01*
X154967Y278569D01*
X155025Y278828D01*
X155022Y278866D01*
X155027Y278889D01*
X155027Y286541D01*
X163701Y286541D01*
X163713Y286542D01*
X163727Y286541D01*
X163817Y286557D01*
X163907Y286564D01*
X163938Y286577D01*
X163964Y286581D01*
X163973Y286585D01*
X163989Y286588D01*
X164069Y286629D01*
X164154Y286663D01*
X164181Y286685D01*
X164204Y286696D01*
X164210Y286702D01*
X164225Y286710D01*
X164289Y286773D01*
X164360Y286831D01*
X164380Y286861D01*
X164398Y286878D01*
X164401Y286884D01*
X164414Y286896D01*
X164457Y286976D01*
X164507Y287052D01*
X164514Y287080D01*
X164530Y287108D01*
X164531Y287115D01*
X164540Y287131D01*
X164574Y287308D01*
X164588Y287368D01*
X164587Y287374D01*
X164591Y287392D01*
X164588Y287414D01*
X164591Y287429D01*
X164591Y312571D01*
X164578Y312661D01*
X164573Y312752D01*
X164566Y312769D01*
X164566Y312775D01*
X164557Y312797D01*
X164551Y312834D01*
X164512Y312916D01*
X164481Y313001D01*
X164469Y313015D01*
X164467Y313022D01*
X164452Y313040D01*
X164436Y313074D01*
X164374Y313140D01*
X164319Y313212D01*
X164304Y313222D01*
X164299Y313228D01*
X164279Y313241D01*
X164254Y313268D01*
X164176Y313313D01*
X164102Y313365D01*
X164086Y313370D01*
X164078Y313375D01*
X164059Y313380D01*
X164024Y313400D01*
X163935Y313419D01*
X163849Y313448D01*
X163817Y313446D01*
X163764Y313458D01*
X163724Y313454D01*
X163701Y313459D01*
X155027Y313459D01*
X155027Y321111D01*
X155012Y321212D01*
X155003Y321315D01*
X154992Y321343D01*
X154987Y321374D01*
X154943Y321466D01*
X154904Y321561D01*
X154885Y321585D01*
X154872Y321613D01*
X154802Y321688D01*
X154737Y321768D01*
X154711Y321785D01*
X154690Y321807D01*
X154601Y321858D01*
X154516Y321915D01*
X154492Y321920D01*
X154459Y321939D01*
X154200Y321997D01*
X154162Y321994D01*
X154139Y321999D01*
X153249Y321999D01*
X153249Y322001D01*
X154139Y322001D01*
X154240Y322016D01*
X154343Y322025D01*
X154371Y322036D01*
X154402Y322041D01*
X154494Y322085D01*
X154589Y322124D01*
X154613Y322143D01*
X154641Y322156D01*
X154716Y322226D01*
X154796Y322291D01*
X154813Y322317D01*
X154835Y322338D01*
X154886Y322427D01*
X154943Y322512D01*
X154948Y322536D01*
X154967Y322569D01*
X155025Y322828D01*
X155022Y322866D01*
X155027Y322889D01*
X155027Y330541D01*
X163409Y330541D01*
X163460Y330548D01*
X163511Y330547D01*
X163591Y330568D01*
X163672Y330581D01*
X163718Y330603D01*
X163768Y330617D01*
X163837Y330661D01*
X163911Y330696D01*
X163949Y330731D01*
X163992Y330759D01*
X164045Y330822D01*
X164105Y330878D01*
X164131Y330922D01*
X164164Y330962D01*
X164197Y331037D01*
X164237Y331108D01*
X164248Y331159D01*
X164269Y331206D01*
X164277Y331288D01*
X164295Y331368D01*
X164291Y331419D01*
X164296Y331471D01*
X164280Y331551D01*
X164273Y331633D01*
X164254Y331681D01*
X164244Y331731D01*
X164216Y331775D01*
X164174Y331880D01*
X164061Y332019D01*
X164037Y332057D01*
X163067Y333027D01*
X163067Y337025D01*
X164331Y338289D01*
X164344Y338306D01*
X164360Y338319D01*
X164422Y338413D01*
X164489Y338503D01*
X164496Y338523D01*
X164507Y338540D01*
X164517Y338585D01*
X164576Y338754D01*
X164580Y338867D01*
X164591Y338917D01*
X164591Y368571D01*
X164578Y368661D01*
X164573Y368752D01*
X164566Y368769D01*
X164566Y368775D01*
X164557Y368797D01*
X164551Y368834D01*
X164512Y368916D01*
X164481Y369001D01*
X164469Y369015D01*
X164467Y369022D01*
X164452Y369040D01*
X164436Y369074D01*
X164374Y369140D01*
X164319Y369212D01*
X164304Y369222D01*
X164299Y369228D01*
X164279Y369241D01*
X164254Y369268D01*
X164176Y369313D01*
X164102Y369365D01*
X164086Y369370D01*
X164078Y369375D01*
X164059Y369380D01*
X164024Y369400D01*
X163935Y369419D01*
X163849Y369448D01*
X163817Y369446D01*
X163764Y369458D01*
X163724Y369454D01*
X163701Y369459D01*
X155027Y369459D01*
X155027Y377111D01*
X155012Y377212D01*
X155003Y377315D01*
X154992Y377343D01*
X154987Y377374D01*
X154943Y377466D01*
X154904Y377561D01*
X154885Y377585D01*
X154872Y377613D01*
X154802Y377688D01*
X154737Y377768D01*
X154711Y377785D01*
X154690Y377807D01*
X154601Y377858D01*
X154516Y377915D01*
X154492Y377920D01*
X154459Y377939D01*
X154200Y377997D01*
X154162Y377994D01*
X154139Y377999D01*
X153249Y377999D01*
X153249Y378001D01*
X154139Y378001D01*
X154240Y378016D01*
X154343Y378025D01*
X154371Y378036D01*
X154402Y378041D01*
X154494Y378085D01*
X154589Y378124D01*
X154613Y378143D01*
X154641Y378156D01*
X154716Y378226D01*
X154796Y378291D01*
X154813Y378317D01*
X154835Y378338D01*
X154886Y378427D01*
X154943Y378512D01*
X154948Y378536D01*
X154967Y378569D01*
X155025Y378828D01*
X155022Y378866D01*
X155027Y378889D01*
X155027Y386541D01*
X163701Y386541D01*
X163713Y386542D01*
X163727Y386541D01*
X163817Y386557D01*
X163907Y386564D01*
X163938Y386577D01*
X163964Y386581D01*
X163973Y386585D01*
X163989Y386588D01*
X164069Y386629D01*
X164154Y386663D01*
X164181Y386685D01*
X164204Y386696D01*
X164210Y386702D01*
X164225Y386710D01*
X164289Y386773D01*
X164360Y386831D01*
X164380Y386861D01*
X164398Y386878D01*
X164401Y386884D01*
X164414Y386896D01*
X164457Y386976D01*
X164507Y387052D01*
X164514Y387080D01*
X164530Y387108D01*
X164531Y387115D01*
X164540Y387131D01*
X164574Y387308D01*
X164588Y387368D01*
X164587Y387374D01*
X164591Y387392D01*
X164588Y387414D01*
X164591Y387429D01*
X164591Y412571D01*
X164578Y412661D01*
X164573Y412752D01*
X164566Y412769D01*
X164566Y412775D01*
X164557Y412797D01*
X164551Y412834D01*
X164512Y412916D01*
X164481Y413001D01*
X164469Y413015D01*
X164467Y413022D01*
X164452Y413040D01*
X164436Y413074D01*
X164374Y413140D01*
X164319Y413212D01*
X164304Y413222D01*
X164299Y413228D01*
X164279Y413241D01*
X164254Y413268D01*
X164176Y413313D01*
X164102Y413365D01*
X164086Y413370D01*
X164078Y413375D01*
X164059Y413380D01*
X164024Y413400D01*
X163935Y413419D01*
X163849Y413448D01*
X163817Y413446D01*
X163764Y413458D01*
X163724Y413454D01*
X163701Y413459D01*
X155027Y413459D01*
X155027Y421111D01*
X155012Y421212D01*
X155003Y421315D01*
X154992Y421343D01*
X154987Y421374D01*
X154943Y421466D01*
X154904Y421561D01*
X154885Y421585D01*
X154872Y421613D01*
X154802Y421688D01*
X154737Y421768D01*
X154711Y421785D01*
X154690Y421807D01*
X154601Y421858D01*
X154516Y421915D01*
X154492Y421920D01*
X154459Y421939D01*
X154200Y421997D01*
X154162Y421994D01*
X154139Y421999D01*
X153249Y421999D01*
X153249Y422001D01*
X154139Y422001D01*
X154240Y422016D01*
X154343Y422025D01*
X154371Y422036D01*
X154402Y422041D01*
X154494Y422085D01*
X154589Y422124D01*
X154613Y422143D01*
X154641Y422156D01*
X154716Y422226D01*
X154796Y422291D01*
X154813Y422317D01*
X154835Y422338D01*
X154886Y422427D01*
X154943Y422512D01*
X154948Y422536D01*
X154967Y422569D01*
X155025Y422828D01*
X155022Y422866D01*
X155027Y422889D01*
X155027Y430541D01*
X163485Y430541D01*
X163536Y430548D01*
X163587Y430547D01*
X163667Y430568D01*
X163748Y430581D01*
X163794Y430603D01*
X163844Y430617D01*
X163913Y430661D01*
X163987Y430696D01*
X164025Y430731D01*
X164068Y430759D01*
X164121Y430822D01*
X164181Y430878D01*
X164207Y430922D01*
X164240Y430962D01*
X164273Y431037D01*
X164313Y431108D01*
X164324Y431159D01*
X164345Y431206D01*
X164353Y431288D01*
X164371Y431368D01*
X164367Y431419D01*
X164372Y431471D01*
X164356Y431551D01*
X164349Y431633D01*
X164330Y431681D01*
X164320Y431731D01*
X164292Y431775D01*
X164250Y431880D01*
X164137Y432019D01*
X164113Y432057D01*
X163067Y433103D01*
X163067Y437101D01*
X165895Y439929D01*
X169893Y439929D01*
X171203Y438619D01*
X171244Y438588D01*
X171280Y438551D01*
X171351Y438510D01*
X171417Y438461D01*
X171466Y438444D01*
X171510Y438419D01*
X171590Y438401D01*
X171668Y438374D01*
X171720Y438372D01*
X171770Y438361D01*
X171852Y438368D01*
X171934Y438365D01*
X171983Y438378D01*
X172035Y438383D01*
X172111Y438413D01*
X172190Y438435D01*
X172234Y438462D01*
X172282Y438482D01*
X172345Y438533D01*
X172414Y438577D01*
X172448Y438617D01*
X172488Y438649D01*
X172533Y438718D01*
X172586Y438780D01*
X172607Y438827D01*
X172635Y438870D01*
X172647Y438921D01*
X172691Y439024D01*
X172709Y439203D01*
X172719Y439247D01*
X172719Y441117D01*
X172716Y441137D01*
X172718Y441158D01*
X172696Y441269D01*
X172679Y441380D01*
X172670Y441398D01*
X172666Y441419D01*
X172642Y441458D01*
X172564Y441619D01*
X172487Y441701D01*
X172459Y441745D01*
X171195Y443009D01*
X171195Y447007D01*
X172759Y448571D01*
X172790Y448612D01*
X172827Y448648D01*
X172868Y448719D01*
X172917Y448785D01*
X172934Y448834D01*
X172959Y448878D01*
X172977Y448958D01*
X173004Y449036D01*
X173006Y449088D01*
X173017Y449138D01*
X173010Y449220D01*
X173013Y449302D01*
X173000Y449351D01*
X172995Y449403D01*
X172965Y449479D01*
X172943Y449558D01*
X172916Y449602D01*
X172896Y449650D01*
X172845Y449713D01*
X172801Y449782D01*
X172761Y449816D01*
X172729Y449856D01*
X172660Y449901D01*
X172598Y449954D01*
X172551Y449975D01*
X172508Y450003D01*
X172457Y450015D01*
X172354Y450059D01*
X172175Y450077D01*
X172131Y450087D01*
X169959Y450087D01*
X167131Y452915D01*
X167131Y456913D01*
X169959Y459741D01*
X173957Y459741D01*
X175221Y458477D01*
X175238Y458464D01*
X175251Y458448D01*
X175345Y458386D01*
X175435Y458319D01*
X175455Y458312D01*
X175472Y458301D01*
X175517Y458291D01*
X175686Y458232D01*
X175799Y458228D01*
X175849Y458217D01*
X180583Y458217D01*
X180604Y458220D01*
X180625Y458218D01*
X180735Y458240D01*
X180846Y458257D01*
X180865Y458266D01*
X180886Y458270D01*
X180924Y458294D01*
X181085Y458372D01*
X181168Y458449D01*
X181211Y458477D01*
X181568Y458833D01*
X181629Y458916D01*
X181695Y458994D01*
X181707Y459022D01*
X181725Y459047D01*
X181759Y459144D01*
X181799Y459238D01*
X181803Y459269D01*
X181813Y459298D01*
X181816Y459401D01*
X181827Y459503D01*
X181821Y459533D01*
X181822Y459564D01*
X181795Y459663D01*
X181775Y459764D01*
X181762Y459784D01*
X181752Y459820D01*
X181609Y460045D01*
X181580Y460069D01*
X181568Y460089D01*
X181217Y460440D01*
X180882Y461019D01*
X180709Y461665D01*
X180709Y463501D01*
X189389Y463501D01*
X189490Y463516D01*
X189593Y463524D01*
X189621Y463536D01*
X189652Y463540D01*
X189744Y463585D01*
X189839Y463623D01*
X189863Y463643D01*
X189891Y463656D01*
X189966Y463726D01*
X189997Y463752D01*
X190013Y463732D01*
X190039Y463715D01*
X190060Y463693D01*
X190149Y463642D01*
X190234Y463585D01*
X190258Y463579D01*
X190291Y463561D01*
X190550Y463503D01*
X190588Y463506D01*
X190611Y463501D01*
X199291Y463501D01*
X199291Y461665D01*
X199118Y461019D01*
X198783Y460440D01*
X198432Y460089D01*
X198372Y460007D01*
X198305Y459928D01*
X198293Y459900D01*
X198275Y459875D01*
X198241Y459779D01*
X198201Y459684D01*
X198197Y459653D01*
X198187Y459624D01*
X198184Y459522D01*
X198173Y459420D01*
X198179Y459389D01*
X198178Y459359D01*
X198205Y459260D01*
X198225Y459159D01*
X198238Y459139D01*
X198248Y459102D01*
X198391Y458878D01*
X198420Y458853D01*
X198432Y458833D01*
X198529Y458737D01*
X198529Y451263D01*
X197894Y450628D01*
X197833Y450546D01*
X197766Y450467D01*
X197754Y450439D01*
X197736Y450414D01*
X197702Y450317D01*
X197662Y450223D01*
X197659Y450192D01*
X197649Y450163D01*
X197645Y450061D01*
X197634Y449958D01*
X197640Y449928D01*
X197639Y449897D01*
X197666Y449798D01*
X197686Y449698D01*
X197699Y449678D01*
X197709Y449641D01*
X197852Y449417D01*
X197881Y449392D01*
X197894Y449372D01*
X198529Y448737D01*
X198529Y441263D01*
X197894Y440628D01*
X197833Y440546D01*
X197766Y440467D01*
X197754Y440439D01*
X197736Y440414D01*
X197702Y440317D01*
X197662Y440223D01*
X197659Y440192D01*
X197649Y440163D01*
X197645Y440061D01*
X197634Y439958D01*
X197640Y439928D01*
X197639Y439897D01*
X197666Y439798D01*
X197686Y439698D01*
X197699Y439678D01*
X197709Y439641D01*
X197852Y439417D01*
X197881Y439392D01*
X197894Y439372D01*
X198703Y438563D01*
X198720Y438550D01*
X198733Y438534D01*
X198826Y438472D01*
X198917Y438405D01*
X198936Y438398D01*
X198954Y438387D01*
X198998Y438377D01*
X199168Y438318D01*
X199280Y438314D01*
X199331Y438303D01*
X206065Y438303D01*
X206085Y438306D01*
X206106Y438304D01*
X206217Y438326D01*
X206328Y438343D01*
X206346Y438352D01*
X206367Y438356D01*
X206406Y438380D01*
X206567Y438458D01*
X206649Y438535D01*
X206693Y438563D01*
X207805Y439675D01*
X211803Y439675D01*
X213276Y438202D01*
X213317Y438171D01*
X213353Y438134D01*
X213424Y438093D01*
X213490Y438044D01*
X213539Y438027D01*
X213583Y438002D01*
X213663Y437984D01*
X213741Y437957D01*
X213793Y437955D01*
X213843Y437944D01*
X213925Y437951D01*
X214007Y437948D01*
X214056Y437961D01*
X214108Y437966D01*
X214184Y437996D01*
X214263Y438018D01*
X214307Y438045D01*
X214355Y438065D01*
X214418Y438116D01*
X214487Y438160D01*
X214521Y438200D01*
X214561Y438232D01*
X214606Y438301D01*
X214659Y438363D01*
X214680Y438410D01*
X214708Y438453D01*
X214720Y438504D01*
X214764Y438607D01*
X214782Y438786D01*
X214792Y438830D01*
X214792Y503904D01*
X214777Y504006D01*
X214769Y504108D01*
X214757Y504136D01*
X214752Y504167D01*
X214708Y504259D01*
X214670Y504355D01*
X214650Y504378D01*
X214637Y504406D01*
X214567Y504481D01*
X214502Y504561D01*
X214476Y504578D01*
X214455Y504600D01*
X214366Y504651D01*
X214281Y504708D01*
X214257Y504714D01*
X214225Y504732D01*
X213965Y504790D01*
X213927Y504787D01*
X213904Y504792D01*
X55384Y504792D01*
X55282Y504777D01*
X55180Y504769D01*
X55152Y504757D01*
X55121Y504752D01*
X55029Y504708D01*
X54933Y504670D01*
X54910Y504650D01*
X54882Y504637D01*
X54807Y504567D01*
X54727Y504502D01*
X54710Y504476D01*
X54688Y504455D01*
X54637Y504366D01*
X54580Y504281D01*
X54574Y504257D01*
X54556Y504225D01*
X54498Y503965D01*
X54501Y503927D01*
X54496Y503904D01*
X54496Y498077D01*
X44589Y498077D01*
X44488Y498062D01*
X44385Y498053D01*
X44357Y498042D01*
X44326Y498037D01*
X44234Y497993D01*
X44139Y497954D01*
X44115Y497935D01*
X44087Y497922D01*
X44012Y497852D01*
X43932Y497787D01*
X43915Y497761D01*
X43893Y497740D01*
X43842Y497651D01*
X43785Y497566D01*
X43780Y497542D01*
X43761Y497510D01*
X43703Y497250D01*
X43706Y497212D01*
X43701Y497189D01*
X43701Y496299D01*
X43699Y496299D01*
X43699Y497189D01*
X43684Y497290D01*
X43675Y497393D01*
X43664Y497421D01*
X43659Y497452D01*
X43615Y497544D01*
X43576Y497639D01*
X43557Y497663D01*
X43544Y497691D01*
X43474Y497766D01*
X43409Y497846D01*
X43383Y497863D01*
X43362Y497885D01*
X43273Y497936D01*
X43188Y497993D01*
X43164Y497999D01*
X43131Y498017D01*
X42872Y498075D01*
X42834Y498072D01*
X42811Y498077D01*
X32904Y498077D01*
X32904Y503904D01*
X32889Y504006D01*
X32881Y504108D01*
X32869Y504136D01*
X32864Y504167D01*
X32820Y504259D01*
X32782Y504355D01*
X32762Y504378D01*
X32749Y504406D01*
X32679Y504481D01*
X32614Y504561D01*
X32588Y504578D01*
X32567Y504600D01*
X32478Y504651D01*
X32393Y504708D01*
X32369Y504714D01*
X32337Y504732D01*
X32077Y504790D01*
X32039Y504787D01*
X32016Y504792D01*
X26142Y504792D01*
X26091Y504785D01*
X26039Y504786D01*
X25960Y504765D01*
X25879Y504752D01*
X25833Y504730D01*
X25783Y504716D01*
X25714Y504672D01*
X25640Y504637D01*
X25602Y504602D01*
X25559Y504574D01*
X25505Y504511D01*
X25446Y504455D01*
X25420Y504411D01*
X25387Y504371D01*
X25354Y504296D01*
X25314Y504225D01*
X25302Y504174D01*
X25282Y504127D01*
X25274Y504045D01*
X25256Y503965D01*
X25260Y503914D01*
X25255Y503862D01*
X25271Y503782D01*
X25277Y503700D01*
X25297Y503652D01*
X25307Y503602D01*
X25334Y503558D01*
X25376Y503453D01*
X25489Y503314D01*
X25514Y503276D01*
X26806Y501984D01*
X28334Y498296D01*
X28334Y494304D01*
X26806Y490616D01*
X23984Y487794D01*
X20296Y486266D01*
X16304Y486266D01*
X12616Y487794D01*
X9794Y490616D01*
X8266Y494304D01*
X8266Y498296D01*
X9794Y501984D01*
X11086Y503276D01*
X11117Y503317D01*
X11154Y503353D01*
X11195Y503424D01*
X11244Y503490D01*
X11261Y503539D01*
X11286Y503583D01*
X11304Y503663D01*
X11331Y503741D01*
X11333Y503793D01*
X11344Y503843D01*
X11338Y503925D01*
X11340Y504007D01*
X11327Y504056D01*
X11323Y504108D01*
X11292Y504184D01*
X11270Y504263D01*
X11243Y504307D01*
X11224Y504355D01*
X11172Y504418D01*
X11128Y504487D01*
X11089Y504521D01*
X11056Y504561D01*
X10988Y504606D01*
X10925Y504659D01*
X10878Y504680D01*
X10835Y504708D01*
X10784Y504720D01*
X10681Y504764D01*
X10502Y504782D01*
X10458Y504792D01*
X6096Y504792D01*
X5994Y504777D01*
X5892Y504769D01*
X5864Y504757D01*
X5833Y504752D01*
X5741Y504708D01*
X5645Y504670D01*
X5622Y504650D01*
X5594Y504637D01*
X5519Y504567D01*
X5439Y504502D01*
X5422Y504476D01*
X5400Y504455D01*
X5349Y504366D01*
X5292Y504281D01*
X5286Y504257D01*
X5268Y504225D01*
X5210Y503965D01*
X5213Y503927D01*
X5208Y503904D01*
X5208Y6096D01*
X5223Y5994D01*
X5231Y5892D01*
X5243Y5864D01*
X5248Y5833D01*
X5292Y5741D01*
X5330Y5645D01*
X5350Y5622D01*
X5363Y5594D01*
X5433Y5519D01*
X5498Y5439D01*
X5524Y5422D01*
X5545Y5400D01*
X5634Y5349D01*
X5719Y5292D01*
X5743Y5286D01*
X5775Y5268D01*
X6035Y5210D01*
X6073Y5213D01*
X6096Y5208D01*
X10458Y5208D01*
X10509Y5215D01*
G37*
G36*
X214006Y5223D02*
X214006Y5223D01*
X214108Y5231D01*
X214136Y5243D01*
X214167Y5248D01*
X214259Y5292D01*
X214355Y5330D01*
X214378Y5350D01*
X214406Y5363D01*
X214481Y5433D01*
X214561Y5498D01*
X214578Y5524D01*
X214600Y5545D01*
X214651Y5634D01*
X214708Y5719D01*
X214714Y5743D01*
X214732Y5775D01*
X214790Y6035D01*
X214787Y6073D01*
X214792Y6096D01*
X214792Y84201D01*
X214777Y84303D01*
X214769Y84405D01*
X214757Y84433D01*
X214752Y84464D01*
X214708Y84556D01*
X214670Y84652D01*
X214650Y84675D01*
X214637Y84703D01*
X214567Y84778D01*
X214502Y84858D01*
X214476Y84875D01*
X214455Y84897D01*
X214366Y84948D01*
X214281Y85005D01*
X214257Y85011D01*
X214225Y85029D01*
X213965Y85087D01*
X213927Y85084D01*
X213904Y85089D01*
X210258Y85089D01*
X210237Y85086D01*
X210216Y85088D01*
X210106Y85066D01*
X209995Y85049D01*
X209976Y85040D01*
X209955Y85036D01*
X209917Y85012D01*
X209756Y84934D01*
X209673Y84857D01*
X209630Y84829D01*
X208493Y83692D01*
X199431Y83692D01*
X197738Y85385D01*
X197738Y94447D01*
X199431Y96140D01*
X208493Y96140D01*
X209630Y95003D01*
X209647Y94990D01*
X209660Y94974D01*
X209753Y94912D01*
X209844Y94845D01*
X209863Y94838D01*
X209881Y94827D01*
X209925Y94817D01*
X210095Y94758D01*
X210207Y94754D01*
X210258Y94743D01*
X213904Y94743D01*
X214006Y94758D01*
X214108Y94766D01*
X214136Y94778D01*
X214167Y94783D01*
X214259Y94827D01*
X214355Y94865D01*
X214378Y94885D01*
X214406Y94898D01*
X214481Y94968D01*
X214561Y95033D01*
X214578Y95059D01*
X214600Y95080D01*
X214651Y95169D01*
X214708Y95254D01*
X214714Y95278D01*
X214732Y95310D01*
X214790Y95570D01*
X214787Y95608D01*
X214792Y95631D01*
X214792Y98679D01*
X214777Y98781D01*
X214769Y98883D01*
X214757Y98911D01*
X214752Y98942D01*
X214708Y99034D01*
X214670Y99130D01*
X214650Y99153D01*
X214637Y99181D01*
X214567Y99256D01*
X214502Y99336D01*
X214476Y99353D01*
X214455Y99375D01*
X214366Y99426D01*
X214281Y99483D01*
X214257Y99489D01*
X214225Y99507D01*
X213965Y99565D01*
X213927Y99562D01*
X213904Y99567D01*
X210258Y99567D01*
X210237Y99564D01*
X210216Y99566D01*
X210106Y99544D01*
X209995Y99527D01*
X209976Y99518D01*
X209955Y99514D01*
X209917Y99490D01*
X209756Y99412D01*
X209673Y99335D01*
X209630Y99307D01*
X208493Y98170D01*
X199431Y98170D01*
X197738Y99863D01*
X197738Y108925D01*
X199431Y110618D01*
X208493Y110618D01*
X209630Y109481D01*
X209647Y109468D01*
X209660Y109452D01*
X209753Y109390D01*
X209844Y109323D01*
X209863Y109316D01*
X209881Y109305D01*
X209925Y109295D01*
X210095Y109236D01*
X210207Y109232D01*
X210258Y109221D01*
X213904Y109221D01*
X214006Y109236D01*
X214108Y109244D01*
X214136Y109256D01*
X214167Y109261D01*
X214259Y109305D01*
X214355Y109343D01*
X214378Y109363D01*
X214406Y109376D01*
X214481Y109446D01*
X214561Y109511D01*
X214578Y109537D01*
X214600Y109558D01*
X214651Y109647D01*
X214708Y109732D01*
X214714Y109756D01*
X214732Y109788D01*
X214790Y110048D01*
X214787Y110086D01*
X214792Y110109D01*
X214792Y131654D01*
X214785Y131705D01*
X214786Y131756D01*
X214765Y131836D01*
X214752Y131917D01*
X214730Y131963D01*
X214716Y132013D01*
X214672Y132082D01*
X214637Y132156D01*
X214602Y132194D01*
X214574Y132237D01*
X214511Y132290D01*
X214455Y132350D01*
X214411Y132376D01*
X214371Y132409D01*
X214296Y132442D01*
X214225Y132482D01*
X214174Y132493D01*
X214127Y132514D01*
X214045Y132522D01*
X213965Y132540D01*
X213914Y132536D01*
X213862Y132541D01*
X213782Y132525D01*
X213700Y132518D01*
X213652Y132499D01*
X213602Y132489D01*
X213558Y132461D01*
X213453Y132419D01*
X213314Y132306D01*
X213276Y132282D01*
X211295Y130301D01*
X207297Y130301D01*
X206161Y131437D01*
X206144Y131450D01*
X206131Y131466D01*
X206037Y131528D01*
X205947Y131595D01*
X205927Y131602D01*
X205910Y131613D01*
X205865Y131623D01*
X205696Y131682D01*
X205583Y131686D01*
X205533Y131697D01*
X199331Y131697D01*
X199310Y131694D01*
X199289Y131696D01*
X199179Y131674D01*
X199068Y131657D01*
X199049Y131648D01*
X199028Y131644D01*
X198990Y131620D01*
X198829Y131542D01*
X198746Y131465D01*
X198703Y131437D01*
X197487Y130221D01*
X182513Y130221D01*
X181471Y131263D01*
X181471Y138737D01*
X182106Y139372D01*
X182167Y139455D01*
X182234Y139533D01*
X182246Y139561D01*
X182264Y139586D01*
X182298Y139683D01*
X182338Y139777D01*
X182341Y139808D01*
X182351Y139837D01*
X182355Y139940D01*
X182366Y140042D01*
X182360Y140072D01*
X182361Y140103D01*
X182334Y140202D01*
X182314Y140302D01*
X182301Y140323D01*
X182291Y140359D01*
X182148Y140583D01*
X182119Y140608D01*
X182106Y140628D01*
X181297Y141437D01*
X181281Y141450D01*
X181267Y141466D01*
X181173Y141528D01*
X181083Y141595D01*
X181064Y141602D01*
X181046Y141613D01*
X181001Y141623D01*
X180832Y141682D01*
X180720Y141686D01*
X180669Y141697D01*
X180213Y141697D01*
X180111Y141682D01*
X180009Y141674D01*
X179981Y141662D01*
X179950Y141657D01*
X179858Y141613D01*
X179762Y141575D01*
X179739Y141555D01*
X179711Y141542D01*
X179636Y141472D01*
X179556Y141407D01*
X179539Y141381D01*
X179517Y141360D01*
X179466Y141271D01*
X179409Y141186D01*
X179403Y141162D01*
X179385Y141130D01*
X179327Y140870D01*
X179330Y140832D01*
X179325Y140809D01*
X179325Y110702D01*
X179328Y110681D01*
X179326Y110660D01*
X179348Y110550D01*
X179365Y110439D01*
X179374Y110420D01*
X179378Y110399D01*
X179402Y110361D01*
X179480Y110200D01*
X179557Y110117D01*
X179585Y110074D01*
X179670Y109989D01*
X179687Y109976D01*
X179700Y109960D01*
X179794Y109897D01*
X179884Y109831D01*
X179904Y109824D01*
X179921Y109813D01*
X179966Y109803D01*
X180135Y109744D01*
X180248Y109740D01*
X180298Y109729D01*
X182934Y109729D01*
X182955Y109732D01*
X182976Y109730D01*
X183086Y109752D01*
X183197Y109769D01*
X183216Y109778D01*
X183237Y109782D01*
X183275Y109806D01*
X183436Y109884D01*
X183519Y109961D01*
X183562Y109989D01*
X184191Y110618D01*
X193253Y110618D01*
X194946Y108925D01*
X194946Y99863D01*
X193253Y98170D01*
X184191Y98170D01*
X182498Y99863D01*
X182498Y102235D01*
X182483Y102337D01*
X182475Y102439D01*
X182463Y102467D01*
X182458Y102498D01*
X182414Y102590D01*
X182376Y102686D01*
X182356Y102709D01*
X182343Y102737D01*
X182273Y102812D01*
X182208Y102892D01*
X182182Y102909D01*
X182161Y102931D01*
X182072Y102982D01*
X181987Y103039D01*
X181963Y103045D01*
X181931Y103063D01*
X181671Y103121D01*
X181633Y103118D01*
X181610Y103123D01*
X177758Y103123D01*
X177737Y103120D01*
X177716Y103122D01*
X177606Y103100D01*
X177495Y103083D01*
X177476Y103074D01*
X177456Y103070D01*
X177417Y103046D01*
X177256Y102968D01*
X177173Y102891D01*
X177130Y102863D01*
X170526Y96259D01*
X170495Y96218D01*
X170457Y96182D01*
X170417Y96111D01*
X170368Y96045D01*
X170351Y95996D01*
X170326Y95952D01*
X170308Y95872D01*
X170281Y95794D01*
X170279Y95742D01*
X170268Y95692D01*
X170274Y95610D01*
X170272Y95528D01*
X170285Y95479D01*
X170289Y95427D01*
X170320Y95351D01*
X170341Y95272D01*
X170369Y95228D01*
X170388Y95180D01*
X170440Y95117D01*
X170484Y95048D01*
X170523Y95014D01*
X170556Y94974D01*
X170624Y94929D01*
X170687Y94876D01*
X170734Y94855D01*
X170777Y94827D01*
X170827Y94815D01*
X170931Y94771D01*
X171109Y94753D01*
X171154Y94743D01*
X174211Y94743D01*
X175475Y93479D01*
X175492Y93466D01*
X175505Y93450D01*
X175599Y93388D01*
X175689Y93321D01*
X175709Y93314D01*
X175726Y93303D01*
X175771Y93293D01*
X175940Y93234D01*
X176053Y93230D01*
X176103Y93219D01*
X181610Y93219D01*
X181712Y93234D01*
X181814Y93242D01*
X181842Y93254D01*
X181873Y93259D01*
X181965Y93303D01*
X182061Y93341D01*
X182084Y93361D01*
X182112Y93374D01*
X182187Y93444D01*
X182267Y93509D01*
X182284Y93535D01*
X182306Y93556D01*
X182357Y93645D01*
X182414Y93730D01*
X182420Y93754D01*
X182438Y93786D01*
X182496Y94046D01*
X182493Y94084D01*
X182498Y94107D01*
X182498Y94447D01*
X184191Y96140D01*
X193253Y96140D01*
X194946Y94447D01*
X194946Y85385D01*
X193253Y83692D01*
X184191Y83692D01*
X182498Y85385D01*
X182498Y85725D01*
X182483Y85827D01*
X182475Y85929D01*
X182463Y85957D01*
X182458Y85988D01*
X182414Y86080D01*
X182376Y86176D01*
X182356Y86199D01*
X182343Y86227D01*
X182273Y86302D01*
X182208Y86382D01*
X182182Y86399D01*
X182161Y86421D01*
X182072Y86472D01*
X181987Y86529D01*
X181963Y86535D01*
X181931Y86553D01*
X181671Y86611D01*
X181633Y86608D01*
X181610Y86613D01*
X176103Y86613D01*
X176083Y86610D01*
X176062Y86612D01*
X175951Y86590D01*
X175840Y86573D01*
X175822Y86564D01*
X175801Y86560D01*
X175762Y86536D01*
X175601Y86458D01*
X175519Y86381D01*
X175475Y86353D01*
X174211Y85089D01*
X170213Y85089D01*
X167385Y87917D01*
X167385Y90974D01*
X167378Y91025D01*
X167379Y91077D01*
X167358Y91156D01*
X167345Y91237D01*
X167323Y91283D01*
X167309Y91333D01*
X167265Y91402D01*
X167230Y91476D01*
X167195Y91514D01*
X167167Y91557D01*
X167104Y91611D01*
X167048Y91671D01*
X167004Y91696D01*
X166964Y91730D01*
X166889Y91762D01*
X166818Y91802D01*
X166767Y91814D01*
X166720Y91834D01*
X166638Y91842D01*
X166558Y91860D01*
X166507Y91856D01*
X166455Y91861D01*
X166375Y91845D01*
X166293Y91839D01*
X166245Y91819D01*
X166195Y91809D01*
X166151Y91782D01*
X166046Y91740D01*
X165907Y91627D01*
X165869Y91602D01*
X110064Y35797D01*
X53786Y35797D01*
X53725Y35788D01*
X53663Y35789D01*
X53594Y35768D01*
X53523Y35757D01*
X53467Y35730D01*
X53408Y35713D01*
X53348Y35673D01*
X53284Y35642D01*
X53238Y35599D01*
X53187Y35565D01*
X53159Y35526D01*
X53089Y35460D01*
X52983Y35274D01*
X52965Y35249D01*
X52206Y33416D01*
X50025Y31235D01*
X49994Y31194D01*
X49957Y31158D01*
X49916Y31087D01*
X49867Y31021D01*
X49850Y30972D01*
X49825Y30928D01*
X49807Y30848D01*
X49780Y30770D01*
X49778Y30718D01*
X49767Y30668D01*
X49773Y30586D01*
X49771Y30504D01*
X49784Y30455D01*
X49788Y30403D01*
X49819Y30327D01*
X49841Y30248D01*
X49868Y30204D01*
X49887Y30156D01*
X49939Y30093D01*
X49983Y30024D01*
X50022Y29990D01*
X50055Y29950D01*
X50123Y29905D01*
X50186Y29852D01*
X50233Y29831D01*
X50276Y29803D01*
X50327Y29791D01*
X50430Y29747D01*
X50609Y29729D01*
X50653Y29719D01*
X122964Y29719D01*
X122985Y29722D01*
X123006Y29720D01*
X123116Y29742D01*
X123227Y29759D01*
X123246Y29768D01*
X123266Y29772D01*
X123305Y29796D01*
X123466Y29874D01*
X123549Y29951D01*
X123592Y29979D01*
X128630Y35017D01*
X128643Y35034D01*
X128659Y35047D01*
X128721Y35141D01*
X128788Y35231D01*
X128795Y35251D01*
X128806Y35268D01*
X128816Y35313D01*
X128875Y35482D01*
X128879Y35595D01*
X128890Y35645D01*
X128890Y41361D01*
X130583Y43054D01*
X139645Y43054D01*
X140526Y42173D01*
X140543Y42160D01*
X140556Y42144D01*
X140649Y42082D01*
X140740Y42015D01*
X140759Y42008D01*
X140777Y41997D01*
X140821Y41987D01*
X140991Y41928D01*
X141103Y41924D01*
X141154Y41913D01*
X146052Y41913D01*
X146073Y41916D01*
X146094Y41914D01*
X146204Y41936D01*
X146315Y41953D01*
X146334Y41962D01*
X146355Y41966D01*
X146393Y41990D01*
X146554Y42068D01*
X146637Y42145D01*
X146680Y42173D01*
X146896Y42389D01*
X160370Y42389D01*
X160586Y42173D01*
X160602Y42161D01*
X160616Y42144D01*
X160710Y42082D01*
X160800Y42015D01*
X160819Y42008D01*
X160837Y41997D01*
X160881Y41987D01*
X161051Y41928D01*
X161163Y41924D01*
X161214Y41913D01*
X161894Y41913D01*
X168149Y35658D01*
X168149Y20984D01*
X163472Y16307D01*
X161214Y16307D01*
X161193Y16304D01*
X161172Y16306D01*
X161062Y16284D01*
X160951Y16267D01*
X160932Y16258D01*
X160911Y16254D01*
X160873Y16230D01*
X160712Y16152D01*
X160629Y16075D01*
X160586Y16047D01*
X160370Y15831D01*
X146896Y15831D01*
X145854Y16873D01*
X145854Y22347D01*
X146847Y23339D01*
X146898Y23408D01*
X146955Y23471D01*
X146976Y23514D01*
X147004Y23553D01*
X147033Y23634D01*
X147069Y23711D01*
X147076Y23759D01*
X147092Y23804D01*
X147095Y23890D01*
X147107Y23975D01*
X147099Y24022D01*
X147101Y24070D01*
X147078Y24153D01*
X147065Y24237D01*
X147044Y24280D01*
X147031Y24326D01*
X146985Y24399D01*
X146947Y24475D01*
X146921Y24499D01*
X146888Y24551D01*
X146686Y24723D01*
X146671Y24729D01*
X146663Y24736D01*
X146073Y25077D01*
X145600Y25550D01*
X145265Y26129D01*
X145092Y26775D01*
X145092Y28111D01*
X153522Y28111D01*
X153623Y28126D01*
X153726Y28134D01*
X153754Y28146D01*
X153785Y28150D01*
X153877Y28195D01*
X153972Y28233D01*
X153996Y28253D01*
X154024Y28266D01*
X154099Y28336D01*
X154179Y28401D01*
X154196Y28427D01*
X154218Y28448D01*
X154269Y28537D01*
X154326Y28622D01*
X154331Y28646D01*
X154350Y28678D01*
X154408Y28938D01*
X154405Y28976D01*
X154410Y28999D01*
X154410Y29221D01*
X154395Y29323D01*
X154386Y29425D01*
X154375Y29453D01*
X154370Y29484D01*
X154326Y29576D01*
X154287Y29672D01*
X154268Y29695D01*
X154255Y29723D01*
X154184Y29798D01*
X154120Y29878D01*
X154094Y29895D01*
X154073Y29917D01*
X153984Y29968D01*
X153899Y30025D01*
X153875Y30031D01*
X153842Y30049D01*
X153583Y30107D01*
X153545Y30104D01*
X153522Y30109D01*
X145092Y30109D01*
X145092Y31445D01*
X145265Y32091D01*
X145600Y32670D01*
X146073Y33143D01*
X146663Y33484D01*
X146730Y33537D01*
X146802Y33583D01*
X146833Y33620D01*
X146870Y33649D01*
X146919Y33720D01*
X146974Y33786D01*
X146993Y33830D01*
X147020Y33869D01*
X147045Y33951D01*
X147078Y34030D01*
X147083Y34078D01*
X147097Y34124D01*
X147097Y34209D01*
X147106Y34294D01*
X147096Y34342D01*
X147096Y34389D01*
X147071Y34471D01*
X147054Y34555D01*
X147035Y34585D01*
X147017Y34643D01*
X146865Y34862D01*
X146853Y34872D01*
X146847Y34881D01*
X146680Y35047D01*
X146664Y35060D01*
X146650Y35076D01*
X146557Y35138D01*
X146466Y35205D01*
X146447Y35212D01*
X146429Y35223D01*
X146385Y35233D01*
X146215Y35292D01*
X146103Y35296D01*
X146052Y35307D01*
X142226Y35307D01*
X142124Y35292D01*
X142022Y35284D01*
X141994Y35272D01*
X141963Y35267D01*
X141871Y35223D01*
X141775Y35185D01*
X141752Y35165D01*
X141724Y35152D01*
X141649Y35082D01*
X141569Y35017D01*
X141552Y34991D01*
X141530Y34970D01*
X141479Y34881D01*
X141422Y34796D01*
X141416Y34772D01*
X141398Y34740D01*
X141340Y34480D01*
X141343Y34442D01*
X141338Y34419D01*
X141338Y32299D01*
X139645Y30606D01*
X133929Y30606D01*
X133908Y30603D01*
X133887Y30605D01*
X133777Y30583D01*
X133666Y30566D01*
X133647Y30557D01*
X133627Y30553D01*
X133588Y30529D01*
X133427Y30451D01*
X133344Y30374D01*
X133301Y30346D01*
X133047Y30092D01*
X133016Y30051D01*
X132978Y30015D01*
X132938Y29944D01*
X132889Y29878D01*
X132872Y29829D01*
X132847Y29785D01*
X132829Y29705D01*
X132802Y29627D01*
X132800Y29575D01*
X132789Y29525D01*
X132795Y29443D01*
X132793Y29361D01*
X132806Y29312D01*
X132810Y29260D01*
X132841Y29184D01*
X132862Y29105D01*
X132890Y29061D01*
X132909Y29013D01*
X132961Y28950D01*
X133005Y28881D01*
X133044Y28847D01*
X133077Y28807D01*
X133145Y28762D01*
X133208Y28709D01*
X133255Y28688D01*
X133298Y28660D01*
X133337Y28651D01*
X133337Y23367D01*
X128058Y23367D01*
X128052Y23388D01*
X128008Y23457D01*
X127973Y23531D01*
X127937Y23569D01*
X127910Y23612D01*
X127847Y23665D01*
X127791Y23726D01*
X127747Y23751D01*
X127707Y23785D01*
X127632Y23817D01*
X127561Y23857D01*
X127510Y23869D01*
X127463Y23889D01*
X127381Y23897D01*
X127301Y23915D01*
X127250Y23911D01*
X127198Y23916D01*
X127118Y23900D01*
X127036Y23894D01*
X126988Y23874D01*
X126938Y23864D01*
X126894Y23837D01*
X126789Y23795D01*
X126650Y23681D01*
X126612Y23657D01*
X126068Y23113D01*
X50621Y23113D01*
X50570Y23106D01*
X50518Y23107D01*
X50439Y23086D01*
X50358Y23073D01*
X50312Y23051D01*
X50262Y23037D01*
X50193Y22993D01*
X50119Y22958D01*
X50081Y22923D01*
X50038Y22895D01*
X49984Y22832D01*
X49925Y22776D01*
X49899Y22732D01*
X49866Y22692D01*
X49833Y22617D01*
X49793Y22546D01*
X49781Y22495D01*
X49761Y22448D01*
X49753Y22366D01*
X49735Y22286D01*
X49739Y22235D01*
X49734Y22183D01*
X49750Y22103D01*
X49756Y22021D01*
X49776Y21973D01*
X49786Y21923D01*
X49813Y21879D01*
X49855Y21774D01*
X49968Y21635D01*
X49993Y21597D01*
X52206Y19384D01*
X53734Y15696D01*
X53734Y11704D01*
X52206Y8016D01*
X50914Y6724D01*
X50883Y6683D01*
X50846Y6647D01*
X50805Y6576D01*
X50756Y6510D01*
X50739Y6461D01*
X50714Y6417D01*
X50696Y6337D01*
X50669Y6259D01*
X50667Y6207D01*
X50656Y6157D01*
X50662Y6075D01*
X50660Y5993D01*
X50673Y5944D01*
X50677Y5892D01*
X50708Y5816D01*
X50730Y5737D01*
X50757Y5693D01*
X50776Y5645D01*
X50828Y5582D01*
X50872Y5513D01*
X50911Y5479D01*
X50944Y5439D01*
X51012Y5394D01*
X51075Y5341D01*
X51122Y5320D01*
X51165Y5292D01*
X51216Y5280D01*
X51319Y5236D01*
X51498Y5218D01*
X51542Y5208D01*
X213904Y5208D01*
X214006Y5223D01*
G37*
G36*
X213925Y256595D02*
X213925Y256595D01*
X214007Y256592D01*
X214056Y256605D01*
X214108Y256610D01*
X214184Y256640D01*
X214263Y256662D01*
X214307Y256689D01*
X214355Y256709D01*
X214418Y256760D01*
X214487Y256804D01*
X214521Y256844D01*
X214561Y256876D01*
X214606Y256945D01*
X214659Y257007D01*
X214680Y257054D01*
X214708Y257097D01*
X214720Y257148D01*
X214764Y257251D01*
X214782Y257430D01*
X214792Y257474D01*
X214792Y332060D01*
X214785Y332111D01*
X214786Y332162D01*
X214765Y332242D01*
X214752Y332323D01*
X214730Y332369D01*
X214716Y332419D01*
X214672Y332488D01*
X214637Y332562D01*
X214602Y332600D01*
X214574Y332643D01*
X214511Y332696D01*
X214455Y332756D01*
X214411Y332782D01*
X214371Y332815D01*
X214296Y332848D01*
X214225Y332888D01*
X214174Y332899D01*
X214127Y332920D01*
X214045Y332928D01*
X213965Y332946D01*
X213914Y332942D01*
X213862Y332947D01*
X213782Y332931D01*
X213700Y332924D01*
X213652Y332905D01*
X213602Y332895D01*
X213558Y332867D01*
X213453Y332825D01*
X213314Y332712D01*
X213276Y332688D01*
X210787Y330199D01*
X206789Y330199D01*
X205551Y331437D01*
X205534Y331450D01*
X205521Y331466D01*
X205427Y331528D01*
X205337Y331595D01*
X205317Y331602D01*
X205300Y331613D01*
X205255Y331623D01*
X205086Y331682D01*
X204973Y331686D01*
X204923Y331697D01*
X199331Y331697D01*
X199310Y331694D01*
X199289Y331696D01*
X199179Y331674D01*
X199068Y331657D01*
X199049Y331648D01*
X199028Y331644D01*
X198990Y331620D01*
X198829Y331542D01*
X198746Y331465D01*
X198703Y331437D01*
X197487Y330221D01*
X182513Y330221D01*
X181471Y331263D01*
X181471Y338737D01*
X182106Y339372D01*
X182167Y339455D01*
X182234Y339533D01*
X182246Y339561D01*
X182264Y339586D01*
X182298Y339683D01*
X182338Y339777D01*
X182341Y339808D01*
X182351Y339837D01*
X182355Y339940D01*
X182366Y340042D01*
X182360Y340072D01*
X182361Y340103D01*
X182334Y340202D01*
X182314Y340302D01*
X182301Y340323D01*
X182291Y340359D01*
X182148Y340583D01*
X182119Y340608D01*
X182106Y340628D01*
X181365Y341369D01*
X181349Y341382D01*
X181335Y341398D01*
X181241Y341460D01*
X181151Y341527D01*
X181132Y341534D01*
X181114Y341545D01*
X181069Y341555D01*
X180900Y341614D01*
X180788Y341618D01*
X180737Y341629D01*
X180213Y341629D01*
X180111Y341614D01*
X180009Y341606D01*
X179981Y341594D01*
X179950Y341589D01*
X179858Y341545D01*
X179762Y341507D01*
X179739Y341487D01*
X179711Y341474D01*
X179636Y341404D01*
X179556Y341339D01*
X179539Y341313D01*
X179517Y341292D01*
X179466Y341203D01*
X179409Y341118D01*
X179403Y341094D01*
X179385Y341062D01*
X179327Y340802D01*
X179330Y340764D01*
X179325Y340741D01*
X179325Y269598D01*
X179330Y269564D01*
X179327Y269529D01*
X179350Y269433D01*
X179365Y269335D01*
X179380Y269304D01*
X179387Y269270D01*
X179437Y269185D01*
X179480Y269096D01*
X179504Y269070D01*
X179521Y269041D01*
X179594Y268974D01*
X179662Y268901D01*
X179692Y268884D01*
X179717Y268861D01*
X179807Y268818D01*
X179892Y268769D01*
X179926Y268762D01*
X179957Y268747D01*
X180055Y268733D01*
X180152Y268712D01*
X180186Y268714D01*
X180220Y268709D01*
X180318Y268725D01*
X180417Y268733D01*
X180449Y268746D01*
X180483Y268751D01*
X180572Y268795D01*
X180664Y268832D01*
X180690Y268854D01*
X180721Y268869D01*
X180757Y268908D01*
X180870Y269000D01*
X180946Y269115D01*
X180982Y269154D01*
X181217Y269560D01*
X181690Y270033D01*
X182269Y270368D01*
X182915Y270541D01*
X188501Y270541D01*
X188501Y265611D01*
X188516Y265510D01*
X188524Y265407D01*
X188536Y265379D01*
X188540Y265348D01*
X188585Y265256D01*
X188623Y265161D01*
X188643Y265137D01*
X188656Y265109D01*
X188726Y265034D01*
X188791Y264954D01*
X188817Y264937D01*
X188838Y264915D01*
X188927Y264864D01*
X189012Y264807D01*
X189036Y264802D01*
X189068Y264783D01*
X189328Y264725D01*
X189366Y264728D01*
X189389Y264723D01*
X189723Y264723D01*
X189723Y264389D01*
X189738Y264287D01*
X189747Y264185D01*
X189758Y264157D01*
X189763Y264126D01*
X189807Y264034D01*
X189846Y263938D01*
X189865Y263915D01*
X189878Y263887D01*
X189949Y263812D01*
X190013Y263732D01*
X190039Y263715D01*
X190060Y263693D01*
X190149Y263642D01*
X190234Y263585D01*
X190258Y263579D01*
X190291Y263561D01*
X190550Y263503D01*
X190588Y263506D01*
X190611Y263501D01*
X199291Y263501D01*
X199291Y261665D01*
X199118Y261019D01*
X198783Y260440D01*
X198432Y260089D01*
X198372Y260007D01*
X198305Y259928D01*
X198293Y259900D01*
X198275Y259875D01*
X198241Y259779D01*
X198201Y259684D01*
X198197Y259653D01*
X198187Y259624D01*
X198184Y259522D01*
X198173Y259420D01*
X198179Y259389D01*
X198178Y259359D01*
X198205Y259260D01*
X198225Y259159D01*
X198238Y259139D01*
X198248Y259102D01*
X198391Y258878D01*
X198420Y258853D01*
X198432Y258833D01*
X198703Y258563D01*
X198720Y258550D01*
X198733Y258534D01*
X198826Y258472D01*
X198917Y258405D01*
X198936Y258398D01*
X198954Y258387D01*
X198998Y258377D01*
X199168Y258318D01*
X199280Y258314D01*
X199331Y258303D01*
X204373Y258303D01*
X204393Y258306D01*
X204414Y258304D01*
X204525Y258326D01*
X204636Y258343D01*
X204654Y258352D01*
X204675Y258356D01*
X204714Y258380D01*
X204875Y258458D01*
X204957Y258535D01*
X205001Y258563D01*
X206281Y259843D01*
X210279Y259843D01*
X213276Y256846D01*
X213317Y256815D01*
X213353Y256778D01*
X213424Y256737D01*
X213490Y256688D01*
X213539Y256671D01*
X213583Y256646D01*
X213663Y256628D01*
X213741Y256601D01*
X213793Y256599D01*
X213843Y256588D01*
X213925Y256595D01*
G37*
G36*
X213925Y156519D02*
X213925Y156519D01*
X214007Y156516D01*
X214056Y156529D01*
X214108Y156534D01*
X214184Y156564D01*
X214263Y156586D01*
X214307Y156613D01*
X214355Y156633D01*
X214418Y156684D01*
X214487Y156728D01*
X214521Y156768D01*
X214561Y156800D01*
X214606Y156869D01*
X214659Y156931D01*
X214680Y156978D01*
X214708Y157021D01*
X214720Y157072D01*
X214764Y157175D01*
X214782Y157354D01*
X214792Y157398D01*
X214792Y231476D01*
X214785Y231527D01*
X214786Y231578D01*
X214765Y231658D01*
X214752Y231739D01*
X214730Y231785D01*
X214716Y231835D01*
X214672Y231904D01*
X214637Y231978D01*
X214602Y232016D01*
X214574Y232059D01*
X214511Y232112D01*
X214455Y232172D01*
X214411Y232198D01*
X214371Y232231D01*
X214296Y232264D01*
X214225Y232304D01*
X214174Y232315D01*
X214127Y232336D01*
X214045Y232344D01*
X213965Y232362D01*
X213914Y232358D01*
X213862Y232363D01*
X213782Y232347D01*
X213700Y232340D01*
X213652Y232321D01*
X213602Y232311D01*
X213558Y232283D01*
X213453Y232241D01*
X213314Y232128D01*
X213276Y232104D01*
X211295Y230123D01*
X207297Y230123D01*
X205983Y231437D01*
X205966Y231450D01*
X205953Y231466D01*
X205859Y231528D01*
X205769Y231595D01*
X205749Y231602D01*
X205732Y231613D01*
X205687Y231623D01*
X205518Y231682D01*
X205405Y231686D01*
X205355Y231697D01*
X199331Y231697D01*
X199310Y231694D01*
X199289Y231696D01*
X199179Y231674D01*
X199068Y231657D01*
X199049Y231648D01*
X199028Y231644D01*
X198990Y231620D01*
X198829Y231542D01*
X198746Y231465D01*
X198703Y231437D01*
X197487Y230221D01*
X182513Y230221D01*
X181471Y231263D01*
X181471Y238737D01*
X182106Y239372D01*
X182167Y239455D01*
X182234Y239533D01*
X182246Y239561D01*
X182264Y239586D01*
X182298Y239683D01*
X182338Y239777D01*
X182341Y239808D01*
X182351Y239837D01*
X182355Y239940D01*
X182366Y240042D01*
X182360Y240072D01*
X182361Y240103D01*
X182334Y240202D01*
X182314Y240302D01*
X182301Y240323D01*
X182291Y240359D01*
X182148Y240583D01*
X182119Y240608D01*
X182106Y240628D01*
X181297Y241437D01*
X181281Y241450D01*
X181267Y241466D01*
X181173Y241528D01*
X181083Y241595D01*
X181064Y241602D01*
X181046Y241613D01*
X181001Y241623D01*
X180832Y241682D01*
X180720Y241686D01*
X180669Y241697D01*
X180213Y241697D01*
X180111Y241682D01*
X180009Y241674D01*
X179981Y241662D01*
X179950Y241657D01*
X179858Y241613D01*
X179762Y241575D01*
X179739Y241555D01*
X179711Y241542D01*
X179636Y241472D01*
X179556Y241407D01*
X179539Y241381D01*
X179517Y241360D01*
X179466Y241271D01*
X179409Y241186D01*
X179403Y241162D01*
X179385Y241130D01*
X179327Y240870D01*
X179330Y240832D01*
X179325Y240809D01*
X179325Y169598D01*
X179330Y169563D01*
X179327Y169529D01*
X179350Y169433D01*
X179365Y169335D01*
X179380Y169304D01*
X179387Y169270D01*
X179437Y169185D01*
X179480Y169096D01*
X179504Y169070D01*
X179521Y169040D01*
X179594Y168974D01*
X179662Y168901D01*
X179692Y168884D01*
X179717Y168861D01*
X179807Y168818D01*
X179892Y168769D01*
X179926Y168762D01*
X179957Y168747D01*
X180055Y168733D01*
X180152Y168711D01*
X180186Y168714D01*
X180220Y168709D01*
X180318Y168725D01*
X180417Y168733D01*
X180449Y168746D01*
X180483Y168751D01*
X180572Y168795D01*
X180664Y168832D01*
X180690Y168854D01*
X180721Y168869D01*
X180757Y168908D01*
X180870Y169000D01*
X180946Y169115D01*
X180982Y169154D01*
X181217Y169560D01*
X181690Y170033D01*
X182269Y170368D01*
X182915Y170541D01*
X188501Y170541D01*
X188501Y165611D01*
X188516Y165510D01*
X188524Y165407D01*
X188536Y165379D01*
X188540Y165348D01*
X188585Y165256D01*
X188623Y165161D01*
X188643Y165137D01*
X188656Y165109D01*
X188726Y165034D01*
X188791Y164954D01*
X188817Y164937D01*
X188838Y164915D01*
X188927Y164864D01*
X189012Y164807D01*
X189036Y164802D01*
X189068Y164783D01*
X189328Y164725D01*
X189366Y164728D01*
X189389Y164723D01*
X189723Y164723D01*
X189723Y164389D01*
X189738Y164287D01*
X189747Y164185D01*
X189758Y164157D01*
X189763Y164126D01*
X189807Y164034D01*
X189846Y163938D01*
X189865Y163915D01*
X189878Y163887D01*
X189949Y163812D01*
X190013Y163732D01*
X190039Y163715D01*
X190060Y163693D01*
X190149Y163642D01*
X190234Y163585D01*
X190258Y163579D01*
X190291Y163561D01*
X190550Y163503D01*
X190588Y163506D01*
X190611Y163501D01*
X199291Y163501D01*
X199291Y161665D01*
X199118Y161019D01*
X198783Y160440D01*
X198432Y160089D01*
X198372Y160007D01*
X198305Y159928D01*
X198293Y159900D01*
X198275Y159875D01*
X198241Y159779D01*
X198201Y159684D01*
X198197Y159653D01*
X198187Y159624D01*
X198184Y159522D01*
X198173Y159420D01*
X198179Y159389D01*
X198178Y159359D01*
X198205Y159260D01*
X198225Y159159D01*
X198238Y159139D01*
X198248Y159102D01*
X198391Y158878D01*
X198420Y158853D01*
X198432Y158833D01*
X198703Y158563D01*
X198720Y158550D01*
X198733Y158534D01*
X198826Y158472D01*
X198917Y158405D01*
X198936Y158398D01*
X198954Y158387D01*
X198998Y158377D01*
X199168Y158318D01*
X199280Y158314D01*
X199331Y158303D01*
X204449Y158303D01*
X204469Y158306D01*
X204490Y158304D01*
X204601Y158326D01*
X204712Y158343D01*
X204730Y158352D01*
X204751Y158356D01*
X204790Y158380D01*
X204951Y158458D01*
X205033Y158535D01*
X205077Y158563D01*
X206281Y159767D01*
X210279Y159767D01*
X213276Y156770D01*
X213317Y156739D01*
X213353Y156702D01*
X213424Y156661D01*
X213490Y156612D01*
X213539Y156595D01*
X213583Y156570D01*
X213663Y156552D01*
X213741Y156525D01*
X213793Y156523D01*
X213843Y156512D01*
X213925Y156519D01*
G37*
G36*
X213925Y356925D02*
X213925Y356925D01*
X214007Y356922D01*
X214056Y356935D01*
X214108Y356940D01*
X214184Y356970D01*
X214263Y356992D01*
X214307Y357019D01*
X214355Y357039D01*
X214418Y357090D01*
X214487Y357134D01*
X214521Y357174D01*
X214561Y357206D01*
X214606Y357275D01*
X214659Y357337D01*
X214680Y357384D01*
X214708Y357427D01*
X214720Y357478D01*
X214764Y357581D01*
X214780Y357736D01*
X214790Y357782D01*
X214789Y357791D01*
X214792Y357804D01*
X214792Y430866D01*
X214785Y430917D01*
X214786Y430968D01*
X214765Y431048D01*
X214752Y431129D01*
X214730Y431175D01*
X214716Y431225D01*
X214672Y431294D01*
X214637Y431368D01*
X214602Y431406D01*
X214574Y431449D01*
X214511Y431502D01*
X214455Y431562D01*
X214411Y431588D01*
X214371Y431621D01*
X214296Y431654D01*
X214225Y431694D01*
X214174Y431705D01*
X214127Y431726D01*
X214045Y431734D01*
X213965Y431752D01*
X213914Y431748D01*
X213862Y431753D01*
X213782Y431737D01*
X213700Y431730D01*
X213652Y431711D01*
X213602Y431701D01*
X213558Y431673D01*
X213453Y431631D01*
X213314Y431518D01*
X213276Y431494D01*
X211803Y430021D01*
X207805Y430021D01*
X206389Y431437D01*
X206372Y431450D01*
X206359Y431466D01*
X206265Y431528D01*
X206175Y431595D01*
X206155Y431602D01*
X206138Y431613D01*
X206093Y431623D01*
X205924Y431682D01*
X205811Y431686D01*
X205761Y431697D01*
X199331Y431697D01*
X199310Y431694D01*
X199289Y431696D01*
X199179Y431674D01*
X199068Y431657D01*
X199049Y431648D01*
X199028Y431644D01*
X198990Y431620D01*
X198829Y431542D01*
X198746Y431465D01*
X198703Y431437D01*
X197487Y430221D01*
X182513Y430221D01*
X181471Y431263D01*
X181471Y438737D01*
X182106Y439372D01*
X182167Y439455D01*
X182234Y439533D01*
X182246Y439561D01*
X182264Y439586D01*
X182298Y439683D01*
X182338Y439777D01*
X182341Y439808D01*
X182351Y439837D01*
X182355Y439940D01*
X182366Y440042D01*
X182360Y440072D01*
X182361Y440103D01*
X182334Y440202D01*
X182314Y440302D01*
X182301Y440323D01*
X182291Y440359D01*
X182148Y440583D01*
X182119Y440608D01*
X182106Y440628D01*
X181297Y441437D01*
X181281Y441450D01*
X181267Y441466D01*
X181173Y441528D01*
X181083Y441595D01*
X181064Y441602D01*
X181046Y441613D01*
X181001Y441623D01*
X180832Y441682D01*
X180720Y441686D01*
X180669Y441697D01*
X180213Y441697D01*
X180111Y441682D01*
X180009Y441674D01*
X179981Y441662D01*
X179950Y441657D01*
X179858Y441613D01*
X179762Y441575D01*
X179739Y441555D01*
X179711Y441542D01*
X179636Y441472D01*
X179556Y441407D01*
X179539Y441381D01*
X179517Y441360D01*
X179466Y441271D01*
X179409Y441186D01*
X179403Y441162D01*
X179385Y441130D01*
X179327Y440870D01*
X179330Y440832D01*
X179325Y440809D01*
X179325Y369598D01*
X179330Y369563D01*
X179327Y369529D01*
X179350Y369433D01*
X179365Y369335D01*
X179380Y369304D01*
X179387Y369270D01*
X179437Y369185D01*
X179480Y369096D01*
X179504Y369070D01*
X179521Y369040D01*
X179594Y368974D01*
X179662Y368901D01*
X179692Y368884D01*
X179717Y368861D01*
X179807Y368818D01*
X179892Y368769D01*
X179926Y368762D01*
X179957Y368747D01*
X180055Y368733D01*
X180152Y368711D01*
X180186Y368714D01*
X180220Y368709D01*
X180318Y368725D01*
X180417Y368733D01*
X180449Y368746D01*
X180483Y368751D01*
X180572Y368795D01*
X180664Y368832D01*
X180690Y368854D01*
X180721Y368869D01*
X180757Y368908D01*
X180870Y369000D01*
X180946Y369115D01*
X180982Y369154D01*
X181217Y369560D01*
X181690Y370033D01*
X182269Y370368D01*
X182915Y370541D01*
X188501Y370541D01*
X188501Y365611D01*
X188516Y365510D01*
X188524Y365407D01*
X188536Y365379D01*
X188540Y365348D01*
X188585Y365256D01*
X188623Y365161D01*
X188643Y365137D01*
X188656Y365109D01*
X188726Y365034D01*
X188791Y364954D01*
X188817Y364937D01*
X188838Y364915D01*
X188927Y364864D01*
X189012Y364807D01*
X189036Y364802D01*
X189068Y364783D01*
X189328Y364725D01*
X189366Y364728D01*
X189389Y364723D01*
X189723Y364723D01*
X189723Y364389D01*
X189738Y364287D01*
X189747Y364185D01*
X189758Y364157D01*
X189763Y364126D01*
X189807Y364034D01*
X189846Y363938D01*
X189865Y363915D01*
X189878Y363887D01*
X189949Y363812D01*
X190013Y363732D01*
X190039Y363715D01*
X190060Y363693D01*
X190149Y363642D01*
X190234Y363585D01*
X190258Y363579D01*
X190291Y363561D01*
X190550Y363503D01*
X190588Y363506D01*
X190611Y363501D01*
X199291Y363501D01*
X199291Y361665D01*
X199118Y361019D01*
X198783Y360440D01*
X198432Y360089D01*
X198371Y360007D01*
X198305Y359928D01*
X198293Y359900D01*
X198275Y359875D01*
X198241Y359778D01*
X198201Y359684D01*
X198197Y359653D01*
X198187Y359624D01*
X198184Y359522D01*
X198173Y359420D01*
X198179Y359389D01*
X198178Y359359D01*
X198205Y359260D01*
X198225Y359159D01*
X198238Y359139D01*
X198248Y359102D01*
X198391Y358878D01*
X198420Y358853D01*
X198432Y358833D01*
X198611Y358655D01*
X198627Y358642D01*
X198641Y358626D01*
X198734Y358564D01*
X198824Y358497D01*
X198844Y358490D01*
X198862Y358479D01*
X198906Y358469D01*
X199076Y358410D01*
X199188Y358406D01*
X199239Y358395D01*
X204643Y358395D01*
X204663Y358398D01*
X204684Y358396D01*
X204795Y358418D01*
X204906Y358435D01*
X204924Y358444D01*
X204945Y358448D01*
X204984Y358472D01*
X205145Y358550D01*
X205227Y358627D01*
X205271Y358655D01*
X206535Y359919D01*
X210533Y359919D01*
X213276Y357176D01*
X213317Y357145D01*
X213353Y357108D01*
X213424Y357067D01*
X213490Y357018D01*
X213539Y357001D01*
X213583Y356976D01*
X213663Y356958D01*
X213741Y356931D01*
X213793Y356929D01*
X213843Y356918D01*
X213925Y356925D01*
G37*
%LPC*%
G36*
X191947Y32384D02*
X191947Y32384D01*
X190254Y34077D01*
X190254Y34419D01*
X190239Y34521D01*
X190231Y34623D01*
X190219Y34651D01*
X190214Y34682D01*
X190170Y34774D01*
X190132Y34870D01*
X190112Y34893D01*
X190099Y34921D01*
X190029Y34996D01*
X189964Y35076D01*
X189938Y35093D01*
X189917Y35115D01*
X189828Y35166D01*
X189743Y35223D01*
X189719Y35229D01*
X189687Y35247D01*
X189427Y35305D01*
X189389Y35302D01*
X189366Y35307D01*
X187216Y35307D01*
X187195Y35304D01*
X187174Y35306D01*
X187064Y35284D01*
X186953Y35267D01*
X186934Y35258D01*
X186913Y35254D01*
X186875Y35230D01*
X186714Y35152D01*
X186631Y35075D01*
X186588Y35047D01*
X186372Y34831D01*
X172898Y34831D01*
X171856Y35873D01*
X171856Y41347D01*
X172898Y42389D01*
X186372Y42389D01*
X186588Y42173D01*
X186604Y42161D01*
X186618Y42144D01*
X186712Y42082D01*
X186802Y42015D01*
X186821Y42008D01*
X186839Y41997D01*
X186883Y41987D01*
X187053Y41928D01*
X187165Y41924D01*
X187216Y41913D01*
X189366Y41913D01*
X189468Y41928D01*
X189570Y41936D01*
X189598Y41948D01*
X189629Y41953D01*
X189721Y41997D01*
X189817Y42035D01*
X189840Y42055D01*
X189868Y42068D01*
X189943Y42138D01*
X190023Y42203D01*
X190040Y42229D01*
X190062Y42250D01*
X190113Y42339D01*
X190170Y42424D01*
X190176Y42448D01*
X190194Y42480D01*
X190252Y42740D01*
X190249Y42778D01*
X190254Y42801D01*
X190254Y43139D01*
X191947Y44832D01*
X192287Y44832D01*
X192389Y44847D01*
X192491Y44855D01*
X192519Y44867D01*
X192550Y44872D01*
X192642Y44916D01*
X192738Y44954D01*
X192761Y44974D01*
X192789Y44987D01*
X192864Y45057D01*
X192944Y45122D01*
X192961Y45148D01*
X192983Y45169D01*
X193034Y45258D01*
X193091Y45343D01*
X193097Y45367D01*
X193115Y45399D01*
X193173Y45659D01*
X193170Y45697D01*
X193175Y45720D01*
X193175Y49452D01*
X193173Y49470D01*
X193175Y49488D01*
X193153Y49601D01*
X193135Y49715D01*
X193128Y49731D01*
X193124Y49749D01*
X193102Y49785D01*
X193020Y49954D01*
X192946Y50033D01*
X192919Y50076D01*
X177676Y65521D01*
X177657Y65535D01*
X177642Y65554D01*
X177551Y65615D01*
X177463Y65680D01*
X177441Y65688D01*
X177421Y65701D01*
X177374Y65712D01*
X177213Y65769D01*
X177095Y65774D01*
X177044Y65785D01*
X175293Y65785D01*
X172465Y68613D01*
X172465Y72611D01*
X175293Y75439D01*
X179291Y75439D01*
X182119Y72611D01*
X182119Y70788D01*
X182121Y70770D01*
X182119Y70752D01*
X182141Y70638D01*
X182159Y70525D01*
X182166Y70509D01*
X182170Y70491D01*
X182192Y70455D01*
X182274Y70286D01*
X182348Y70207D01*
X182375Y70164D01*
X198818Y53503D01*
X198821Y53500D01*
X198822Y53498D01*
X199790Y52531D01*
X199781Y51165D01*
X199781Y51161D01*
X199781Y51159D01*
X199781Y45720D01*
X199796Y45618D01*
X199804Y45516D01*
X199816Y45488D01*
X199821Y45457D01*
X199865Y45365D01*
X199903Y45269D01*
X199923Y45246D01*
X199936Y45218D01*
X200006Y45143D01*
X200071Y45063D01*
X200097Y45046D01*
X200118Y45024D01*
X200207Y44973D01*
X200292Y44916D01*
X200316Y44910D01*
X200348Y44892D01*
X200608Y44834D01*
X200646Y44837D01*
X200669Y44832D01*
X201009Y44832D01*
X202702Y43139D01*
X202702Y34077D01*
X201009Y32384D01*
X191947Y32384D01*
G37*
%LPD*%
%LPC*%
G36*
X41704Y206866D02*
X41704Y206866D01*
X38016Y208394D01*
X35194Y211216D01*
X33666Y214904D01*
X33666Y218896D01*
X35194Y222584D01*
X38016Y225406D01*
X41704Y226934D01*
X45696Y226934D01*
X49384Y225406D01*
X52206Y222584D01*
X53734Y218896D01*
X53734Y214904D01*
X52206Y211216D01*
X49384Y208394D01*
X45696Y206866D01*
X41704Y206866D01*
G37*
%LPD*%
%LPC*%
G36*
X41704Y181466D02*
X41704Y181466D01*
X38016Y182994D01*
X35194Y185816D01*
X33666Y189504D01*
X33666Y193496D01*
X35194Y197184D01*
X38016Y200006D01*
X41704Y201534D01*
X45696Y201534D01*
X49384Y200006D01*
X52206Y197184D01*
X53734Y193496D01*
X53734Y189504D01*
X52206Y185816D01*
X49384Y182994D01*
X45696Y181466D01*
X41704Y181466D01*
G37*
%LPD*%
%LPC*%
G36*
X16304Y308466D02*
X16304Y308466D01*
X12616Y309994D01*
X9794Y312816D01*
X8266Y316504D01*
X8266Y320496D01*
X9794Y324184D01*
X12616Y327006D01*
X16304Y328534D01*
X20296Y328534D01*
X23984Y327006D01*
X26806Y324184D01*
X28334Y320496D01*
X28334Y316504D01*
X26806Y312816D01*
X23984Y309994D01*
X20296Y308466D01*
X16304Y308466D01*
G37*
%LPD*%
%LPC*%
G36*
X41704Y232266D02*
X41704Y232266D01*
X38016Y233794D01*
X35194Y236616D01*
X33666Y240304D01*
X33666Y244296D01*
X35194Y247984D01*
X38016Y250806D01*
X41704Y252334D01*
X45696Y252334D01*
X49384Y250806D01*
X52206Y247984D01*
X53734Y244296D01*
X53734Y240304D01*
X52206Y236616D01*
X49384Y233794D01*
X45696Y232266D01*
X41704Y232266D01*
G37*
%LPD*%
%LPC*%
G36*
X41704Y460866D02*
X41704Y460866D01*
X38016Y462394D01*
X35194Y465216D01*
X33666Y468904D01*
X33666Y472896D01*
X35194Y476584D01*
X38016Y479406D01*
X41704Y480934D01*
X45696Y480934D01*
X49384Y479406D01*
X52206Y476584D01*
X53734Y472896D01*
X53734Y468904D01*
X52206Y465216D01*
X49384Y462394D01*
X45696Y460866D01*
X41704Y460866D01*
G37*
%LPD*%
%LPC*%
G36*
X16304Y460866D02*
X16304Y460866D01*
X12616Y462394D01*
X9794Y465216D01*
X8266Y468904D01*
X8266Y472896D01*
X9794Y476584D01*
X12616Y479406D01*
X16304Y480934D01*
X20296Y480934D01*
X23984Y479406D01*
X26806Y476584D01*
X28334Y472896D01*
X28334Y468904D01*
X26806Y465216D01*
X23984Y462394D01*
X20296Y460866D01*
X16304Y460866D01*
G37*
%LPD*%
%LPC*%
G36*
X41704Y283066D02*
X41704Y283066D01*
X38016Y284594D01*
X35194Y287416D01*
X33666Y291104D01*
X33666Y295096D01*
X35194Y298784D01*
X38016Y301606D01*
X41704Y303134D01*
X45696Y303134D01*
X49384Y301606D01*
X52206Y298784D01*
X53734Y295096D01*
X53734Y291104D01*
X52206Y287416D01*
X49384Y284594D01*
X45696Y283066D01*
X41704Y283066D01*
G37*
%LPD*%
%LPC*%
G36*
X41704Y257666D02*
X41704Y257666D01*
X38016Y259194D01*
X35194Y262016D01*
X33666Y265704D01*
X33666Y269696D01*
X35194Y273384D01*
X38016Y276206D01*
X41704Y277734D01*
X45696Y277734D01*
X49384Y276206D01*
X52206Y273384D01*
X53734Y269696D01*
X53734Y265704D01*
X52206Y262016D01*
X49384Y259194D01*
X45696Y257666D01*
X41704Y257666D01*
G37*
%LPD*%
%LPC*%
G36*
X41704Y79866D02*
X41704Y79866D01*
X38016Y81394D01*
X35194Y84216D01*
X33666Y87904D01*
X33666Y91896D01*
X35194Y95584D01*
X38016Y98406D01*
X41704Y99934D01*
X45696Y99934D01*
X49384Y98406D01*
X52206Y95584D01*
X53734Y91896D01*
X53734Y87904D01*
X52206Y84216D01*
X49384Y81394D01*
X45696Y79866D01*
X41704Y79866D01*
G37*
%LPD*%
%LPC*%
G36*
X16304Y105266D02*
X16304Y105266D01*
X12616Y106794D01*
X9794Y109616D01*
X8266Y113304D01*
X8266Y117296D01*
X9794Y120984D01*
X12616Y123806D01*
X16304Y125334D01*
X20296Y125334D01*
X23984Y123806D01*
X26806Y120984D01*
X28334Y117296D01*
X28334Y113304D01*
X26806Y109616D01*
X23984Y106794D01*
X20296Y105266D01*
X16304Y105266D01*
G37*
%LPD*%
%LPC*%
G36*
X16304Y79866D02*
X16304Y79866D01*
X12616Y81394D01*
X9794Y84216D01*
X8266Y87904D01*
X8266Y91896D01*
X9794Y95584D01*
X12616Y98406D01*
X16304Y99934D01*
X20296Y99934D01*
X23984Y98406D01*
X26806Y95584D01*
X28334Y91896D01*
X28334Y87904D01*
X26806Y84216D01*
X23984Y81394D01*
X20296Y79866D01*
X16304Y79866D01*
G37*
%LPD*%
%LPC*%
G36*
X41704Y435466D02*
X41704Y435466D01*
X38016Y436994D01*
X35194Y439816D01*
X33666Y443504D01*
X33666Y447496D01*
X35194Y451184D01*
X38016Y454006D01*
X41704Y455534D01*
X45696Y455534D01*
X49384Y454006D01*
X52206Y451184D01*
X53734Y447496D01*
X53734Y443504D01*
X52206Y439816D01*
X49384Y436994D01*
X45696Y435466D01*
X41704Y435466D01*
G37*
%LPD*%
%LPC*%
G36*
X16304Y435466D02*
X16304Y435466D01*
X12616Y436994D01*
X9794Y439816D01*
X8266Y443504D01*
X8266Y447496D01*
X9794Y451184D01*
X12616Y454006D01*
X16304Y455534D01*
X20296Y455534D01*
X23984Y454006D01*
X26806Y451184D01*
X28334Y447496D01*
X28334Y443504D01*
X26806Y439816D01*
X23984Y436994D01*
X20296Y435466D01*
X16304Y435466D01*
G37*
%LPD*%
%LPC*%
G36*
X16304Y257666D02*
X16304Y257666D01*
X12616Y259194D01*
X9794Y262016D01*
X8266Y265704D01*
X8266Y269696D01*
X9794Y273384D01*
X12616Y276206D01*
X16304Y277734D01*
X20296Y277734D01*
X23984Y276206D01*
X26806Y273384D01*
X28334Y269696D01*
X28334Y265704D01*
X26806Y262016D01*
X23984Y259194D01*
X20296Y257666D01*
X16304Y257666D01*
G37*
%LPD*%
%LPC*%
G36*
X41704Y410066D02*
X41704Y410066D01*
X38016Y411594D01*
X35194Y414416D01*
X33666Y418104D01*
X33666Y422096D01*
X35194Y425784D01*
X38016Y428606D01*
X41704Y430134D01*
X45696Y430134D01*
X49384Y428606D01*
X52206Y425784D01*
X53734Y422096D01*
X53734Y418104D01*
X52206Y414416D01*
X49384Y411594D01*
X45696Y410066D01*
X41704Y410066D01*
G37*
%LPD*%
%LPC*%
G36*
X41704Y130666D02*
X41704Y130666D01*
X38016Y132194D01*
X35194Y135016D01*
X33666Y138704D01*
X33666Y142696D01*
X35194Y146384D01*
X38016Y149206D01*
X41704Y150734D01*
X45696Y150734D01*
X49384Y149206D01*
X52206Y146384D01*
X53734Y142696D01*
X53734Y138704D01*
X52206Y135016D01*
X49384Y132194D01*
X45696Y130666D01*
X41704Y130666D01*
G37*
%LPD*%
%LPC*%
G36*
X16304Y130666D02*
X16304Y130666D01*
X12616Y132194D01*
X9794Y135016D01*
X8266Y138704D01*
X8266Y142696D01*
X9794Y146384D01*
X12616Y149206D01*
X16304Y150734D01*
X20296Y150734D01*
X23984Y149206D01*
X26806Y146384D01*
X28334Y142696D01*
X28334Y138704D01*
X26806Y135016D01*
X23984Y132194D01*
X20296Y130666D01*
X16304Y130666D01*
G37*
%LPD*%
%LPC*%
G36*
X41704Y156066D02*
X41704Y156066D01*
X38016Y157594D01*
X35194Y160416D01*
X33666Y164104D01*
X33666Y168096D01*
X35194Y171784D01*
X38016Y174606D01*
X41704Y176134D01*
X45696Y176134D01*
X49384Y174606D01*
X52206Y171784D01*
X53734Y168096D01*
X53734Y164104D01*
X52206Y160416D01*
X49384Y157594D01*
X45696Y156066D01*
X41704Y156066D01*
G37*
%LPD*%
%LPC*%
G36*
X41704Y384666D02*
X41704Y384666D01*
X38016Y386194D01*
X35194Y389016D01*
X33666Y392704D01*
X33666Y396696D01*
X35194Y400384D01*
X38016Y403206D01*
X41704Y404734D01*
X45696Y404734D01*
X49384Y403206D01*
X52206Y400384D01*
X53734Y396696D01*
X53734Y392704D01*
X52206Y389016D01*
X49384Y386194D01*
X45696Y384666D01*
X41704Y384666D01*
G37*
%LPD*%
%LPC*%
G36*
X16304Y384666D02*
X16304Y384666D01*
X12616Y386194D01*
X9794Y389016D01*
X8266Y392704D01*
X8266Y396696D01*
X9794Y400384D01*
X12616Y403206D01*
X16304Y404734D01*
X20296Y404734D01*
X23984Y403206D01*
X26806Y400384D01*
X28334Y396696D01*
X28334Y392704D01*
X26806Y389016D01*
X23984Y386194D01*
X20296Y384666D01*
X16304Y384666D01*
G37*
%LPD*%
%LPC*%
G36*
X16304Y283066D02*
X16304Y283066D01*
X12616Y284594D01*
X9794Y287416D01*
X8266Y291104D01*
X8266Y295096D01*
X9794Y298784D01*
X12616Y301606D01*
X16304Y303134D01*
X20296Y303134D01*
X23984Y301606D01*
X26806Y298784D01*
X28334Y295096D01*
X28334Y291104D01*
X26806Y287416D01*
X23984Y284594D01*
X20296Y283066D01*
X16304Y283066D01*
G37*
%LPD*%
%LPC*%
G36*
X41704Y359266D02*
X41704Y359266D01*
X38016Y360794D01*
X35194Y363616D01*
X33666Y367304D01*
X33666Y371296D01*
X35194Y374984D01*
X38016Y377806D01*
X41704Y379334D01*
X45696Y379334D01*
X49384Y377806D01*
X52206Y374984D01*
X53734Y371296D01*
X53734Y367304D01*
X52206Y363616D01*
X49384Y360794D01*
X45696Y359266D01*
X41704Y359266D01*
G37*
%LPD*%
%LPC*%
G36*
X16304Y181466D02*
X16304Y181466D01*
X12616Y182994D01*
X9794Y185816D01*
X8266Y189504D01*
X8266Y193496D01*
X9794Y197184D01*
X12616Y200006D01*
X16304Y201534D01*
X20296Y201534D01*
X23984Y200006D01*
X26806Y197184D01*
X28334Y193496D01*
X28334Y189504D01*
X26806Y185816D01*
X23984Y182994D01*
X20296Y181466D01*
X16304Y181466D01*
G37*
%LPD*%
%LPC*%
G36*
X16304Y206866D02*
X16304Y206866D01*
X12616Y208394D01*
X9794Y211216D01*
X8266Y214904D01*
X8266Y218896D01*
X9794Y222584D01*
X12616Y225406D01*
X16304Y226934D01*
X20296Y226934D01*
X23984Y225406D01*
X26806Y222584D01*
X28334Y218896D01*
X28334Y214904D01*
X26806Y211216D01*
X23984Y208394D01*
X20296Y206866D01*
X16304Y206866D01*
G37*
%LPD*%
%LPC*%
G36*
X41704Y333866D02*
X41704Y333866D01*
X38016Y335394D01*
X35194Y338216D01*
X33666Y341904D01*
X33666Y345896D01*
X35194Y349584D01*
X38016Y352406D01*
X41704Y353934D01*
X45696Y353934D01*
X49384Y352406D01*
X52206Y349584D01*
X53734Y345896D01*
X53734Y341904D01*
X52206Y338216D01*
X49384Y335394D01*
X45696Y333866D01*
X41704Y333866D01*
G37*
%LPD*%
%LPC*%
G36*
X16304Y333866D02*
X16304Y333866D01*
X12616Y335394D01*
X9794Y338216D01*
X8266Y341904D01*
X8266Y345896D01*
X9794Y349584D01*
X12616Y352406D01*
X16304Y353934D01*
X20296Y353934D01*
X23984Y352406D01*
X26806Y349584D01*
X28334Y345896D01*
X28334Y341904D01*
X26806Y338216D01*
X23984Y335394D01*
X20296Y333866D01*
X16304Y333866D01*
G37*
%LPD*%
%LPC*%
G36*
X172898Y15831D02*
X172898Y15831D01*
X171856Y16873D01*
X171856Y22347D01*
X172898Y23389D01*
X186372Y23389D01*
X187414Y22347D01*
X187414Y16873D01*
X186372Y15831D01*
X172898Y15831D01*
G37*
%LPD*%
%LPC*%
G36*
X45477Y485504D02*
X45477Y485504D01*
X45477Y494523D01*
X54496Y494523D01*
X54496Y487710D01*
X54323Y487064D01*
X53988Y486485D01*
X53515Y486012D01*
X52936Y485677D01*
X52290Y485504D01*
X45477Y485504D01*
G37*
%LPD*%
%LPC*%
G36*
X35110Y485504D02*
X35110Y485504D01*
X34464Y485677D01*
X33885Y486012D01*
X33412Y486485D01*
X33077Y487064D01*
X32904Y487710D01*
X32904Y494523D01*
X41923Y494523D01*
X41923Y485504D01*
X35110Y485504D01*
G37*
%LPD*%
%LPC*%
G36*
X155027Y479777D02*
X155027Y479777D01*
X155027Y486541D01*
X163585Y486541D01*
X164231Y486368D01*
X164810Y486033D01*
X165283Y485560D01*
X165618Y484981D01*
X165791Y484335D01*
X165791Y479777D01*
X155027Y479777D01*
G37*
%LPD*%
%LPC*%
G36*
X140709Y479777D02*
X140709Y479777D01*
X140709Y484335D01*
X140882Y484981D01*
X141217Y485560D01*
X141690Y486033D01*
X142269Y486368D01*
X142915Y486541D01*
X151473Y486541D01*
X151473Y479777D01*
X140709Y479777D01*
G37*
%LPD*%
%LPC*%
G36*
X140709Y123777D02*
X140709Y123777D01*
X140709Y128335D01*
X140882Y128981D01*
X141217Y129560D01*
X141690Y130033D01*
X142269Y130368D01*
X142915Y130541D01*
X151473Y130541D01*
X151473Y123777D01*
X140709Y123777D01*
G37*
%LPD*%
%LPC*%
G36*
X140709Y179777D02*
X140709Y179777D01*
X140709Y184335D01*
X140882Y184981D01*
X141217Y185560D01*
X141690Y186033D01*
X142269Y186368D01*
X142915Y186541D01*
X151473Y186541D01*
X151473Y179777D01*
X140709Y179777D01*
G37*
%LPD*%
%LPC*%
G36*
X140709Y223777D02*
X140709Y223777D01*
X140709Y228335D01*
X140882Y228981D01*
X141217Y229560D01*
X141690Y230033D01*
X142269Y230368D01*
X142915Y230541D01*
X151473Y230541D01*
X151473Y223777D01*
X140709Y223777D01*
G37*
%LPD*%
%LPC*%
G36*
X140709Y379777D02*
X140709Y379777D01*
X140709Y384335D01*
X140882Y384981D01*
X141217Y385560D01*
X141690Y386033D01*
X142269Y386368D01*
X142915Y386541D01*
X151473Y386541D01*
X151473Y379777D01*
X140709Y379777D01*
G37*
%LPD*%
%LPC*%
G36*
X140709Y279777D02*
X140709Y279777D01*
X140709Y284335D01*
X140882Y284981D01*
X141217Y285560D01*
X141690Y286033D01*
X142269Y286368D01*
X142915Y286541D01*
X151473Y286541D01*
X151473Y279777D01*
X140709Y279777D01*
G37*
%LPD*%
%LPC*%
G36*
X140709Y323777D02*
X140709Y323777D01*
X140709Y328335D01*
X140882Y328981D01*
X141217Y329560D01*
X141690Y330033D01*
X142269Y330368D01*
X142915Y330541D01*
X151473Y330541D01*
X151473Y323777D01*
X140709Y323777D01*
G37*
%LPD*%
%LPC*%
G36*
X140709Y423777D02*
X140709Y423777D01*
X140709Y428335D01*
X140882Y428981D01*
X141217Y429560D01*
X141690Y430033D01*
X142269Y430368D01*
X142915Y430541D01*
X151473Y430541D01*
X151473Y423777D01*
X140709Y423777D01*
G37*
%LPD*%
%LPC*%
G36*
X155027Y469459D02*
X155027Y469459D01*
X155027Y476223D01*
X165791Y476223D01*
X165791Y471665D01*
X165618Y471019D01*
X165283Y470440D01*
X164810Y469967D01*
X164231Y469632D01*
X163585Y469459D01*
X155027Y469459D01*
G37*
%LPD*%
%LPC*%
G36*
X142915Y113459D02*
X142915Y113459D01*
X142269Y113632D01*
X141690Y113967D01*
X141217Y114440D01*
X140882Y115019D01*
X140709Y115665D01*
X140709Y120223D01*
X151473Y120223D01*
X151473Y113459D01*
X142915Y113459D01*
G37*
%LPD*%
%LPC*%
G36*
X142915Y469459D02*
X142915Y469459D01*
X142269Y469632D01*
X141690Y469967D01*
X141217Y470440D01*
X140882Y471019D01*
X140709Y471665D01*
X140709Y476223D01*
X151473Y476223D01*
X151473Y469459D01*
X142915Y469459D01*
G37*
%LPD*%
%LPC*%
G36*
X142915Y313459D02*
X142915Y313459D01*
X142269Y313632D01*
X141690Y313967D01*
X141217Y314440D01*
X140882Y315019D01*
X140709Y315665D01*
X140709Y320223D01*
X151473Y320223D01*
X151473Y313459D01*
X142915Y313459D01*
G37*
%LPD*%
%LPC*%
G36*
X142915Y413459D02*
X142915Y413459D01*
X142269Y413632D01*
X141690Y413967D01*
X141217Y414440D01*
X140882Y415019D01*
X140709Y415665D01*
X140709Y420223D01*
X151473Y420223D01*
X151473Y413459D01*
X142915Y413459D01*
G37*
%LPD*%
%LPC*%
G36*
X142915Y169459D02*
X142915Y169459D01*
X142269Y169632D01*
X141690Y169967D01*
X141217Y170440D01*
X140882Y171019D01*
X140709Y171665D01*
X140709Y176223D01*
X151473Y176223D01*
X151473Y169459D01*
X142915Y169459D01*
G37*
%LPD*%
%LPC*%
G36*
X142915Y269459D02*
X142915Y269459D01*
X142269Y269632D01*
X141690Y269967D01*
X141217Y270440D01*
X140882Y271019D01*
X140709Y271665D01*
X140709Y276223D01*
X151473Y276223D01*
X151473Y269459D01*
X142915Y269459D01*
G37*
%LPD*%
%LPC*%
G36*
X142915Y213459D02*
X142915Y213459D01*
X142269Y213632D01*
X141690Y213967D01*
X141217Y214440D01*
X140882Y215019D01*
X140709Y215665D01*
X140709Y220223D01*
X151473Y220223D01*
X151473Y213459D01*
X142915Y213459D01*
G37*
%LPD*%
%LPC*%
G36*
X142915Y369459D02*
X142915Y369459D01*
X142269Y369632D01*
X141690Y369967D01*
X141217Y370440D01*
X140882Y371019D01*
X140709Y371665D01*
X140709Y376223D01*
X151473Y376223D01*
X151473Y369459D01*
X142915Y369459D01*
G37*
%LPD*%
%LPC*%
G36*
X20077Y167877D02*
X20077Y167877D01*
X20077Y176749D01*
X20828Y176630D01*
X22444Y176105D01*
X23958Y175333D01*
X25333Y174335D01*
X26535Y173133D01*
X27533Y171758D01*
X28305Y170244D01*
X28830Y168628D01*
X28949Y167877D01*
X20077Y167877D01*
G37*
%LPD*%
%LPC*%
G36*
X45477Y117077D02*
X45477Y117077D01*
X45477Y125949D01*
X46228Y125830D01*
X47844Y125305D01*
X49358Y124533D01*
X50733Y123535D01*
X51935Y122333D01*
X52933Y120958D01*
X53705Y119444D01*
X54230Y117828D01*
X54349Y117077D01*
X45477Y117077D01*
G37*
%LPD*%
%LPC*%
G36*
X20077Y421877D02*
X20077Y421877D01*
X20077Y430749D01*
X20828Y430630D01*
X22444Y430105D01*
X23958Y429333D01*
X25333Y428335D01*
X26535Y427133D01*
X27533Y425758D01*
X28305Y424244D01*
X28830Y422628D01*
X28949Y421877D01*
X20077Y421877D01*
G37*
%LPD*%
%LPC*%
G36*
X20077Y371077D02*
X20077Y371077D01*
X20077Y379949D01*
X20828Y379830D01*
X22444Y379305D01*
X23958Y378533D01*
X25333Y377535D01*
X26535Y376333D01*
X27533Y374958D01*
X28305Y373444D01*
X28830Y371828D01*
X28949Y371077D01*
X20077Y371077D01*
G37*
%LPD*%
%LPC*%
G36*
X45477Y320277D02*
X45477Y320277D01*
X45477Y329149D01*
X46228Y329030D01*
X47844Y328505D01*
X49358Y327733D01*
X50733Y326735D01*
X51935Y325533D01*
X52933Y324158D01*
X53705Y322644D01*
X54230Y321028D01*
X54349Y320277D01*
X45477Y320277D01*
G37*
%LPD*%
%LPC*%
G36*
X20077Y66277D02*
X20077Y66277D01*
X20077Y75149D01*
X20828Y75030D01*
X22444Y74505D01*
X23958Y73733D01*
X25333Y72735D01*
X26535Y71533D01*
X27533Y70158D01*
X28305Y68644D01*
X28830Y67028D01*
X28949Y66277D01*
X20077Y66277D01*
G37*
%LPD*%
%LPC*%
G36*
X20077Y244077D02*
X20077Y244077D01*
X20077Y252949D01*
X20828Y252830D01*
X22444Y252305D01*
X23958Y251533D01*
X25333Y250535D01*
X26535Y249333D01*
X27533Y247958D01*
X28305Y246444D01*
X28830Y244828D01*
X28949Y244077D01*
X20077Y244077D01*
G37*
%LPD*%
%LPC*%
G36*
X20077Y62723D02*
X20077Y62723D01*
X28949Y62723D01*
X28830Y61972D01*
X28305Y60356D01*
X27533Y58842D01*
X26535Y57467D01*
X25333Y56265D01*
X23958Y55267D01*
X22444Y54495D01*
X20828Y53970D01*
X20077Y53851D01*
X20077Y62723D01*
G37*
%LPD*%
%LPC*%
G36*
X33051Y320277D02*
X33051Y320277D01*
X33170Y321028D01*
X33695Y322644D01*
X34467Y324158D01*
X35465Y325533D01*
X36667Y326735D01*
X38042Y327733D01*
X39556Y328505D01*
X41172Y329030D01*
X41923Y329149D01*
X41923Y320277D01*
X33051Y320277D01*
G37*
%LPD*%
%LPC*%
G36*
X20077Y367523D02*
X20077Y367523D01*
X28949Y367523D01*
X28830Y366772D01*
X28305Y365156D01*
X27533Y363642D01*
X26535Y362267D01*
X25333Y361065D01*
X23958Y360067D01*
X22444Y359295D01*
X20828Y358770D01*
X20077Y358651D01*
X20077Y367523D01*
G37*
%LPD*%
%LPC*%
G36*
X33051Y117077D02*
X33051Y117077D01*
X33170Y117828D01*
X33695Y119444D01*
X34467Y120958D01*
X35465Y122333D01*
X36667Y123535D01*
X38042Y124533D01*
X39556Y125305D01*
X41172Y125830D01*
X41923Y125949D01*
X41923Y117077D01*
X33051Y117077D01*
G37*
%LPD*%
%LPC*%
G36*
X7651Y66277D02*
X7651Y66277D01*
X7770Y67028D01*
X8295Y68644D01*
X9067Y70158D01*
X10065Y71533D01*
X11267Y72735D01*
X12642Y73733D01*
X14156Y74505D01*
X15772Y75030D01*
X16523Y75149D01*
X16523Y66277D01*
X7651Y66277D01*
G37*
%LPD*%
%LPC*%
G36*
X45477Y316723D02*
X45477Y316723D01*
X54349Y316723D01*
X54230Y315972D01*
X53705Y314356D01*
X52933Y312842D01*
X51935Y311467D01*
X50733Y310265D01*
X49358Y309267D01*
X47844Y308495D01*
X46228Y307970D01*
X45477Y307851D01*
X45477Y316723D01*
G37*
%LPD*%
%LPC*%
G36*
X7651Y244077D02*
X7651Y244077D01*
X7770Y244828D01*
X8295Y246444D01*
X9067Y247958D01*
X10065Y249333D01*
X11267Y250535D01*
X12642Y251533D01*
X14156Y252305D01*
X15772Y252830D01*
X16523Y252949D01*
X16523Y244077D01*
X7651Y244077D01*
G37*
%LPD*%
%LPC*%
G36*
X7651Y167877D02*
X7651Y167877D01*
X7770Y168628D01*
X8295Y170244D01*
X9067Y171758D01*
X10065Y173133D01*
X11267Y174335D01*
X12642Y175333D01*
X14156Y176105D01*
X15772Y176630D01*
X16523Y176749D01*
X16523Y167877D01*
X7651Y167877D01*
G37*
%LPD*%
%LPC*%
G36*
X7651Y371077D02*
X7651Y371077D01*
X7770Y371828D01*
X8295Y373444D01*
X9067Y374958D01*
X10065Y376333D01*
X11267Y377535D01*
X12642Y378533D01*
X14156Y379305D01*
X15772Y379830D01*
X16523Y379949D01*
X16523Y371077D01*
X7651Y371077D01*
G37*
%LPD*%
%LPC*%
G36*
X20077Y240523D02*
X20077Y240523D01*
X28949Y240523D01*
X28830Y239772D01*
X28305Y238156D01*
X27533Y236642D01*
X26535Y235267D01*
X25333Y234065D01*
X23958Y233067D01*
X22444Y232295D01*
X20828Y231770D01*
X20077Y231651D01*
X20077Y240523D01*
G37*
%LPD*%
%LPC*%
G36*
X20077Y164323D02*
X20077Y164323D01*
X28949Y164323D01*
X28830Y163572D01*
X28305Y161956D01*
X27533Y160442D01*
X26535Y159067D01*
X25333Y157865D01*
X23958Y156867D01*
X22444Y156095D01*
X20828Y155570D01*
X20077Y155451D01*
X20077Y164323D01*
G37*
%LPD*%
%LPC*%
G36*
X20077Y418323D02*
X20077Y418323D01*
X28949Y418323D01*
X28830Y417572D01*
X28305Y415956D01*
X27533Y414442D01*
X26535Y413067D01*
X25333Y411865D01*
X23958Y410867D01*
X22444Y410095D01*
X20828Y409570D01*
X20077Y409451D01*
X20077Y418323D01*
G37*
%LPD*%
%LPC*%
G36*
X45477Y113523D02*
X45477Y113523D01*
X54349Y113523D01*
X54230Y112772D01*
X53705Y111156D01*
X52933Y109642D01*
X51935Y108267D01*
X50733Y107065D01*
X49358Y106067D01*
X47844Y105295D01*
X46228Y104770D01*
X45477Y104651D01*
X45477Y113523D01*
G37*
%LPD*%
%LPC*%
G36*
X7651Y421877D02*
X7651Y421877D01*
X7770Y422628D01*
X8295Y424244D01*
X9067Y425758D01*
X10065Y427133D01*
X11267Y428335D01*
X12642Y429333D01*
X14156Y430105D01*
X15772Y430630D01*
X16523Y430749D01*
X16523Y421877D01*
X7651Y421877D01*
G37*
%LPD*%
%LPC*%
G36*
X15772Y53970D02*
X15772Y53970D01*
X14156Y54495D01*
X12642Y55267D01*
X11267Y56265D01*
X10065Y57467D01*
X9067Y58842D01*
X8295Y60356D01*
X7770Y61972D01*
X7651Y62723D01*
X16523Y62723D01*
X16523Y53851D01*
X15772Y53970D01*
G37*
%LPD*%
%LPC*%
G36*
X15772Y358770D02*
X15772Y358770D01*
X14156Y359295D01*
X12642Y360067D01*
X11267Y361065D01*
X10065Y362267D01*
X9067Y363642D01*
X8295Y365156D01*
X7770Y366772D01*
X7651Y367523D01*
X16523Y367523D01*
X16523Y358651D01*
X15772Y358770D01*
G37*
%LPD*%
%LPC*%
G36*
X15772Y409570D02*
X15772Y409570D01*
X14156Y410095D01*
X12642Y410867D01*
X11267Y411865D01*
X10065Y413067D01*
X9067Y414442D01*
X8295Y415956D01*
X7770Y417572D01*
X7651Y418323D01*
X16523Y418323D01*
X16523Y409451D01*
X15772Y409570D01*
G37*
%LPD*%
%LPC*%
G36*
X41172Y307970D02*
X41172Y307970D01*
X39556Y308495D01*
X38042Y309267D01*
X36667Y310265D01*
X35465Y311467D01*
X34467Y312842D01*
X33695Y314356D01*
X33170Y315972D01*
X33051Y316723D01*
X41923Y316723D01*
X41923Y307851D01*
X41172Y307970D01*
G37*
%LPD*%
%LPC*%
G36*
X15772Y155570D02*
X15772Y155570D01*
X14156Y156095D01*
X12642Y156867D01*
X11267Y157865D01*
X10065Y159067D01*
X9067Y160442D01*
X8295Y161956D01*
X7770Y163572D01*
X7651Y164323D01*
X16523Y164323D01*
X16523Y155451D01*
X15772Y155570D01*
G37*
%LPD*%
%LPC*%
G36*
X41172Y104770D02*
X41172Y104770D01*
X39556Y105295D01*
X38042Y106067D01*
X36667Y107065D01*
X35465Y108267D01*
X34467Y109642D01*
X33695Y111156D01*
X33170Y112772D01*
X33051Y113523D01*
X41923Y113523D01*
X41923Y104651D01*
X41172Y104770D01*
G37*
%LPD*%
%LPC*%
G36*
X15772Y231770D02*
X15772Y231770D01*
X14156Y232295D01*
X12642Y233067D01*
X11267Y234065D01*
X10065Y235267D01*
X9067Y236642D01*
X8295Y238156D01*
X7770Y239772D01*
X7651Y240523D01*
X16523Y240523D01*
X16523Y231651D01*
X15772Y231770D01*
G37*
%LPD*%
%LPC*%
G36*
X191499Y366499D02*
X191499Y366499D01*
X191499Y370541D01*
X197085Y370541D01*
X197731Y370368D01*
X198310Y370033D01*
X198783Y369560D01*
X199118Y368981D01*
X199291Y368335D01*
X199291Y366499D01*
X191499Y366499D01*
G37*
%LPD*%
%LPC*%
G36*
X191499Y266499D02*
X191499Y266499D01*
X191499Y270541D01*
X197085Y270541D01*
X197731Y270368D01*
X198310Y270033D01*
X198783Y269560D01*
X199118Y268981D01*
X199291Y268335D01*
X199291Y266499D01*
X191499Y266499D01*
G37*
%LPD*%
%LPC*%
G36*
X191499Y166499D02*
X191499Y166499D01*
X191499Y170541D01*
X197085Y170541D01*
X197731Y170368D01*
X198310Y170033D01*
X198783Y169560D01*
X199118Y168981D01*
X199291Y168335D01*
X199291Y166499D01*
X191499Y166499D01*
G37*
%LPD*%
%LPC*%
G36*
X191499Y466499D02*
X191499Y466499D01*
X191499Y470541D01*
X197085Y470541D01*
X197731Y470368D01*
X198310Y470033D01*
X198783Y469560D01*
X199118Y468981D01*
X199291Y468335D01*
X199291Y466499D01*
X191499Y466499D01*
G37*
%LPD*%
%LPC*%
G36*
X180709Y466499D02*
X180709Y466499D01*
X180709Y468335D01*
X180882Y468981D01*
X181217Y469560D01*
X181690Y470033D01*
X182269Y470368D01*
X182915Y470541D01*
X188501Y470541D01*
X188501Y466499D01*
X180709Y466499D01*
G37*
%LPD*%
%LPC*%
G36*
X198255Y25145D02*
X198255Y25145D01*
X198255Y30354D01*
X200293Y30354D01*
X201221Y30105D01*
X202054Y29624D01*
X202734Y28944D01*
X203215Y28111D01*
X203464Y27183D01*
X203464Y25145D01*
X198255Y25145D01*
G37*
%LPD*%
%LPC*%
G36*
X136891Y23367D02*
X136891Y23367D01*
X136891Y28576D01*
X138929Y28576D01*
X139857Y28327D01*
X140690Y27846D01*
X141370Y27166D01*
X141851Y26333D01*
X142100Y25405D01*
X142100Y23367D01*
X136891Y23367D01*
G37*
%LPD*%
%LPC*%
G36*
X189492Y25145D02*
X189492Y25145D01*
X189492Y27183D01*
X189741Y28111D01*
X190222Y28944D01*
X190902Y29624D01*
X191735Y30105D01*
X192663Y30354D01*
X194701Y30354D01*
X194701Y25145D01*
X189492Y25145D01*
G37*
%LPD*%
%LPC*%
G36*
X198255Y16382D02*
X198255Y16382D01*
X198255Y21591D01*
X203464Y21591D01*
X203464Y19553D01*
X203215Y18625D01*
X202734Y17792D01*
X202054Y17112D01*
X201221Y16631D01*
X200293Y16382D01*
X198255Y16382D01*
G37*
%LPD*%
%LPC*%
G36*
X136891Y14604D02*
X136891Y14604D01*
X136891Y19813D01*
X142100Y19813D01*
X142100Y17775D01*
X141851Y16847D01*
X141370Y16014D01*
X140690Y15334D01*
X139857Y14853D01*
X138929Y14604D01*
X136891Y14604D01*
G37*
%LPD*%
%LPC*%
G36*
X131299Y14604D02*
X131299Y14604D01*
X130371Y14853D01*
X129538Y15334D01*
X128858Y16014D01*
X128377Y16847D01*
X128128Y17775D01*
X128128Y19813D01*
X133337Y19813D01*
X133337Y14604D01*
X131299Y14604D01*
G37*
%LPD*%
%LPC*%
G36*
X192663Y16382D02*
X192663Y16382D01*
X191735Y16631D01*
X190902Y17112D01*
X190222Y17792D01*
X189741Y18625D01*
X189492Y19553D01*
X189492Y21591D01*
X194701Y21591D01*
X194701Y16382D01*
X192663Y16382D01*
G37*
%LPD*%
%LPC*%
G36*
X18299Y242299D02*
X18299Y242299D01*
X18299Y242301D01*
X18301Y242301D01*
X18301Y242299D01*
X18299Y242299D01*
G37*
%LPD*%
%LPC*%
G36*
X18299Y166099D02*
X18299Y166099D01*
X18299Y166101D01*
X18301Y166101D01*
X18301Y166099D01*
X18299Y166099D01*
G37*
%LPD*%
%LPC*%
G36*
X18299Y369299D02*
X18299Y369299D01*
X18299Y369301D01*
X18301Y369301D01*
X18301Y369299D01*
X18299Y369299D01*
G37*
%LPD*%
%LPC*%
G36*
X43699Y115299D02*
X43699Y115299D01*
X43699Y115301D01*
X43701Y115301D01*
X43701Y115299D01*
X43699Y115299D01*
G37*
%LPD*%
%LPC*%
G36*
X18299Y420099D02*
X18299Y420099D01*
X18299Y420101D01*
X18301Y420101D01*
X18301Y420099D01*
X18299Y420099D01*
G37*
%LPD*%
%LPC*%
G36*
X43699Y318499D02*
X43699Y318499D01*
X43699Y318501D01*
X43701Y318501D01*
X43701Y318499D01*
X43699Y318499D01*
G37*
%LPD*%
%LPC*%
G36*
X18299Y64499D02*
X18299Y64499D01*
X18299Y64501D01*
X18301Y64501D01*
X18301Y64499D01*
X18299Y64499D01*
G37*
%LPD*%
%LPC*%
G36*
X153249Y477999D02*
X153249Y477999D01*
X153249Y478001D01*
X153251Y478001D01*
X153251Y477999D01*
X153249Y477999D01*
G37*
%LPD*%
%LPC*%
G36*
X135113Y21589D02*
X135113Y21589D01*
X135113Y21591D01*
X135115Y21591D01*
X135115Y21589D01*
X135113Y21589D01*
G37*
%LPD*%
%LPC*%
G36*
X196477Y23367D02*
X196477Y23367D01*
X196477Y23369D01*
X196479Y23369D01*
X196479Y23367D01*
X196477Y23367D01*
G37*
%LPD*%
D10*
X43700Y496300D03*
D11*
X43700Y470900D03*
X43700Y445500D03*
X43700Y420100D03*
X43700Y394700D03*
X43700Y369300D03*
X43700Y343900D03*
X43700Y318500D03*
X43700Y293100D03*
X43700Y267700D03*
X43700Y242300D03*
X43700Y216900D03*
X43700Y191500D03*
X43700Y166100D03*
X43700Y140700D03*
X43700Y115300D03*
X43700Y89900D03*
X43700Y64500D03*
X43700Y39100D03*
X43700Y13700D03*
X18300Y13700D03*
X18300Y39100D03*
X18300Y64500D03*
X18300Y89900D03*
X18300Y115300D03*
X18300Y140700D03*
X18300Y166100D03*
X18300Y191500D03*
X18300Y216900D03*
X18300Y242300D03*
X18300Y267700D03*
X18300Y293100D03*
X18300Y318500D03*
X18300Y343900D03*
X18300Y369300D03*
X18300Y394700D03*
X18300Y420100D03*
X18300Y445500D03*
X18300Y470900D03*
X18300Y496300D03*
D12*
X190000Y365000D03*
X190000Y355000D03*
X190000Y345000D03*
X190000Y335000D03*
D13*
X153250Y322000D03*
X153250Y378000D03*
D12*
X190000Y465000D03*
X190000Y455000D03*
X190000Y445000D03*
X190000Y435000D03*
D13*
X153250Y422000D03*
X153250Y478000D03*
D12*
X190000Y165000D03*
X190000Y155000D03*
X190000Y145000D03*
X190000Y135000D03*
D13*
X153250Y122000D03*
X153250Y178000D03*
D12*
X190000Y265000D03*
X190000Y255000D03*
X190000Y245000D03*
X190000Y235000D03*
D13*
X153250Y222000D03*
X153250Y278000D03*
D14*
X153633Y38610D03*
X153633Y29110D03*
X153633Y19610D03*
X179635Y19610D03*
X179635Y38610D03*
D15*
X138448Y24924D02*
X138448Y18256D01*
X131780Y18256D01*
X131780Y24924D01*
X138448Y24924D01*
X138448Y20368D02*
X131780Y20368D01*
X131780Y22480D02*
X138448Y22480D01*
X138448Y24592D02*
X131780Y24592D01*
X138448Y33496D02*
X138448Y40164D01*
X138448Y33496D02*
X131780Y33496D01*
X131780Y40164D01*
X138448Y40164D01*
X138448Y35608D02*
X131780Y35608D01*
X131780Y37720D02*
X138448Y37720D01*
X138448Y39832D02*
X131780Y39832D01*
X199812Y26702D02*
X199812Y20034D01*
X193144Y20034D01*
X193144Y26702D01*
X199812Y26702D01*
X199812Y22146D02*
X193144Y22146D01*
X193144Y24258D02*
X199812Y24258D01*
X199812Y26370D02*
X193144Y26370D01*
X199812Y35274D02*
X199812Y41942D01*
X199812Y35274D02*
X193144Y35274D01*
X193144Y41942D01*
X199812Y41942D01*
X199812Y37386D02*
X193144Y37386D01*
X193144Y39498D02*
X199812Y39498D01*
X199812Y41610D02*
X193144Y41610D01*
X192056Y86582D02*
X185388Y86582D01*
X185388Y93250D01*
X192056Y93250D01*
X192056Y86582D01*
X192056Y88694D02*
X185388Y88694D01*
X185388Y90806D02*
X192056Y90806D01*
X192056Y92918D02*
X185388Y92918D01*
X200628Y86582D02*
X207296Y86582D01*
X200628Y86582D02*
X200628Y93250D01*
X207296Y93250D01*
X207296Y86582D01*
X207296Y88694D02*
X200628Y88694D01*
X200628Y90806D02*
X207296Y90806D01*
X207296Y92918D02*
X200628Y92918D01*
X192056Y101060D02*
X185388Y101060D01*
X185388Y107728D01*
X192056Y107728D01*
X192056Y101060D01*
X192056Y103172D02*
X185388Y103172D01*
X185388Y105284D02*
X192056Y105284D01*
X192056Y107396D02*
X185388Y107396D01*
X200628Y101060D02*
X207296Y101060D01*
X200628Y101060D02*
X200628Y107728D01*
X207296Y107728D01*
X207296Y101060D01*
X207296Y103172D02*
X200628Y103172D01*
X200628Y105284D02*
X207296Y105284D01*
X207296Y107396D02*
X200628Y107396D01*
D16*
X108696Y39100D02*
X43700Y39100D01*
X108696Y39100D02*
X176022Y106426D01*
X176022Y109220D01*
D17*
X176022Y445008D03*
D16*
X176022Y145034D02*
X176022Y109220D01*
X176022Y145034D02*
X176022Y244856D01*
X176022Y344932D01*
X176022Y445008D01*
X176030Y445000D02*
X190000Y445000D01*
X176030Y445000D02*
X176022Y445008D01*
D17*
X176022Y344932D03*
X176022Y244856D03*
X176022Y145034D03*
D16*
X176056Y145000D02*
X190000Y145000D01*
X176056Y145000D02*
X176022Y145034D01*
X176166Y245000D02*
X190000Y245000D01*
X176166Y245000D02*
X176022Y244856D01*
X189932Y344932D02*
X190000Y345000D01*
X189932Y344932D02*
X176022Y344932D01*
X186690Y106426D02*
X188722Y104394D01*
X186690Y106426D02*
X178562Y106426D01*
X176022Y106426D01*
X178562Y106426D02*
X176022Y108966D01*
X176022Y109220D01*
D17*
X165862Y9906D03*
X175260Y9906D03*
X160274Y191516D03*
X184658Y191008D03*
X160528Y290830D03*
X183134Y290576D03*
X183642Y390906D03*
X160782Y390906D03*
X209042Y121412D03*
D16*
X123428Y64500D02*
X43700Y64500D01*
X123428Y64500D02*
X167894Y108966D01*
X167894Y134874D01*
D17*
X167894Y435102D03*
D16*
X167894Y234950D02*
X167894Y134874D01*
X167894Y234950D02*
X167894Y335026D01*
X167894Y435102D01*
X190000Y435000D02*
X209652Y435000D01*
X209804Y434848D01*
D17*
X209804Y434848D03*
X167894Y335026D03*
X167894Y234950D03*
X167894Y134874D03*
D16*
X190000Y135000D02*
X209168Y135000D01*
X209296Y135128D01*
D17*
X209296Y135128D03*
D16*
X209246Y235000D02*
X190000Y235000D01*
X209246Y235000D02*
X209296Y234950D01*
D17*
X209296Y234950D03*
D16*
X208762Y335000D02*
X190000Y335000D01*
X208762Y335000D02*
X208788Y335026D01*
D17*
X208788Y335026D03*
D16*
X188722Y89916D02*
X172212Y89916D01*
D17*
X172212Y89916D03*
X167894Y108966D03*
D16*
X28843Y24243D02*
X18300Y13700D01*
X28843Y24243D02*
X31016Y26416D01*
X124700Y26416D02*
X135114Y36830D01*
X124700Y26416D02*
X31016Y26416D01*
X28954Y28446D02*
X18300Y39100D01*
X28954Y28446D02*
X30984Y26416D01*
X31016Y26416D01*
X28954Y28446D02*
X28954Y24354D01*
X28843Y24243D01*
X153633Y19610D02*
X162104Y19610D01*
X164846Y22352D01*
X164846Y34290D01*
X160526Y38610D02*
X153633Y38610D01*
X160526Y38610D02*
X164846Y34290D01*
X136894Y38610D02*
X135114Y36830D01*
X136894Y38610D02*
X153633Y38610D01*
X179635Y38610D02*
X196476Y38610D01*
X196478Y38608D01*
X196478Y51172D01*
X177292Y70612D01*
D17*
X177292Y70612D03*
X171958Y454914D03*
D16*
X189914Y454914D01*
X190000Y455000D01*
D17*
X208534Y355092D03*
D16*
X190092Y355092D01*
X190000Y355000D01*
D17*
X208280Y255016D03*
D16*
X208264Y255000D01*
X190000Y255000D01*
D17*
X208280Y154940D03*
D16*
X208220Y155000D01*
X190000Y155000D01*
X203962Y89916D02*
X211745Y89916D01*
D17*
X211745Y89916D03*
D16*
X211745Y104394D02*
X203962Y104394D01*
D17*
X211745Y104394D03*
M02*
