M48
;GenerationSoftware,Autodesk,EAGLE,9.1.1*%
;CreationDate,2018-09-11T09:32:15Z*%
FMAT,2
ICI,OFF
METRIC,TZ,000.000
T2C0.305
T1C0.889
%
G90
M71
T1
X4370Y24230
X4370Y21690
X4370Y19150
X4370Y14070
X4370Y11530
X4370Y8990
X4370Y6450
X4370Y3910
X4370Y16610
X4370Y1370
X1830Y1370
X1830Y3910
X1830Y6450
X1830Y8990
X1830Y11530
X1830Y14070
X1830Y16610
X1830Y19150
X1830Y21690
X1830Y24230
X1830Y26770
X1830Y31850
X1830Y34390
X1830Y36930
X1830Y39470
X1830Y42010
X1830Y44550
X4370Y36930
X1830Y47090
X1830Y49630
X4370Y49630
X4370Y47090
X4370Y44550
X4370Y42010
X4370Y39470
X1830Y29310
X4370Y34390
X4370Y31850
X4370Y29310
X4370Y26770
T2
X17602Y44501
X17602Y34493
X17602Y24486
X17602Y14503
X16586Y991
X17526Y991
X16027Y19152
X18466Y19101
X18313Y29058
X18364Y39091
X16078Y39091
X20904Y12141
X16789Y43510
X20980Y43485
X16789Y33503
X16789Y23495
X16789Y13487
X20930Y13513
X20930Y23495
X20879Y33503
X17221Y8992
X16789Y10897
X17729Y7061
X17196Y45491
X20853Y35509
X20828Y25502
X21175Y8992
X21175Y10439
X20828Y15494
X16053Y29083
M30