G04 EAGLE Gerber RS-274X export*
G75*
%MOMM*%
%FSLAX34Y34*%
%LPD*%
%AMOC8*
5,1,8,0,0,1.08239X$1,22.5*%
G01*
%ADD10R,1.651000X1.651000*%
%ADD11C,1.651000*%
%ADD12R,1.350000X0.600000*%
%ADD13R,2.000000X1.200000*%
%ADD14R,1.270000X0.635000*%
%ADD15C,0.203200*%
%ADD16C,0.609600*%
%ADD17C,0.304800*%

G36*
X10509Y5215D02*
X10509Y5215D01*
X10561Y5214D01*
X10640Y5235D01*
X10721Y5248D01*
X10767Y5270D01*
X10817Y5284D01*
X10886Y5328D01*
X10960Y5363D01*
X10998Y5398D01*
X11041Y5426D01*
X11095Y5489D01*
X11154Y5545D01*
X11180Y5589D01*
X11213Y5629D01*
X11246Y5704D01*
X11286Y5775D01*
X11298Y5826D01*
X11318Y5873D01*
X11326Y5955D01*
X11344Y6035D01*
X11340Y6086D01*
X11345Y6138D01*
X11329Y6218D01*
X11323Y6300D01*
X11303Y6348D01*
X11293Y6398D01*
X11266Y6442D01*
X11224Y6547D01*
X11111Y6686D01*
X11086Y6724D01*
X9794Y8016D01*
X8266Y11704D01*
X8266Y15696D01*
X9794Y19384D01*
X12616Y22206D01*
X16304Y23734D01*
X20296Y23734D01*
X23984Y22206D01*
X26806Y19384D01*
X28334Y15696D01*
X28334Y11704D01*
X26806Y8016D01*
X25514Y6724D01*
X25483Y6683D01*
X25446Y6647D01*
X25405Y6576D01*
X25356Y6510D01*
X25339Y6461D01*
X25314Y6417D01*
X25296Y6337D01*
X25269Y6259D01*
X25267Y6207D01*
X25256Y6157D01*
X25262Y6075D01*
X25260Y5993D01*
X25273Y5944D01*
X25277Y5892D01*
X25308Y5816D01*
X25330Y5737D01*
X25357Y5693D01*
X25376Y5645D01*
X25428Y5582D01*
X25472Y5513D01*
X25511Y5479D01*
X25544Y5439D01*
X25612Y5394D01*
X25675Y5341D01*
X25722Y5320D01*
X25765Y5292D01*
X25816Y5280D01*
X25919Y5236D01*
X26098Y5218D01*
X26142Y5208D01*
X35858Y5208D01*
X35909Y5215D01*
X35961Y5214D01*
X36040Y5235D01*
X36121Y5248D01*
X36167Y5270D01*
X36217Y5284D01*
X36286Y5328D01*
X36360Y5363D01*
X36398Y5398D01*
X36441Y5426D01*
X36495Y5489D01*
X36554Y5545D01*
X36580Y5589D01*
X36613Y5629D01*
X36646Y5704D01*
X36686Y5775D01*
X36698Y5826D01*
X36718Y5873D01*
X36726Y5955D01*
X36744Y6035D01*
X36740Y6086D01*
X36745Y6138D01*
X36729Y6218D01*
X36723Y6300D01*
X36703Y6348D01*
X36693Y6398D01*
X36666Y6442D01*
X36624Y6547D01*
X36511Y6686D01*
X36486Y6724D01*
X35194Y8016D01*
X33666Y11704D01*
X33666Y15696D01*
X35194Y19384D01*
X38016Y22206D01*
X41704Y23734D01*
X45696Y23734D01*
X47528Y22975D01*
X47589Y22960D01*
X47646Y22935D01*
X47717Y22928D01*
X47786Y22911D01*
X47848Y22914D01*
X47910Y22908D01*
X47980Y22922D01*
X48052Y22926D01*
X48110Y22948D01*
X48171Y22960D01*
X48211Y22986D01*
X48301Y23019D01*
X48470Y23150D01*
X48496Y23167D01*
X55873Y30544D01*
X55886Y30561D01*
X55902Y30574D01*
X55964Y30668D01*
X56031Y30758D01*
X56038Y30778D01*
X56049Y30795D01*
X56059Y30840D01*
X56118Y31009D01*
X56122Y31122D01*
X56133Y31172D01*
X56133Y113503D01*
X56124Y113566D01*
X56124Y113630D01*
X56104Y113697D01*
X56093Y113766D01*
X56066Y113823D01*
X56047Y113884D01*
X56008Y113942D01*
X55978Y114005D01*
X55934Y114052D01*
X55898Y114105D01*
X55844Y114148D01*
X55796Y114200D01*
X55741Y114231D01*
X55691Y114271D01*
X55626Y114297D01*
X55566Y114331D01*
X55503Y114345D01*
X55444Y114369D01*
X55374Y114374D01*
X55306Y114389D01*
X55242Y114384D01*
X55179Y114389D01*
X55111Y114373D01*
X55041Y114368D01*
X54982Y114344D01*
X54920Y114330D01*
X54859Y114295D01*
X54794Y114269D01*
X54745Y114228D01*
X54690Y114196D01*
X54642Y114145D01*
X54588Y114101D01*
X54553Y114048D01*
X54509Y114001D01*
X54492Y113957D01*
X54441Y113880D01*
X54414Y113758D01*
X54368Y113642D01*
X54230Y112772D01*
X53705Y111156D01*
X52933Y109642D01*
X51935Y108267D01*
X50733Y107065D01*
X49358Y106067D01*
X47844Y105295D01*
X46228Y104770D01*
X45477Y104651D01*
X45477Y114411D01*
X45462Y114512D01*
X45453Y114615D01*
X45442Y114643D01*
X45437Y114674D01*
X45393Y114766D01*
X45354Y114861D01*
X45335Y114885D01*
X45322Y114913D01*
X45252Y114988D01*
X45187Y115068D01*
X45161Y115085D01*
X45140Y115107D01*
X45051Y115158D01*
X44966Y115215D01*
X44942Y115220D01*
X44910Y115239D01*
X44650Y115297D01*
X44612Y115294D01*
X44589Y115299D01*
X43699Y115299D01*
X43699Y115301D01*
X44589Y115301D01*
X44690Y115316D01*
X44793Y115325D01*
X44821Y115336D01*
X44852Y115341D01*
X44944Y115385D01*
X45039Y115424D01*
X45063Y115443D01*
X45091Y115456D01*
X45166Y115526D01*
X45246Y115591D01*
X45263Y115617D01*
X45285Y115638D01*
X45336Y115727D01*
X45393Y115812D01*
X45399Y115836D01*
X45417Y115869D01*
X45475Y116128D01*
X45472Y116165D01*
X45475Y116178D01*
X45475Y116179D01*
X45477Y116189D01*
X45477Y125949D01*
X46228Y125830D01*
X47844Y125305D01*
X49358Y124533D01*
X50733Y123535D01*
X51935Y122333D01*
X52933Y120958D01*
X53705Y119444D01*
X54230Y117828D01*
X54368Y116958D01*
X54375Y116936D01*
X54376Y116923D01*
X54387Y116894D01*
X54397Y116834D01*
X54427Y116771D01*
X54448Y116705D01*
X54485Y116652D01*
X54512Y116595D01*
X54560Y116544D01*
X54600Y116486D01*
X54650Y116447D01*
X54694Y116400D01*
X54754Y116366D01*
X54809Y116323D01*
X54869Y116300D01*
X54924Y116269D01*
X54993Y116253D01*
X55058Y116229D01*
X55122Y116225D01*
X55184Y116211D01*
X55254Y116216D01*
X55323Y116212D01*
X55385Y116227D01*
X55449Y116232D01*
X55514Y116258D01*
X55582Y116275D01*
X55636Y116308D01*
X55696Y116331D01*
X55750Y116375D01*
X55810Y116411D01*
X55852Y116459D01*
X55902Y116499D01*
X55941Y116557D01*
X55987Y116609D01*
X56014Y116667D01*
X56049Y116720D01*
X56060Y116766D01*
X56098Y116851D01*
X56104Y116946D01*
X56131Y117066D01*
X56130Y117082D01*
X56133Y117097D01*
X56133Y199428D01*
X56130Y199449D01*
X56132Y199470D01*
X56110Y199580D01*
X56093Y199691D01*
X56084Y199710D01*
X56080Y199730D01*
X56056Y199769D01*
X55978Y199930D01*
X55901Y200013D01*
X55873Y200056D01*
X48496Y207433D01*
X48447Y207470D01*
X48403Y207514D01*
X48340Y207548D01*
X48282Y207591D01*
X48224Y207611D01*
X48169Y207640D01*
X48099Y207654D01*
X48031Y207678D01*
X47969Y207680D01*
X47909Y207692D01*
X47861Y207684D01*
X47766Y207687D01*
X47559Y207631D01*
X47528Y207625D01*
X45696Y206866D01*
X41704Y206866D01*
X38016Y208394D01*
X35194Y211216D01*
X33666Y214904D01*
X33666Y218896D01*
X35194Y222584D01*
X38016Y225406D01*
X41704Y226934D01*
X45696Y226934D01*
X49384Y225406D01*
X52206Y222584D01*
X53734Y218896D01*
X53734Y214904D01*
X52975Y213072D01*
X52960Y213011D01*
X52935Y212954D01*
X52928Y212883D01*
X52911Y212814D01*
X52914Y212752D01*
X52908Y212690D01*
X52922Y212620D01*
X52926Y212548D01*
X52948Y212490D01*
X52960Y212429D01*
X52986Y212389D01*
X53019Y212299D01*
X53150Y212130D01*
X53167Y212104D01*
X60544Y204727D01*
X62739Y202532D01*
X62739Y28068D01*
X60544Y25873D01*
X53167Y18496D01*
X53130Y18447D01*
X53086Y18403D01*
X53052Y18340D01*
X53009Y18282D01*
X52989Y18224D01*
X52960Y18169D01*
X52946Y18099D01*
X52922Y18031D01*
X52920Y17969D01*
X52908Y17909D01*
X52916Y17861D01*
X52913Y17766D01*
X52969Y17559D01*
X52975Y17528D01*
X53734Y15696D01*
X53734Y11704D01*
X52206Y8016D01*
X50914Y6724D01*
X50883Y6683D01*
X50846Y6647D01*
X50805Y6576D01*
X50756Y6510D01*
X50739Y6461D01*
X50714Y6417D01*
X50696Y6337D01*
X50669Y6259D01*
X50667Y6207D01*
X50656Y6157D01*
X50662Y6075D01*
X50660Y5993D01*
X50673Y5944D01*
X50677Y5892D01*
X50708Y5816D01*
X50730Y5737D01*
X50757Y5693D01*
X50776Y5645D01*
X50828Y5582D01*
X50872Y5513D01*
X50911Y5479D01*
X50944Y5439D01*
X51012Y5394D01*
X51075Y5341D01*
X51122Y5320D01*
X51165Y5292D01*
X51216Y5280D01*
X51319Y5236D01*
X51498Y5218D01*
X51542Y5208D01*
X213904Y5208D01*
X214006Y5223D01*
X214108Y5231D01*
X214136Y5243D01*
X214167Y5248D01*
X214259Y5292D01*
X214355Y5330D01*
X214378Y5350D01*
X214406Y5363D01*
X214481Y5433D01*
X214561Y5498D01*
X214578Y5524D01*
X214600Y5545D01*
X214651Y5634D01*
X214708Y5719D01*
X214714Y5743D01*
X214732Y5775D01*
X214790Y6035D01*
X214787Y6073D01*
X214792Y6096D01*
X214792Y84201D01*
X214777Y84303D01*
X214769Y84405D01*
X214757Y84433D01*
X214752Y84464D01*
X214708Y84556D01*
X214670Y84652D01*
X214650Y84675D01*
X214637Y84703D01*
X214567Y84778D01*
X214502Y84858D01*
X214476Y84875D01*
X214455Y84897D01*
X214366Y84948D01*
X214281Y85005D01*
X214257Y85011D01*
X214225Y85029D01*
X213965Y85087D01*
X213927Y85084D01*
X213904Y85089D01*
X209746Y85089D01*
X208482Y86353D01*
X208465Y86366D01*
X208452Y86382D01*
X208358Y86444D01*
X208268Y86511D01*
X208248Y86518D01*
X208231Y86529D01*
X208186Y86539D01*
X208017Y86598D01*
X207904Y86602D01*
X207854Y86613D01*
X204343Y86613D01*
X204241Y86598D01*
X204139Y86590D01*
X204111Y86578D01*
X204080Y86573D01*
X203988Y86529D01*
X203892Y86491D01*
X203869Y86471D01*
X203841Y86458D01*
X203766Y86388D01*
X203686Y86323D01*
X203669Y86297D01*
X203647Y86276D01*
X203596Y86187D01*
X203539Y86102D01*
X203533Y86078D01*
X203515Y86046D01*
X203457Y85786D01*
X203460Y85748D01*
X203455Y85725D01*
X203455Y85242D01*
X202413Y84200D01*
X188239Y84200D01*
X187197Y85242D01*
X187197Y88942D01*
X187190Y88993D01*
X187191Y89045D01*
X187170Y89124D01*
X187157Y89205D01*
X187135Y89251D01*
X187121Y89301D01*
X187077Y89370D01*
X187042Y89444D01*
X187007Y89482D01*
X186979Y89525D01*
X186916Y89579D01*
X186860Y89639D01*
X186816Y89664D01*
X186776Y89698D01*
X186701Y89730D01*
X186630Y89770D01*
X186579Y89782D01*
X186532Y89802D01*
X186450Y89810D01*
X186370Y89828D01*
X186319Y89824D01*
X186267Y89829D01*
X186187Y89813D01*
X186105Y89807D01*
X186057Y89787D01*
X186007Y89777D01*
X185963Y89750D01*
X185858Y89708D01*
X185719Y89595D01*
X185681Y89570D01*
X174886Y78775D01*
X174874Y78764D01*
X174808Y78673D01*
X174738Y78587D01*
X174730Y78567D01*
X174717Y78550D01*
X174680Y78444D01*
X174638Y78340D01*
X174636Y78319D01*
X174629Y78299D01*
X174626Y78187D01*
X174616Y78075D01*
X174621Y78054D01*
X174620Y78033D01*
X174650Y77925D01*
X174674Y77816D01*
X174683Y77802D01*
X174690Y77777D01*
X174833Y77552D01*
X174871Y77520D01*
X174888Y77495D01*
X176773Y75686D01*
X176783Y75679D01*
X176790Y75670D01*
X176892Y75603D01*
X176991Y75533D01*
X177002Y75529D01*
X177011Y75523D01*
X177044Y75515D01*
X177243Y75451D01*
X177341Y75449D01*
X177388Y75439D01*
X179291Y75439D01*
X182119Y72611D01*
X182119Y68613D01*
X179291Y65785D01*
X175293Y65785D01*
X172465Y68613D01*
X172465Y70286D01*
X172461Y70316D01*
X172463Y70347D01*
X172441Y70447D01*
X172425Y70549D01*
X172412Y70577D01*
X172406Y70606D01*
X172377Y70649D01*
X172310Y70789D01*
X172221Y70883D01*
X172192Y70928D01*
X169999Y73031D01*
X169989Y73038D01*
X169982Y73047D01*
X169881Y73114D01*
X169827Y73152D01*
X168764Y74215D01*
X168755Y74222D01*
X168751Y74228D01*
X167665Y75270D01*
X167636Y75326D01*
X167568Y75396D01*
X167542Y75437D01*
X126491Y116488D01*
X126491Y452218D01*
X132576Y458303D01*
X140669Y458303D01*
X140690Y458306D01*
X140711Y458304D01*
X140821Y458326D01*
X140932Y458343D01*
X140951Y458352D01*
X140972Y458356D01*
X141010Y458380D01*
X141171Y458458D01*
X141254Y458535D01*
X141297Y458563D01*
X141568Y458833D01*
X141629Y458916D01*
X141695Y458994D01*
X141707Y459022D01*
X141725Y459047D01*
X141759Y459144D01*
X141799Y459238D01*
X141803Y459269D01*
X141813Y459298D01*
X141816Y459401D01*
X141827Y459503D01*
X141821Y459533D01*
X141822Y459564D01*
X141795Y459663D01*
X141775Y459764D01*
X141762Y459784D01*
X141752Y459820D01*
X141609Y460045D01*
X141580Y460069D01*
X141568Y460089D01*
X141217Y460440D01*
X140882Y461019D01*
X140709Y461665D01*
X140709Y463501D01*
X149389Y463501D01*
X149490Y463516D01*
X149593Y463524D01*
X149621Y463536D01*
X149652Y463540D01*
X149744Y463585D01*
X149839Y463623D01*
X149863Y463643D01*
X149891Y463656D01*
X149966Y463726D01*
X149997Y463752D01*
X150013Y463732D01*
X150039Y463715D01*
X150060Y463693D01*
X150149Y463642D01*
X150234Y463585D01*
X150258Y463579D01*
X150291Y463561D01*
X150550Y463503D01*
X150588Y463506D01*
X150611Y463501D01*
X159291Y463501D01*
X159291Y461665D01*
X159118Y461019D01*
X158783Y460440D01*
X158432Y460089D01*
X158372Y460007D01*
X158305Y459928D01*
X158293Y459900D01*
X158275Y459875D01*
X158241Y459779D01*
X158201Y459684D01*
X158197Y459653D01*
X158187Y459624D01*
X158184Y459522D01*
X158173Y459420D01*
X158179Y459389D01*
X158178Y459359D01*
X158205Y459260D01*
X158225Y459159D01*
X158238Y459139D01*
X158248Y459102D01*
X158391Y458878D01*
X158420Y458853D01*
X158432Y458833D01*
X158703Y458563D01*
X158720Y458550D01*
X158733Y458534D01*
X158826Y458472D01*
X158917Y458405D01*
X158936Y458398D01*
X158954Y458387D01*
X158998Y458377D01*
X159168Y458318D01*
X159280Y458314D01*
X159331Y458303D01*
X168153Y458303D01*
X168173Y458306D01*
X168194Y458304D01*
X168305Y458326D01*
X168416Y458343D01*
X168434Y458352D01*
X168455Y458356D01*
X168494Y458380D01*
X168655Y458458D01*
X168737Y458535D01*
X168781Y458563D01*
X169959Y459741D01*
X173957Y459741D01*
X176785Y456913D01*
X176785Y452915D01*
X175221Y451351D01*
X175190Y451310D01*
X175153Y451274D01*
X175112Y451203D01*
X175063Y451137D01*
X175046Y451088D01*
X175021Y451044D01*
X175003Y450964D01*
X174976Y450886D01*
X174974Y450834D01*
X174963Y450784D01*
X174970Y450702D01*
X174967Y450620D01*
X174980Y450571D01*
X174985Y450519D01*
X175015Y450443D01*
X175037Y450364D01*
X175064Y450320D01*
X175084Y450272D01*
X175135Y450209D01*
X175179Y450140D01*
X175219Y450106D01*
X175251Y450066D01*
X175320Y450021D01*
X175382Y449968D01*
X175429Y449947D01*
X175472Y449919D01*
X175523Y449907D01*
X175626Y449863D01*
X175805Y449845D01*
X175849Y449835D01*
X178021Y449835D01*
X180849Y447007D01*
X180849Y443009D01*
X178021Y440181D01*
X174023Y440181D01*
X172767Y441437D01*
X172750Y441450D01*
X172737Y441466D01*
X172643Y441528D01*
X172553Y441595D01*
X172533Y441602D01*
X172516Y441613D01*
X172471Y441623D01*
X172302Y441682D01*
X172189Y441686D01*
X172139Y441697D01*
X170269Y441697D01*
X170218Y441690D01*
X170167Y441691D01*
X170087Y441670D01*
X170006Y441657D01*
X169960Y441635D01*
X169910Y441621D01*
X169841Y441577D01*
X169767Y441542D01*
X169729Y441507D01*
X169686Y441479D01*
X169633Y441416D01*
X169573Y441360D01*
X169547Y441316D01*
X169514Y441276D01*
X169481Y441201D01*
X169441Y441130D01*
X169430Y441079D01*
X169409Y441032D01*
X169401Y440950D01*
X169383Y440870D01*
X169387Y440819D01*
X169382Y440767D01*
X169398Y440687D01*
X169405Y440605D01*
X169424Y440557D01*
X169434Y440507D01*
X169462Y440463D01*
X169504Y440358D01*
X169617Y440219D01*
X169641Y440181D01*
X171259Y438563D01*
X171276Y438550D01*
X171289Y438534D01*
X171383Y438472D01*
X171473Y438405D01*
X171493Y438398D01*
X171510Y438387D01*
X171555Y438377D01*
X171724Y438318D01*
X171837Y438314D01*
X171887Y438303D01*
X206065Y438303D01*
X206085Y438306D01*
X206106Y438304D01*
X206217Y438326D01*
X206328Y438343D01*
X206346Y438352D01*
X206367Y438356D01*
X206406Y438380D01*
X206567Y438458D01*
X206649Y438535D01*
X206693Y438563D01*
X207805Y439675D01*
X211803Y439675D01*
X213276Y438202D01*
X213317Y438171D01*
X213353Y438134D01*
X213424Y438093D01*
X213490Y438044D01*
X213539Y438027D01*
X213583Y438002D01*
X213663Y437984D01*
X213741Y437957D01*
X213793Y437955D01*
X213843Y437944D01*
X213925Y437951D01*
X214007Y437948D01*
X214056Y437961D01*
X214108Y437966D01*
X214184Y437996D01*
X214263Y438018D01*
X214307Y438045D01*
X214355Y438065D01*
X214418Y438116D01*
X214487Y438160D01*
X214521Y438200D01*
X214561Y438232D01*
X214606Y438301D01*
X214659Y438363D01*
X214680Y438410D01*
X214708Y438453D01*
X214720Y438504D01*
X214764Y438607D01*
X214782Y438786D01*
X214792Y438830D01*
X214792Y503904D01*
X214777Y504006D01*
X214769Y504108D01*
X214757Y504136D01*
X214752Y504167D01*
X214708Y504259D01*
X214670Y504355D01*
X214650Y504378D01*
X214637Y504406D01*
X214567Y504481D01*
X214502Y504561D01*
X214476Y504578D01*
X214455Y504600D01*
X214366Y504651D01*
X214281Y504708D01*
X214257Y504714D01*
X214225Y504732D01*
X213965Y504790D01*
X213927Y504787D01*
X213904Y504792D01*
X55384Y504792D01*
X55282Y504777D01*
X55180Y504769D01*
X55152Y504757D01*
X55121Y504752D01*
X55029Y504708D01*
X54933Y504670D01*
X54910Y504650D01*
X54882Y504637D01*
X54807Y504567D01*
X54727Y504502D01*
X54710Y504476D01*
X54688Y504455D01*
X54637Y504366D01*
X54580Y504281D01*
X54574Y504257D01*
X54556Y504225D01*
X54498Y503965D01*
X54501Y503927D01*
X54496Y503904D01*
X54496Y498077D01*
X44589Y498077D01*
X44488Y498062D01*
X44385Y498053D01*
X44357Y498042D01*
X44326Y498037D01*
X44234Y497993D01*
X44139Y497954D01*
X44115Y497935D01*
X44087Y497922D01*
X44012Y497852D01*
X43932Y497787D01*
X43915Y497761D01*
X43893Y497740D01*
X43842Y497651D01*
X43785Y497566D01*
X43780Y497542D01*
X43761Y497510D01*
X43703Y497250D01*
X43706Y497212D01*
X43701Y497189D01*
X43701Y496299D01*
X43699Y496299D01*
X43699Y497189D01*
X43684Y497290D01*
X43675Y497393D01*
X43664Y497421D01*
X43659Y497452D01*
X43615Y497544D01*
X43576Y497639D01*
X43557Y497663D01*
X43544Y497691D01*
X43474Y497766D01*
X43409Y497846D01*
X43383Y497863D01*
X43362Y497885D01*
X43273Y497936D01*
X43188Y497993D01*
X43164Y497999D01*
X43131Y498017D01*
X42872Y498075D01*
X42834Y498072D01*
X42811Y498077D01*
X32904Y498077D01*
X32904Y503904D01*
X32889Y504006D01*
X32881Y504108D01*
X32869Y504136D01*
X32864Y504167D01*
X32820Y504259D01*
X32782Y504355D01*
X32762Y504378D01*
X32749Y504406D01*
X32679Y504481D01*
X32614Y504561D01*
X32588Y504578D01*
X32567Y504600D01*
X32478Y504651D01*
X32393Y504708D01*
X32369Y504714D01*
X32337Y504732D01*
X32077Y504790D01*
X32039Y504787D01*
X32016Y504792D01*
X26142Y504792D01*
X26091Y504785D01*
X26039Y504786D01*
X25960Y504765D01*
X25879Y504752D01*
X25833Y504730D01*
X25783Y504716D01*
X25714Y504672D01*
X25640Y504637D01*
X25602Y504602D01*
X25559Y504574D01*
X25505Y504511D01*
X25446Y504455D01*
X25420Y504411D01*
X25387Y504371D01*
X25354Y504296D01*
X25314Y504225D01*
X25302Y504174D01*
X25282Y504127D01*
X25274Y504045D01*
X25256Y503965D01*
X25260Y503914D01*
X25255Y503862D01*
X25271Y503782D01*
X25277Y503700D01*
X25297Y503652D01*
X25307Y503602D01*
X25334Y503558D01*
X25376Y503453D01*
X25489Y503314D01*
X25514Y503276D01*
X26806Y501984D01*
X28334Y498296D01*
X28334Y494304D01*
X26806Y490616D01*
X23984Y487794D01*
X20296Y486266D01*
X16304Y486266D01*
X12616Y487794D01*
X9794Y490616D01*
X8266Y494304D01*
X8266Y498296D01*
X9794Y501984D01*
X11086Y503276D01*
X11117Y503317D01*
X11154Y503353D01*
X11195Y503424D01*
X11244Y503490D01*
X11261Y503539D01*
X11286Y503583D01*
X11304Y503663D01*
X11331Y503741D01*
X11333Y503793D01*
X11344Y503843D01*
X11338Y503925D01*
X11340Y504007D01*
X11327Y504056D01*
X11323Y504108D01*
X11292Y504184D01*
X11270Y504263D01*
X11243Y504307D01*
X11224Y504355D01*
X11172Y504418D01*
X11128Y504487D01*
X11089Y504521D01*
X11056Y504561D01*
X10988Y504606D01*
X10925Y504659D01*
X10878Y504680D01*
X10835Y504708D01*
X10784Y504720D01*
X10681Y504764D01*
X10502Y504782D01*
X10458Y504792D01*
X6096Y504792D01*
X5994Y504777D01*
X5892Y504769D01*
X5864Y504757D01*
X5833Y504752D01*
X5741Y504708D01*
X5645Y504670D01*
X5622Y504650D01*
X5594Y504637D01*
X5519Y504567D01*
X5439Y504502D01*
X5422Y504476D01*
X5400Y504455D01*
X5349Y504366D01*
X5292Y504281D01*
X5286Y504257D01*
X5268Y504225D01*
X5210Y503965D01*
X5213Y503927D01*
X5208Y503904D01*
X5208Y6096D01*
X5223Y5994D01*
X5231Y5892D01*
X5243Y5864D01*
X5248Y5833D01*
X5292Y5741D01*
X5330Y5645D01*
X5350Y5622D01*
X5363Y5594D01*
X5433Y5519D01*
X5498Y5439D01*
X5524Y5422D01*
X5545Y5400D01*
X5634Y5349D01*
X5719Y5292D01*
X5743Y5286D01*
X5775Y5268D01*
X6035Y5210D01*
X6073Y5213D01*
X6096Y5208D01*
X10458Y5208D01*
X10509Y5215D01*
G37*
G36*
X213925Y256595D02*
X213925Y256595D01*
X214007Y256592D01*
X214056Y256605D01*
X214108Y256610D01*
X214184Y256640D01*
X214263Y256662D01*
X214307Y256689D01*
X214355Y256709D01*
X214418Y256760D01*
X214487Y256804D01*
X214521Y256844D01*
X214561Y256876D01*
X214606Y256945D01*
X214659Y257007D01*
X214680Y257054D01*
X214708Y257097D01*
X214720Y257148D01*
X214764Y257251D01*
X214782Y257430D01*
X214792Y257474D01*
X214792Y332060D01*
X214785Y332111D01*
X214786Y332162D01*
X214765Y332242D01*
X214752Y332323D01*
X214730Y332369D01*
X214716Y332419D01*
X214672Y332488D01*
X214637Y332562D01*
X214602Y332600D01*
X214574Y332643D01*
X214511Y332696D01*
X214455Y332756D01*
X214411Y332782D01*
X214371Y332815D01*
X214296Y332848D01*
X214225Y332888D01*
X214174Y332899D01*
X214127Y332920D01*
X214045Y332928D01*
X213965Y332946D01*
X213914Y332942D01*
X213862Y332947D01*
X213782Y332931D01*
X213700Y332924D01*
X213652Y332905D01*
X213602Y332895D01*
X213558Y332867D01*
X213453Y332825D01*
X213314Y332712D01*
X213276Y332688D01*
X210787Y330199D01*
X206789Y330199D01*
X205525Y331463D01*
X205508Y331476D01*
X205495Y331492D01*
X205401Y331554D01*
X205311Y331621D01*
X205291Y331628D01*
X205274Y331639D01*
X205229Y331649D01*
X205060Y331708D01*
X204947Y331712D01*
X204897Y331723D01*
X198698Y331723D01*
X198663Y331718D01*
X198629Y331721D01*
X198532Y331698D01*
X198435Y331683D01*
X198404Y331668D01*
X198370Y331661D01*
X198284Y331611D01*
X198195Y331568D01*
X198170Y331544D01*
X198140Y331527D01*
X198073Y331454D01*
X198001Y331386D01*
X197984Y331356D01*
X197961Y331331D01*
X197918Y331242D01*
X197869Y331156D01*
X197862Y331122D01*
X197847Y331091D01*
X197833Y330993D01*
X197811Y330896D01*
X197814Y330862D01*
X197809Y330827D01*
X197825Y330730D01*
X197833Y330631D01*
X197846Y330599D01*
X197851Y330565D01*
X197895Y330476D01*
X197932Y330384D01*
X197954Y330358D01*
X197969Y330327D01*
X198008Y330291D01*
X198100Y330178D01*
X198214Y330101D01*
X198253Y330066D01*
X198310Y330033D01*
X198783Y329560D01*
X199118Y328981D01*
X199291Y328335D01*
X199291Y323777D01*
X187639Y323777D01*
X187538Y323762D01*
X187435Y323753D01*
X187407Y323742D01*
X187376Y323737D01*
X187284Y323693D01*
X187189Y323654D01*
X187165Y323635D01*
X187137Y323622D01*
X187062Y323552D01*
X186982Y323487D01*
X186965Y323461D01*
X186943Y323440D01*
X186892Y323351D01*
X186835Y323266D01*
X186830Y323242D01*
X186811Y323209D01*
X186753Y322950D01*
X186756Y322912D01*
X186751Y322889D01*
X186751Y321999D01*
X186749Y321999D01*
X186749Y322889D01*
X186734Y322990D01*
X186725Y323093D01*
X186714Y323121D01*
X186709Y323152D01*
X186665Y323244D01*
X186626Y323339D01*
X186607Y323363D01*
X186594Y323391D01*
X186524Y323466D01*
X186459Y323546D01*
X186433Y323563D01*
X186412Y323585D01*
X186323Y323636D01*
X186238Y323693D01*
X186214Y323698D01*
X186181Y323717D01*
X185922Y323775D01*
X185884Y323772D01*
X185861Y323777D01*
X174209Y323777D01*
X174209Y328335D01*
X174382Y328981D01*
X174717Y329560D01*
X175190Y330033D01*
X175247Y330066D01*
X175274Y330087D01*
X175305Y330102D01*
X175377Y330170D01*
X175454Y330232D01*
X175474Y330260D01*
X175499Y330284D01*
X175548Y330370D01*
X175604Y330451D01*
X175614Y330485D01*
X175631Y330514D01*
X175652Y330611D01*
X175681Y330706D01*
X175681Y330740D01*
X175689Y330774D01*
X175681Y330872D01*
X175680Y330971D01*
X175670Y331004D01*
X175667Y331039D01*
X175630Y331131D01*
X175601Y331225D01*
X175581Y331253D01*
X175568Y331286D01*
X175506Y331362D01*
X175449Y331444D01*
X175422Y331465D01*
X175400Y331492D01*
X175318Y331547D01*
X175240Y331608D01*
X175208Y331620D01*
X175179Y331639D01*
X175128Y331651D01*
X174992Y331703D01*
X174854Y331712D01*
X174802Y331723D01*
X171785Y331723D01*
X171765Y331720D01*
X171744Y331722D01*
X171633Y331700D01*
X171522Y331683D01*
X171504Y331674D01*
X171483Y331670D01*
X171444Y331646D01*
X171283Y331568D01*
X171201Y331491D01*
X171157Y331463D01*
X169893Y330199D01*
X165895Y330199D01*
X164657Y331437D01*
X164640Y331450D01*
X164627Y331466D01*
X164533Y331528D01*
X164443Y331595D01*
X164423Y331602D01*
X164406Y331613D01*
X164361Y331623D01*
X164192Y331682D01*
X164079Y331686D01*
X164029Y331697D01*
X159331Y331697D01*
X159310Y331694D01*
X159289Y331696D01*
X159179Y331674D01*
X159068Y331657D01*
X159049Y331648D01*
X159028Y331644D01*
X158990Y331620D01*
X158829Y331542D01*
X158746Y331465D01*
X158703Y331437D01*
X157487Y330221D01*
X142513Y330221D01*
X141471Y331263D01*
X141471Y338737D01*
X142106Y339372D01*
X142167Y339455D01*
X142234Y339533D01*
X142246Y339561D01*
X142264Y339586D01*
X142298Y339683D01*
X142338Y339777D01*
X142341Y339808D01*
X142351Y339837D01*
X142355Y339940D01*
X142366Y340042D01*
X142360Y340072D01*
X142361Y340103D01*
X142334Y340202D01*
X142314Y340302D01*
X142301Y340323D01*
X142291Y340359D01*
X142148Y340583D01*
X142119Y340608D01*
X142106Y340628D01*
X141471Y341263D01*
X141471Y348737D01*
X142106Y349372D01*
X142167Y349455D01*
X142234Y349533D01*
X142246Y349561D01*
X142264Y349586D01*
X142298Y349683D01*
X142338Y349777D01*
X142341Y349808D01*
X142351Y349837D01*
X142355Y349939D01*
X142366Y350042D01*
X142360Y350072D01*
X142361Y350103D01*
X142334Y350202D01*
X142314Y350302D01*
X142301Y350323D01*
X142291Y350359D01*
X142148Y350583D01*
X142119Y350608D01*
X142106Y350628D01*
X141297Y351437D01*
X141281Y351450D01*
X141267Y351466D01*
X141174Y351528D01*
X141083Y351595D01*
X141064Y351602D01*
X141046Y351613D01*
X141002Y351623D01*
X140832Y351682D01*
X140720Y351686D01*
X140669Y351697D01*
X133985Y351697D01*
X133883Y351682D01*
X133781Y351674D01*
X133753Y351662D01*
X133722Y351657D01*
X133630Y351613D01*
X133534Y351575D01*
X133511Y351555D01*
X133483Y351542D01*
X133408Y351472D01*
X133328Y351407D01*
X133311Y351381D01*
X133289Y351360D01*
X133238Y351271D01*
X133181Y351186D01*
X133175Y351162D01*
X133157Y351130D01*
X133099Y350870D01*
X133102Y350832D01*
X133097Y350809D01*
X133097Y259292D01*
X133100Y259271D01*
X133098Y259250D01*
X133120Y259140D01*
X133137Y259029D01*
X133146Y259010D01*
X133150Y258990D01*
X133174Y258951D01*
X133252Y258790D01*
X133329Y258707D01*
X133357Y258664D01*
X133458Y258563D01*
X133475Y258550D01*
X133488Y258534D01*
X133582Y258472D01*
X133672Y258405D01*
X133692Y258398D01*
X133709Y258387D01*
X133754Y258377D01*
X133923Y258318D01*
X134036Y258314D01*
X134086Y258303D01*
X140669Y258303D01*
X140690Y258306D01*
X140711Y258304D01*
X140821Y258326D01*
X140932Y258343D01*
X140951Y258352D01*
X140972Y258356D01*
X141010Y258380D01*
X141171Y258458D01*
X141254Y258535D01*
X141297Y258563D01*
X141568Y258833D01*
X141629Y258916D01*
X141695Y258994D01*
X141707Y259022D01*
X141725Y259047D01*
X141759Y259144D01*
X141799Y259238D01*
X141803Y259269D01*
X141813Y259298D01*
X141816Y259401D01*
X141827Y259503D01*
X141821Y259533D01*
X141822Y259564D01*
X141795Y259663D01*
X141775Y259764D01*
X141762Y259784D01*
X141752Y259820D01*
X141609Y260045D01*
X141580Y260069D01*
X141568Y260089D01*
X141217Y260440D01*
X140882Y261019D01*
X140709Y261665D01*
X140709Y263501D01*
X149389Y263501D01*
X149490Y263516D01*
X149593Y263524D01*
X149621Y263536D01*
X149652Y263540D01*
X149744Y263585D01*
X149839Y263623D01*
X149863Y263643D01*
X149891Y263656D01*
X149966Y263726D01*
X149997Y263752D01*
X150013Y263732D01*
X150039Y263715D01*
X150060Y263693D01*
X150149Y263642D01*
X150234Y263585D01*
X150258Y263579D01*
X150291Y263561D01*
X150550Y263503D01*
X150588Y263506D01*
X150611Y263501D01*
X159291Y263501D01*
X159291Y261665D01*
X159118Y261019D01*
X158783Y260440D01*
X158432Y260089D01*
X158372Y260007D01*
X158305Y259928D01*
X158293Y259900D01*
X158275Y259875D01*
X158241Y259779D01*
X158201Y259684D01*
X158197Y259653D01*
X158187Y259624D01*
X158184Y259522D01*
X158173Y259420D01*
X158179Y259389D01*
X158178Y259359D01*
X158205Y259260D01*
X158225Y259159D01*
X158238Y259139D01*
X158248Y259102D01*
X158391Y258878D01*
X158420Y258853D01*
X158432Y258833D01*
X158703Y258563D01*
X158720Y258550D01*
X158733Y258534D01*
X158826Y258472D01*
X158917Y258405D01*
X158936Y258398D01*
X158954Y258387D01*
X158998Y258377D01*
X159168Y258318D01*
X159280Y258314D01*
X159331Y258303D01*
X204373Y258303D01*
X204393Y258306D01*
X204414Y258304D01*
X204525Y258326D01*
X204636Y258343D01*
X204654Y258352D01*
X204675Y258356D01*
X204714Y258380D01*
X204875Y258458D01*
X204957Y258535D01*
X205001Y258563D01*
X206281Y259843D01*
X210279Y259843D01*
X213276Y256846D01*
X213317Y256815D01*
X213353Y256778D01*
X213424Y256737D01*
X213490Y256688D01*
X213539Y256671D01*
X213583Y256646D01*
X213663Y256628D01*
X213741Y256601D01*
X213793Y256599D01*
X213843Y256588D01*
X213925Y256595D01*
G37*
G36*
X213925Y156519D02*
X213925Y156519D01*
X214007Y156516D01*
X214056Y156529D01*
X214108Y156534D01*
X214184Y156564D01*
X214263Y156586D01*
X214307Y156613D01*
X214355Y156633D01*
X214418Y156684D01*
X214487Y156728D01*
X214521Y156768D01*
X214561Y156800D01*
X214606Y156869D01*
X214659Y156931D01*
X214680Y156978D01*
X214708Y157021D01*
X214720Y157072D01*
X214764Y157175D01*
X214782Y157354D01*
X214792Y157398D01*
X214792Y231476D01*
X214785Y231527D01*
X214786Y231578D01*
X214765Y231658D01*
X214752Y231739D01*
X214730Y231785D01*
X214716Y231835D01*
X214672Y231904D01*
X214637Y231978D01*
X214602Y232016D01*
X214574Y232059D01*
X214511Y232112D01*
X214455Y232172D01*
X214411Y232198D01*
X214371Y232231D01*
X214296Y232264D01*
X214225Y232304D01*
X214174Y232315D01*
X214127Y232336D01*
X214045Y232344D01*
X213965Y232362D01*
X213914Y232358D01*
X213862Y232363D01*
X213782Y232347D01*
X213700Y232340D01*
X213652Y232321D01*
X213602Y232311D01*
X213558Y232283D01*
X213453Y232241D01*
X213314Y232128D01*
X213276Y232104D01*
X211295Y230123D01*
X207297Y230123D01*
X206033Y231387D01*
X206016Y231400D01*
X206003Y231416D01*
X205909Y231478D01*
X205819Y231545D01*
X205799Y231552D01*
X205782Y231563D01*
X205737Y231573D01*
X205568Y231632D01*
X205455Y231636D01*
X205405Y231647D01*
X198829Y231647D01*
X198795Y231642D01*
X198760Y231645D01*
X198664Y231622D01*
X198566Y231607D01*
X198535Y231592D01*
X198501Y231584D01*
X198416Y231535D01*
X198327Y231492D01*
X198301Y231468D01*
X198271Y231450D01*
X198205Y231378D01*
X198133Y231310D01*
X198115Y231280D01*
X198092Y231254D01*
X198050Y231165D01*
X198001Y231080D01*
X197993Y231046D01*
X197978Y231014D01*
X197964Y230916D01*
X197943Y230820D01*
X197946Y230785D01*
X197941Y230751D01*
X197957Y230653D01*
X197965Y230555D01*
X197978Y230523D01*
X197983Y230488D01*
X198027Y230400D01*
X198064Y230308D01*
X198086Y230281D01*
X198101Y230250D01*
X198140Y230215D01*
X198231Y230102D01*
X198261Y230083D01*
X198783Y229560D01*
X199118Y228981D01*
X199291Y228335D01*
X199291Y223777D01*
X187639Y223777D01*
X187538Y223762D01*
X187435Y223753D01*
X187407Y223742D01*
X187376Y223737D01*
X187284Y223693D01*
X187189Y223654D01*
X187165Y223635D01*
X187137Y223622D01*
X187062Y223552D01*
X186982Y223487D01*
X186965Y223461D01*
X186943Y223440D01*
X186892Y223351D01*
X186835Y223266D01*
X186830Y223242D01*
X186811Y223209D01*
X186753Y222950D01*
X186756Y222912D01*
X186751Y222889D01*
X186751Y221999D01*
X186749Y221999D01*
X186749Y222889D01*
X186734Y222990D01*
X186725Y223093D01*
X186714Y223121D01*
X186709Y223152D01*
X186665Y223244D01*
X186626Y223339D01*
X186607Y223363D01*
X186594Y223391D01*
X186524Y223466D01*
X186459Y223546D01*
X186433Y223563D01*
X186412Y223585D01*
X186323Y223636D01*
X186238Y223693D01*
X186214Y223698D01*
X186181Y223717D01*
X185922Y223775D01*
X185884Y223772D01*
X185861Y223777D01*
X174209Y223777D01*
X174209Y228335D01*
X174382Y228981D01*
X174717Y229560D01*
X175272Y230115D01*
X175322Y230155D01*
X175342Y230184D01*
X175367Y230208D01*
X175416Y230293D01*
X175472Y230375D01*
X175482Y230408D01*
X175499Y230438D01*
X175521Y230535D01*
X175550Y230629D01*
X175549Y230664D01*
X175557Y230698D01*
X175549Y230796D01*
X175549Y230895D01*
X175538Y230928D01*
X175535Y230963D01*
X175499Y231054D01*
X175469Y231148D01*
X175449Y231177D01*
X175436Y231210D01*
X175374Y231286D01*
X175318Y231367D01*
X175291Y231389D01*
X175269Y231416D01*
X175187Y231471D01*
X175109Y231531D01*
X175077Y231544D01*
X175048Y231563D01*
X174996Y231575D01*
X174861Y231627D01*
X174722Y231636D01*
X174671Y231647D01*
X171785Y231647D01*
X171765Y231644D01*
X171744Y231646D01*
X171633Y231624D01*
X171522Y231607D01*
X171504Y231598D01*
X171483Y231594D01*
X171444Y231570D01*
X171283Y231492D01*
X171201Y231415D01*
X171157Y231387D01*
X169893Y230123D01*
X165895Y230123D01*
X164581Y231437D01*
X164564Y231450D01*
X164551Y231466D01*
X164457Y231528D01*
X164367Y231595D01*
X164347Y231602D01*
X164330Y231613D01*
X164285Y231623D01*
X164116Y231682D01*
X164003Y231686D01*
X163953Y231697D01*
X159331Y231697D01*
X159310Y231694D01*
X159289Y231696D01*
X159179Y231674D01*
X159068Y231657D01*
X159049Y231648D01*
X159028Y231644D01*
X158990Y231620D01*
X158829Y231542D01*
X158746Y231465D01*
X158703Y231437D01*
X157487Y230221D01*
X142513Y230221D01*
X141471Y231263D01*
X141471Y238737D01*
X142106Y239372D01*
X142167Y239455D01*
X142234Y239533D01*
X142246Y239561D01*
X142264Y239586D01*
X142298Y239683D01*
X142338Y239777D01*
X142341Y239808D01*
X142351Y239837D01*
X142355Y239940D01*
X142366Y240042D01*
X142360Y240072D01*
X142361Y240103D01*
X142334Y240202D01*
X142314Y240302D01*
X142301Y240323D01*
X142291Y240359D01*
X142148Y240583D01*
X142119Y240608D01*
X142106Y240628D01*
X141471Y241263D01*
X141471Y248737D01*
X142106Y249372D01*
X142167Y249455D01*
X142234Y249533D01*
X142246Y249561D01*
X142264Y249586D01*
X142298Y249683D01*
X142338Y249777D01*
X142341Y249808D01*
X142351Y249837D01*
X142355Y249940D01*
X142366Y250042D01*
X142360Y250072D01*
X142361Y250103D01*
X142334Y250202D01*
X142314Y250302D01*
X142301Y250323D01*
X142291Y250359D01*
X142148Y250583D01*
X142119Y250608D01*
X142106Y250628D01*
X141297Y251437D01*
X141281Y251450D01*
X141267Y251466D01*
X141173Y251528D01*
X141083Y251595D01*
X141064Y251602D01*
X141046Y251613D01*
X141001Y251623D01*
X140832Y251682D01*
X140720Y251686D01*
X140669Y251697D01*
X134086Y251697D01*
X134065Y251694D01*
X134044Y251696D01*
X133934Y251674D01*
X133823Y251657D01*
X133804Y251648D01*
X133784Y251644D01*
X133745Y251620D01*
X133584Y251542D01*
X133501Y251465D01*
X133458Y251437D01*
X133357Y251336D01*
X133344Y251319D01*
X133328Y251306D01*
X133266Y251212D01*
X133199Y251122D01*
X133192Y251102D01*
X133181Y251085D01*
X133171Y251040D01*
X133112Y250871D01*
X133108Y250758D01*
X133097Y250708D01*
X133097Y159724D01*
X133100Y159703D01*
X133098Y159682D01*
X133119Y159575D01*
X133120Y159559D01*
X133122Y159555D01*
X133137Y159461D01*
X133146Y159442D01*
X133150Y159422D01*
X133174Y159383D01*
X133252Y159222D01*
X133329Y159139D01*
X133357Y159096D01*
X133890Y158563D01*
X133907Y158550D01*
X133920Y158534D01*
X134014Y158472D01*
X134104Y158405D01*
X134124Y158398D01*
X134141Y158387D01*
X134186Y158377D01*
X134355Y158318D01*
X134468Y158314D01*
X134518Y158303D01*
X140669Y158303D01*
X140690Y158306D01*
X140711Y158304D01*
X140821Y158326D01*
X140932Y158343D01*
X140951Y158352D01*
X140972Y158356D01*
X141010Y158380D01*
X141171Y158458D01*
X141254Y158535D01*
X141297Y158563D01*
X141568Y158833D01*
X141629Y158916D01*
X141695Y158994D01*
X141707Y159022D01*
X141725Y159047D01*
X141759Y159144D01*
X141799Y159238D01*
X141803Y159269D01*
X141813Y159298D01*
X141816Y159401D01*
X141827Y159503D01*
X141821Y159533D01*
X141822Y159564D01*
X141795Y159663D01*
X141775Y159764D01*
X141762Y159784D01*
X141752Y159820D01*
X141609Y160045D01*
X141580Y160069D01*
X141568Y160089D01*
X141217Y160440D01*
X140882Y161019D01*
X140709Y161665D01*
X140709Y163501D01*
X149389Y163501D01*
X149490Y163516D01*
X149593Y163524D01*
X149621Y163536D01*
X149652Y163540D01*
X149744Y163585D01*
X149839Y163623D01*
X149863Y163643D01*
X149891Y163656D01*
X149966Y163726D01*
X149997Y163752D01*
X150013Y163732D01*
X150039Y163715D01*
X150060Y163693D01*
X150149Y163642D01*
X150234Y163585D01*
X150258Y163579D01*
X150291Y163561D01*
X150550Y163503D01*
X150588Y163506D01*
X150611Y163501D01*
X159291Y163501D01*
X159291Y161665D01*
X159118Y161019D01*
X158783Y160440D01*
X158432Y160089D01*
X158372Y160007D01*
X158305Y159928D01*
X158293Y159900D01*
X158275Y159875D01*
X158241Y159778D01*
X158201Y159684D01*
X158197Y159653D01*
X158187Y159624D01*
X158184Y159522D01*
X158173Y159420D01*
X158179Y159389D01*
X158178Y159359D01*
X158205Y159260D01*
X158225Y159159D01*
X158238Y159139D01*
X158248Y159102D01*
X158391Y158878D01*
X158420Y158853D01*
X158432Y158833D01*
X158703Y158563D01*
X158719Y158550D01*
X158733Y158534D01*
X158826Y158472D01*
X158917Y158405D01*
X158936Y158398D01*
X158954Y158387D01*
X158998Y158377D01*
X159168Y158318D01*
X159280Y158314D01*
X159331Y158303D01*
X204449Y158303D01*
X204469Y158306D01*
X204490Y158304D01*
X204601Y158326D01*
X204712Y158343D01*
X204730Y158352D01*
X204751Y158356D01*
X204790Y158380D01*
X204951Y158458D01*
X205033Y158535D01*
X205077Y158563D01*
X206281Y159767D01*
X210279Y159767D01*
X213276Y156770D01*
X213317Y156739D01*
X213353Y156702D01*
X213424Y156661D01*
X213490Y156612D01*
X213539Y156595D01*
X213583Y156570D01*
X213663Y156552D01*
X213741Y156525D01*
X213793Y156523D01*
X213843Y156512D01*
X213925Y156519D01*
G37*
G36*
X213925Y356925D02*
X213925Y356925D01*
X214007Y356922D01*
X214056Y356935D01*
X214108Y356940D01*
X214184Y356970D01*
X214263Y356992D01*
X214307Y357019D01*
X214355Y357039D01*
X214418Y357090D01*
X214487Y357134D01*
X214521Y357174D01*
X214561Y357206D01*
X214606Y357275D01*
X214659Y357337D01*
X214680Y357384D01*
X214708Y357427D01*
X214720Y357478D01*
X214764Y357581D01*
X214780Y357736D01*
X214790Y357782D01*
X214789Y357791D01*
X214792Y357804D01*
X214792Y430866D01*
X214785Y430917D01*
X214786Y430968D01*
X214765Y431048D01*
X214752Y431129D01*
X214730Y431175D01*
X214716Y431225D01*
X214672Y431294D01*
X214637Y431368D01*
X214602Y431406D01*
X214574Y431449D01*
X214511Y431502D01*
X214455Y431562D01*
X214411Y431588D01*
X214371Y431621D01*
X214296Y431654D01*
X214225Y431694D01*
X214174Y431705D01*
X214127Y431726D01*
X214045Y431734D01*
X213965Y431752D01*
X213914Y431748D01*
X213862Y431753D01*
X213782Y431737D01*
X213700Y431730D01*
X213652Y431711D01*
X213602Y431701D01*
X213558Y431673D01*
X213453Y431631D01*
X213314Y431518D01*
X213276Y431494D01*
X211803Y430021D01*
X207805Y430021D01*
X206389Y431437D01*
X206372Y431450D01*
X206359Y431466D01*
X206265Y431528D01*
X206175Y431595D01*
X206155Y431602D01*
X206138Y431613D01*
X206093Y431623D01*
X205924Y431682D01*
X205811Y431686D01*
X205761Y431697D01*
X198743Y431697D01*
X198708Y431692D01*
X198674Y431695D01*
X198578Y431672D01*
X198480Y431657D01*
X198449Y431642D01*
X198415Y431635D01*
X198330Y431585D01*
X198240Y431542D01*
X198215Y431518D01*
X198185Y431501D01*
X198118Y431428D01*
X198046Y431360D01*
X198029Y431330D01*
X198006Y431305D01*
X197963Y431215D01*
X197914Y431130D01*
X197907Y431096D01*
X197892Y431065D01*
X197878Y430967D01*
X197856Y430870D01*
X197859Y430836D01*
X197854Y430802D01*
X197870Y430704D01*
X197878Y430605D01*
X197891Y430573D01*
X197896Y430539D01*
X197940Y430450D01*
X197977Y430358D01*
X197999Y430332D01*
X198014Y430301D01*
X198053Y430265D01*
X198145Y430152D01*
X198260Y430075D01*
X198299Y430040D01*
X198310Y430033D01*
X198783Y429560D01*
X199118Y428981D01*
X199291Y428335D01*
X199291Y423777D01*
X187639Y423777D01*
X187538Y423762D01*
X187435Y423753D01*
X187407Y423742D01*
X187376Y423737D01*
X187284Y423693D01*
X187189Y423654D01*
X187165Y423635D01*
X187137Y423622D01*
X187062Y423552D01*
X186982Y423487D01*
X186965Y423461D01*
X186943Y423440D01*
X186892Y423351D01*
X186835Y423266D01*
X186830Y423242D01*
X186811Y423209D01*
X186753Y422950D01*
X186756Y422912D01*
X186751Y422889D01*
X186751Y421999D01*
X186749Y421999D01*
X186749Y422889D01*
X186734Y422990D01*
X186725Y423093D01*
X186714Y423121D01*
X186709Y423152D01*
X186665Y423244D01*
X186626Y423339D01*
X186607Y423363D01*
X186594Y423391D01*
X186524Y423466D01*
X186459Y423546D01*
X186433Y423563D01*
X186412Y423585D01*
X186323Y423636D01*
X186238Y423693D01*
X186214Y423698D01*
X186181Y423717D01*
X185922Y423775D01*
X185884Y423772D01*
X185861Y423777D01*
X174209Y423777D01*
X174209Y428335D01*
X174382Y428981D01*
X174717Y429560D01*
X175190Y430033D01*
X175201Y430040D01*
X175228Y430061D01*
X175260Y430076D01*
X175332Y430144D01*
X175409Y430206D01*
X175429Y430234D01*
X175454Y430258D01*
X175503Y430344D01*
X175559Y430425D01*
X175569Y430458D01*
X175586Y430488D01*
X175607Y430585D01*
X175636Y430680D01*
X175636Y430714D01*
X175644Y430748D01*
X175636Y430847D01*
X175635Y430946D01*
X175625Y430978D01*
X175622Y431013D01*
X175585Y431105D01*
X175555Y431199D01*
X175536Y431227D01*
X175523Y431260D01*
X175460Y431337D01*
X175404Y431418D01*
X175377Y431439D01*
X175355Y431466D01*
X175273Y431521D01*
X175195Y431582D01*
X175163Y431594D01*
X175134Y431613D01*
X175083Y431625D01*
X174947Y431677D01*
X174809Y431686D01*
X174757Y431697D01*
X171683Y431697D01*
X171663Y431694D01*
X171642Y431696D01*
X171531Y431674D01*
X171420Y431657D01*
X171402Y431648D01*
X171381Y431644D01*
X171342Y431620D01*
X171181Y431542D01*
X171099Y431465D01*
X171055Y431437D01*
X169893Y430275D01*
X165895Y430275D01*
X164733Y431437D01*
X164716Y431450D01*
X164703Y431466D01*
X164609Y431528D01*
X164519Y431595D01*
X164499Y431602D01*
X164482Y431613D01*
X164437Y431623D01*
X164268Y431682D01*
X164155Y431686D01*
X164105Y431697D01*
X159331Y431697D01*
X159310Y431694D01*
X159289Y431696D01*
X159179Y431674D01*
X159068Y431657D01*
X159049Y431648D01*
X159028Y431644D01*
X158990Y431620D01*
X158829Y431542D01*
X158746Y431465D01*
X158703Y431437D01*
X157487Y430221D01*
X142513Y430221D01*
X141471Y431263D01*
X141471Y438737D01*
X142106Y439372D01*
X142167Y439455D01*
X142234Y439533D01*
X142246Y439561D01*
X142264Y439586D01*
X142298Y439683D01*
X142338Y439777D01*
X142341Y439808D01*
X142351Y439837D01*
X142355Y439940D01*
X142366Y440042D01*
X142360Y440072D01*
X142361Y440103D01*
X142334Y440202D01*
X142314Y440302D01*
X142301Y440323D01*
X142291Y440359D01*
X142148Y440583D01*
X142119Y440608D01*
X142106Y440628D01*
X141471Y441263D01*
X141471Y448737D01*
X142106Y449372D01*
X142167Y449455D01*
X142234Y449533D01*
X142246Y449561D01*
X142264Y449586D01*
X142298Y449683D01*
X142338Y449777D01*
X142341Y449808D01*
X142351Y449837D01*
X142355Y449940D01*
X142366Y450042D01*
X142360Y450072D01*
X142361Y450103D01*
X142334Y450202D01*
X142314Y450302D01*
X142301Y450323D01*
X142291Y450359D01*
X142148Y450583D01*
X142119Y450608D01*
X142106Y450628D01*
X141297Y451437D01*
X141281Y451450D01*
X141267Y451466D01*
X141173Y451528D01*
X141083Y451595D01*
X141064Y451602D01*
X141046Y451613D01*
X141001Y451623D01*
X140832Y451682D01*
X140720Y451686D01*
X140669Y451697D01*
X135680Y451697D01*
X135659Y451694D01*
X135638Y451696D01*
X135528Y451674D01*
X135417Y451657D01*
X135398Y451648D01*
X135378Y451644D01*
X135339Y451620D01*
X135178Y451542D01*
X135095Y451465D01*
X135052Y451437D01*
X133357Y449742D01*
X133344Y449725D01*
X133328Y449712D01*
X133266Y449618D01*
X133199Y449528D01*
X133192Y449508D01*
X133181Y449491D01*
X133171Y449446D01*
X133112Y449277D01*
X133108Y449164D01*
X133097Y449114D01*
X133097Y359191D01*
X133112Y359089D01*
X133120Y358987D01*
X133132Y358959D01*
X133137Y358928D01*
X133181Y358836D01*
X133219Y358740D01*
X133239Y358717D01*
X133252Y358689D01*
X133322Y358614D01*
X133387Y358534D01*
X133413Y358517D01*
X133434Y358495D01*
X133523Y358444D01*
X133608Y358387D01*
X133632Y358381D01*
X133664Y358363D01*
X133924Y358305D01*
X133962Y358308D01*
X133985Y358303D01*
X140669Y358303D01*
X140690Y358306D01*
X140711Y358304D01*
X140821Y358326D01*
X140932Y358343D01*
X140951Y358352D01*
X140972Y358356D01*
X141010Y358380D01*
X141171Y358458D01*
X141254Y358535D01*
X141297Y358563D01*
X141568Y358833D01*
X141629Y358916D01*
X141695Y358994D01*
X141707Y359022D01*
X141725Y359047D01*
X141759Y359144D01*
X141799Y359238D01*
X141803Y359269D01*
X141813Y359298D01*
X141816Y359401D01*
X141827Y359503D01*
X141821Y359533D01*
X141822Y359564D01*
X141795Y359663D01*
X141775Y359764D01*
X141762Y359784D01*
X141752Y359820D01*
X141609Y360045D01*
X141580Y360069D01*
X141568Y360089D01*
X141217Y360440D01*
X140882Y361019D01*
X140709Y361665D01*
X140709Y363501D01*
X149389Y363501D01*
X149490Y363516D01*
X149593Y363524D01*
X149621Y363536D01*
X149652Y363540D01*
X149744Y363585D01*
X149839Y363623D01*
X149863Y363643D01*
X149891Y363656D01*
X149966Y363726D01*
X149997Y363752D01*
X150013Y363732D01*
X150039Y363715D01*
X150060Y363693D01*
X150149Y363642D01*
X150234Y363585D01*
X150258Y363579D01*
X150291Y363561D01*
X150550Y363503D01*
X150588Y363506D01*
X150611Y363501D01*
X159291Y363501D01*
X159291Y361665D01*
X159118Y361019D01*
X158783Y360440D01*
X158432Y360089D01*
X158372Y360007D01*
X158305Y359928D01*
X158293Y359900D01*
X158275Y359875D01*
X158241Y359779D01*
X158201Y359684D01*
X158197Y359653D01*
X158187Y359624D01*
X158184Y359522D01*
X158173Y359420D01*
X158179Y359389D01*
X158178Y359359D01*
X158205Y359260D01*
X158225Y359159D01*
X158238Y359139D01*
X158248Y359102D01*
X158391Y358878D01*
X158420Y358853D01*
X158432Y358833D01*
X158703Y358563D01*
X158720Y358550D01*
X158733Y358534D01*
X158826Y358472D01*
X158917Y358405D01*
X158936Y358398D01*
X158954Y358387D01*
X158998Y358377D01*
X159168Y358318D01*
X159280Y358314D01*
X159331Y358303D01*
X204551Y358303D01*
X204571Y358306D01*
X204592Y358304D01*
X204703Y358326D01*
X204814Y358343D01*
X204832Y358352D01*
X204853Y358356D01*
X204892Y358380D01*
X205053Y358458D01*
X205135Y358535D01*
X205179Y358563D01*
X206535Y359919D01*
X210533Y359919D01*
X213276Y357176D01*
X213317Y357145D01*
X213353Y357108D01*
X213424Y357067D01*
X213490Y357018D01*
X213539Y357001D01*
X213583Y356976D01*
X213663Y356958D01*
X213741Y356931D01*
X213793Y356929D01*
X213843Y356918D01*
X213925Y356925D01*
G37*
G36*
X169608Y83189D02*
X169608Y83189D01*
X169629Y83187D01*
X169739Y83209D01*
X169850Y83226D01*
X169869Y83235D01*
X169889Y83239D01*
X169928Y83263D01*
X170089Y83341D01*
X170172Y83418D01*
X170215Y83446D01*
X170408Y83638D01*
X170437Y83679D01*
X170471Y83711D01*
X170496Y83753D01*
X170535Y83799D01*
X170547Y83827D01*
X170565Y83852D01*
X170585Y83910D01*
X170603Y83941D01*
X170612Y83979D01*
X170639Y84044D01*
X170642Y84074D01*
X170653Y84103D01*
X170655Y84173D01*
X170661Y84201D01*
X170659Y84231D01*
X170667Y84308D01*
X170661Y84338D01*
X170662Y84369D01*
X170641Y84444D01*
X170640Y84466D01*
X170631Y84487D01*
X170615Y84569D01*
X170602Y84589D01*
X170592Y84625D01*
X170547Y84695D01*
X170541Y84713D01*
X170522Y84735D01*
X170449Y84850D01*
X170420Y84874D01*
X170408Y84894D01*
X167385Y87917D01*
X167385Y89704D01*
X167382Y89725D01*
X167384Y89746D01*
X167362Y89856D01*
X167345Y89967D01*
X167336Y89986D01*
X167332Y90006D01*
X167308Y90045D01*
X167230Y90206D01*
X167153Y90289D01*
X167125Y90332D01*
X164591Y92866D01*
X164591Y105075D01*
X164588Y105095D01*
X164590Y105116D01*
X164568Y105227D01*
X164551Y105338D01*
X164542Y105356D01*
X164538Y105377D01*
X164514Y105416D01*
X164436Y105577D01*
X164359Y105659D01*
X164331Y105703D01*
X163067Y106967D01*
X163067Y110965D01*
X165895Y113793D01*
X169893Y113793D01*
X172721Y110965D01*
X172721Y106967D01*
X171457Y105703D01*
X171444Y105686D01*
X171428Y105673D01*
X171366Y105579D01*
X171299Y105489D01*
X171292Y105469D01*
X171281Y105452D01*
X171271Y105407D01*
X171212Y105238D01*
X171208Y105125D01*
X171197Y105075D01*
X171197Y95970D01*
X171200Y95949D01*
X171198Y95928D01*
X171220Y95818D01*
X171237Y95707D01*
X171246Y95688D01*
X171250Y95668D01*
X171274Y95629D01*
X171352Y95468D01*
X171429Y95385D01*
X171457Y95342D01*
X171796Y95003D01*
X171813Y94990D01*
X171826Y94974D01*
X171920Y94912D01*
X172010Y94845D01*
X172030Y94838D01*
X172047Y94827D01*
X172092Y94817D01*
X172261Y94758D01*
X172374Y94754D01*
X172424Y94743D01*
X174211Y94743D01*
X177234Y91720D01*
X177316Y91660D01*
X177394Y91593D01*
X177423Y91581D01*
X177447Y91563D01*
X177544Y91529D01*
X177639Y91489D01*
X177670Y91486D01*
X177699Y91475D01*
X177801Y91472D01*
X177903Y91461D01*
X177933Y91467D01*
X177964Y91466D01*
X178063Y91493D01*
X178164Y91513D01*
X178184Y91526D01*
X178221Y91536D01*
X178445Y91679D01*
X178470Y91708D01*
X178490Y91720D01*
X186937Y100168D01*
X186950Y100185D01*
X186966Y100198D01*
X187028Y100292D01*
X187095Y100382D01*
X187102Y100402D01*
X187113Y100419D01*
X187123Y100464D01*
X187182Y100633D01*
X187186Y100746D01*
X187197Y100796D01*
X187197Y109322D01*
X188239Y110364D01*
X202413Y110364D01*
X203545Y109232D01*
X203577Y109150D01*
X203597Y109127D01*
X203610Y109099D01*
X203680Y109024D01*
X203745Y108944D01*
X203771Y108927D01*
X203792Y108905D01*
X203881Y108854D01*
X203966Y108797D01*
X203990Y108791D01*
X204022Y108773D01*
X204282Y108715D01*
X204320Y108718D01*
X204343Y108713D01*
X208870Y108713D01*
X208890Y108716D01*
X208911Y108714D01*
X209022Y108736D01*
X209133Y108753D01*
X209151Y108762D01*
X209172Y108766D01*
X209211Y108790D01*
X209372Y108868D01*
X209454Y108945D01*
X209498Y108973D01*
X209746Y109221D01*
X213904Y109221D01*
X214006Y109236D01*
X214108Y109244D01*
X214136Y109256D01*
X214167Y109261D01*
X214259Y109305D01*
X214355Y109343D01*
X214378Y109363D01*
X214406Y109376D01*
X214481Y109446D01*
X214561Y109511D01*
X214578Y109537D01*
X214600Y109558D01*
X214651Y109647D01*
X214708Y109732D01*
X214714Y109756D01*
X214732Y109788D01*
X214790Y110048D01*
X214787Y110086D01*
X214792Y110109D01*
X214792Y131654D01*
X214785Y131705D01*
X214786Y131756D01*
X214765Y131836D01*
X214752Y131917D01*
X214730Y131963D01*
X214716Y132013D01*
X214672Y132082D01*
X214637Y132156D01*
X214602Y132194D01*
X214574Y132237D01*
X214511Y132290D01*
X214455Y132350D01*
X214411Y132376D01*
X214371Y132409D01*
X214296Y132442D01*
X214225Y132482D01*
X214174Y132493D01*
X214127Y132514D01*
X214045Y132522D01*
X213965Y132540D01*
X213914Y132536D01*
X213862Y132541D01*
X213782Y132525D01*
X213700Y132518D01*
X213652Y132499D01*
X213602Y132489D01*
X213558Y132461D01*
X213453Y132419D01*
X213314Y132306D01*
X213276Y132282D01*
X211295Y130301D01*
X207297Y130301D01*
X206161Y131437D01*
X206144Y131450D01*
X206131Y131466D01*
X206037Y131528D01*
X205947Y131595D01*
X205927Y131602D01*
X205910Y131613D01*
X205865Y131623D01*
X205696Y131682D01*
X205583Y131686D01*
X205533Y131697D01*
X198743Y131697D01*
X198708Y131692D01*
X198674Y131695D01*
X198577Y131672D01*
X198480Y131657D01*
X198449Y131642D01*
X198415Y131635D01*
X198329Y131585D01*
X198240Y131542D01*
X198215Y131518D01*
X198185Y131501D01*
X198118Y131428D01*
X198046Y131360D01*
X198029Y131330D01*
X198006Y131305D01*
X197963Y131215D01*
X197914Y131130D01*
X197907Y131096D01*
X197892Y131065D01*
X197878Y130967D01*
X197856Y130870D01*
X197859Y130836D01*
X197854Y130801D01*
X197870Y130704D01*
X197878Y130605D01*
X197891Y130573D01*
X197896Y130539D01*
X197940Y130450D01*
X197977Y130358D01*
X197999Y130332D01*
X198014Y130301D01*
X198053Y130265D01*
X198145Y130152D01*
X198260Y130075D01*
X198299Y130040D01*
X198310Y130033D01*
X198783Y129560D01*
X199118Y128981D01*
X199291Y128335D01*
X199291Y123777D01*
X187639Y123777D01*
X187538Y123762D01*
X187435Y123753D01*
X187407Y123742D01*
X187376Y123737D01*
X187284Y123693D01*
X187189Y123654D01*
X187165Y123635D01*
X187137Y123622D01*
X187062Y123552D01*
X186982Y123487D01*
X186965Y123461D01*
X186943Y123440D01*
X186892Y123351D01*
X186835Y123266D01*
X186830Y123242D01*
X186811Y123209D01*
X186753Y122950D01*
X186756Y122912D01*
X186751Y122889D01*
X186751Y121999D01*
X186749Y121999D01*
X186749Y122889D01*
X186734Y122990D01*
X186725Y123093D01*
X186714Y123121D01*
X186709Y123152D01*
X186665Y123244D01*
X186626Y123339D01*
X186607Y123363D01*
X186594Y123391D01*
X186524Y123466D01*
X186459Y123546D01*
X186433Y123563D01*
X186412Y123585D01*
X186323Y123636D01*
X186238Y123693D01*
X186214Y123698D01*
X186181Y123717D01*
X185922Y123775D01*
X185884Y123772D01*
X185861Y123777D01*
X174209Y123777D01*
X174209Y128335D01*
X174382Y128981D01*
X174717Y129560D01*
X175190Y130033D01*
X175201Y130040D01*
X175228Y130061D01*
X175260Y130076D01*
X175332Y130144D01*
X175409Y130205D01*
X175429Y130234D01*
X175454Y130258D01*
X175503Y130344D01*
X175559Y130425D01*
X175569Y130458D01*
X175586Y130488D01*
X175607Y130585D01*
X175636Y130680D01*
X175636Y130714D01*
X175644Y130748D01*
X175636Y130846D01*
X175635Y130945D01*
X175625Y130978D01*
X175622Y131013D01*
X175585Y131105D01*
X175556Y131199D01*
X175536Y131227D01*
X175523Y131260D01*
X175461Y131336D01*
X175404Y131418D01*
X175377Y131439D01*
X175355Y131466D01*
X175273Y131521D01*
X175195Y131582D01*
X175163Y131594D01*
X175134Y131613D01*
X175083Y131625D01*
X174947Y131677D01*
X174809Y131686D01*
X174757Y131697D01*
X171911Y131697D01*
X171891Y131694D01*
X171870Y131696D01*
X171759Y131674D01*
X171648Y131657D01*
X171630Y131648D01*
X171609Y131644D01*
X171570Y131620D01*
X171409Y131542D01*
X171327Y131465D01*
X171283Y131437D01*
X169893Y130047D01*
X165895Y130047D01*
X164505Y131437D01*
X164488Y131450D01*
X164475Y131466D01*
X164381Y131528D01*
X164291Y131595D01*
X164271Y131602D01*
X164254Y131613D01*
X164209Y131623D01*
X164040Y131682D01*
X163927Y131686D01*
X163877Y131697D01*
X159331Y131697D01*
X159310Y131694D01*
X159289Y131696D01*
X159179Y131674D01*
X159068Y131657D01*
X159049Y131648D01*
X159028Y131644D01*
X158990Y131620D01*
X158829Y131542D01*
X158746Y131465D01*
X158703Y131437D01*
X157487Y130221D01*
X142513Y130221D01*
X141471Y131263D01*
X141471Y138737D01*
X142106Y139372D01*
X142167Y139455D01*
X142234Y139533D01*
X142246Y139561D01*
X142264Y139586D01*
X142298Y139683D01*
X142338Y139777D01*
X142341Y139808D01*
X142351Y139837D01*
X142355Y139940D01*
X142366Y140042D01*
X142360Y140072D01*
X142361Y140103D01*
X142334Y140202D01*
X142314Y140302D01*
X142301Y140323D01*
X142291Y140359D01*
X142148Y140583D01*
X142119Y140608D01*
X142106Y140628D01*
X141471Y141263D01*
X141471Y148737D01*
X142106Y149372D01*
X142136Y149412D01*
X142167Y149441D01*
X142191Y149482D01*
X142234Y149533D01*
X142246Y149561D01*
X142264Y149586D01*
X142286Y149649D01*
X142299Y149672D01*
X142306Y149701D01*
X142338Y149777D01*
X142341Y149808D01*
X142351Y149837D01*
X142354Y149920D01*
X142357Y149931D01*
X142356Y149946D01*
X142366Y150042D01*
X142360Y150072D01*
X142361Y150103D01*
X142335Y150195D01*
X142335Y150196D01*
X142335Y150198D01*
X142334Y150202D01*
X142314Y150302D01*
X142301Y150323D01*
X142291Y150359D01*
X142148Y150583D01*
X142119Y150608D01*
X142106Y150628D01*
X141297Y151437D01*
X141281Y151450D01*
X141267Y151466D01*
X141173Y151528D01*
X141083Y151595D01*
X141064Y151602D01*
X141046Y151613D01*
X141001Y151623D01*
X140832Y151682D01*
X140720Y151686D01*
X140669Y151697D01*
X134518Y151697D01*
X134497Y151694D01*
X134476Y151696D01*
X134366Y151674D01*
X134255Y151657D01*
X134236Y151648D01*
X134216Y151644D01*
X134177Y151620D01*
X134016Y151542D01*
X133933Y151465D01*
X133890Y151437D01*
X133357Y150904D01*
X133345Y150887D01*
X133328Y150874D01*
X133266Y150780D01*
X133199Y150690D01*
X133192Y150670D01*
X133181Y150653D01*
X133171Y150608D01*
X133112Y150439D01*
X133108Y150326D01*
X133097Y150276D01*
X133097Y119592D01*
X133100Y119571D01*
X133098Y119550D01*
X133120Y119440D01*
X133137Y119329D01*
X133146Y119310D01*
X133150Y119290D01*
X133174Y119251D01*
X133252Y119090D01*
X133329Y119007D01*
X133357Y118964D01*
X168875Y83446D01*
X168892Y83433D01*
X168905Y83417D01*
X168999Y83355D01*
X169089Y83288D01*
X169109Y83281D01*
X169126Y83270D01*
X169171Y83260D01*
X169340Y83201D01*
X169453Y83197D01*
X169503Y83186D01*
X169587Y83186D01*
X169608Y83189D01*
G37*
%LPC*%
G36*
X16304Y257666D02*
X16304Y257666D01*
X12616Y259194D01*
X9794Y262016D01*
X8266Y265704D01*
X8266Y269696D01*
X9794Y273384D01*
X12616Y276206D01*
X16304Y277734D01*
X20296Y277734D01*
X23984Y276206D01*
X26806Y273384D01*
X28334Y269696D01*
X28334Y265704D01*
X26806Y262016D01*
X23984Y259194D01*
X20296Y257666D01*
X16304Y257666D01*
G37*
%LPD*%
%LPC*%
G36*
X41704Y232266D02*
X41704Y232266D01*
X38016Y233794D01*
X35194Y236616D01*
X33666Y240304D01*
X33666Y244296D01*
X35194Y247984D01*
X38016Y250806D01*
X41704Y252334D01*
X45696Y252334D01*
X49384Y250806D01*
X52206Y247984D01*
X53734Y244296D01*
X53734Y240304D01*
X52206Y236616D01*
X49384Y233794D01*
X45696Y232266D01*
X41704Y232266D01*
G37*
%LPD*%
%LPC*%
G36*
X16304Y206866D02*
X16304Y206866D01*
X12616Y208394D01*
X9794Y211216D01*
X8266Y214904D01*
X8266Y218896D01*
X9794Y222584D01*
X12616Y225406D01*
X16304Y226934D01*
X20296Y226934D01*
X23984Y225406D01*
X26806Y222584D01*
X28334Y218896D01*
X28334Y214904D01*
X26806Y211216D01*
X23984Y208394D01*
X20296Y206866D01*
X16304Y206866D01*
G37*
%LPD*%
%LPC*%
G36*
X16304Y181466D02*
X16304Y181466D01*
X12616Y182994D01*
X9794Y185816D01*
X8266Y189504D01*
X8266Y193496D01*
X9794Y197184D01*
X12616Y200006D01*
X16304Y201534D01*
X20296Y201534D01*
X23984Y200006D01*
X26806Y197184D01*
X28334Y193496D01*
X28334Y189504D01*
X26806Y185816D01*
X23984Y182994D01*
X20296Y181466D01*
X16304Y181466D01*
G37*
%LPD*%
%LPC*%
G36*
X41704Y460866D02*
X41704Y460866D01*
X38016Y462394D01*
X35194Y465216D01*
X33666Y468904D01*
X33666Y472896D01*
X35194Y476584D01*
X38016Y479406D01*
X41704Y480934D01*
X45696Y480934D01*
X49384Y479406D01*
X52206Y476584D01*
X53734Y472896D01*
X53734Y468904D01*
X52206Y465216D01*
X49384Y462394D01*
X45696Y460866D01*
X41704Y460866D01*
G37*
%LPD*%
%LPC*%
G36*
X16304Y460866D02*
X16304Y460866D01*
X12616Y462394D01*
X9794Y465216D01*
X8266Y468904D01*
X8266Y472896D01*
X9794Y476584D01*
X12616Y479406D01*
X16304Y480934D01*
X20296Y480934D01*
X23984Y479406D01*
X26806Y476584D01*
X28334Y472896D01*
X28334Y468904D01*
X26806Y465216D01*
X23984Y462394D01*
X20296Y460866D01*
X16304Y460866D01*
G37*
%LPD*%
%LPC*%
G36*
X41704Y181466D02*
X41704Y181466D01*
X38016Y182994D01*
X35194Y185816D01*
X33666Y189504D01*
X33666Y193496D01*
X35194Y197184D01*
X38016Y200006D01*
X41704Y201534D01*
X45696Y201534D01*
X49384Y200006D01*
X52206Y197184D01*
X53734Y193496D01*
X53734Y189504D01*
X52206Y185816D01*
X49384Y182994D01*
X45696Y181466D01*
X41704Y181466D01*
G37*
%LPD*%
%LPC*%
G36*
X41704Y29066D02*
X41704Y29066D01*
X38016Y30594D01*
X35194Y33416D01*
X33666Y37104D01*
X33666Y41096D01*
X35194Y44784D01*
X38016Y47606D01*
X41704Y49134D01*
X45696Y49134D01*
X49384Y47606D01*
X52206Y44784D01*
X53734Y41096D01*
X53734Y37104D01*
X52206Y33416D01*
X49384Y30594D01*
X45696Y29066D01*
X41704Y29066D01*
G37*
%LPD*%
%LPC*%
G36*
X41704Y156066D02*
X41704Y156066D01*
X38016Y157594D01*
X35194Y160416D01*
X33666Y164104D01*
X33666Y168096D01*
X35194Y171784D01*
X38016Y174606D01*
X41704Y176134D01*
X45696Y176134D01*
X49384Y174606D01*
X52206Y171784D01*
X53734Y168096D01*
X53734Y164104D01*
X52206Y160416D01*
X49384Y157594D01*
X45696Y156066D01*
X41704Y156066D01*
G37*
%LPD*%
%LPC*%
G36*
X16304Y130666D02*
X16304Y130666D01*
X12616Y132194D01*
X9794Y135016D01*
X8266Y138704D01*
X8266Y142696D01*
X9794Y146384D01*
X12616Y149206D01*
X16304Y150734D01*
X20296Y150734D01*
X23984Y149206D01*
X26806Y146384D01*
X28334Y142696D01*
X28334Y138704D01*
X26806Y135016D01*
X23984Y132194D01*
X20296Y130666D01*
X16304Y130666D01*
G37*
%LPD*%
%LPC*%
G36*
X41704Y333866D02*
X41704Y333866D01*
X38016Y335394D01*
X35194Y338216D01*
X33666Y341904D01*
X33666Y345896D01*
X35194Y349584D01*
X38016Y352406D01*
X41704Y353934D01*
X45696Y353934D01*
X49384Y352406D01*
X52206Y349584D01*
X53734Y345896D01*
X53734Y341904D01*
X52206Y338216D01*
X49384Y335394D01*
X45696Y333866D01*
X41704Y333866D01*
G37*
%LPD*%
%LPC*%
G36*
X41704Y435466D02*
X41704Y435466D01*
X38016Y436994D01*
X35194Y439816D01*
X33666Y443504D01*
X33666Y447496D01*
X35194Y451184D01*
X38016Y454006D01*
X41704Y455534D01*
X45696Y455534D01*
X49384Y454006D01*
X52206Y451184D01*
X53734Y447496D01*
X53734Y443504D01*
X52206Y439816D01*
X49384Y436994D01*
X45696Y435466D01*
X41704Y435466D01*
G37*
%LPD*%
%LPC*%
G36*
X16304Y435466D02*
X16304Y435466D01*
X12616Y436994D01*
X9794Y439816D01*
X8266Y443504D01*
X8266Y447496D01*
X9794Y451184D01*
X12616Y454006D01*
X16304Y455534D01*
X20296Y455534D01*
X23984Y454006D01*
X26806Y451184D01*
X28334Y447496D01*
X28334Y443504D01*
X26806Y439816D01*
X23984Y436994D01*
X20296Y435466D01*
X16304Y435466D01*
G37*
%LPD*%
%LPC*%
G36*
X41704Y130666D02*
X41704Y130666D01*
X38016Y132194D01*
X35194Y135016D01*
X33666Y138704D01*
X33666Y142696D01*
X35194Y146384D01*
X38016Y149206D01*
X41704Y150734D01*
X45696Y150734D01*
X49384Y149206D01*
X52206Y146384D01*
X53734Y142696D01*
X53734Y138704D01*
X52206Y135016D01*
X49384Y132194D01*
X45696Y130666D01*
X41704Y130666D01*
G37*
%LPD*%
%LPC*%
G36*
X16304Y105266D02*
X16304Y105266D01*
X12616Y106794D01*
X9794Y109616D01*
X8266Y113304D01*
X8266Y117296D01*
X9794Y120984D01*
X12616Y123806D01*
X16304Y125334D01*
X20296Y125334D01*
X23984Y123806D01*
X26806Y120984D01*
X28334Y117296D01*
X28334Y113304D01*
X26806Y109616D01*
X23984Y106794D01*
X20296Y105266D01*
X16304Y105266D01*
G37*
%LPD*%
%LPC*%
G36*
X41704Y410066D02*
X41704Y410066D01*
X38016Y411594D01*
X35194Y414416D01*
X33666Y418104D01*
X33666Y422096D01*
X35194Y425784D01*
X38016Y428606D01*
X41704Y430134D01*
X45696Y430134D01*
X49384Y428606D01*
X52206Y425784D01*
X53734Y422096D01*
X53734Y418104D01*
X52206Y414416D01*
X49384Y411594D01*
X45696Y410066D01*
X41704Y410066D01*
G37*
%LPD*%
%LPC*%
G36*
X16304Y308466D02*
X16304Y308466D01*
X12616Y309994D01*
X9794Y312816D01*
X8266Y316504D01*
X8266Y320496D01*
X9794Y324184D01*
X12616Y327006D01*
X16304Y328534D01*
X20296Y328534D01*
X23984Y327006D01*
X26806Y324184D01*
X28334Y320496D01*
X28334Y316504D01*
X26806Y312816D01*
X23984Y309994D01*
X20296Y308466D01*
X16304Y308466D01*
G37*
%LPD*%
%LPC*%
G36*
X41704Y79866D02*
X41704Y79866D01*
X38016Y81394D01*
X35194Y84216D01*
X33666Y87904D01*
X33666Y91896D01*
X35194Y95584D01*
X38016Y98406D01*
X41704Y99934D01*
X45696Y99934D01*
X49384Y98406D01*
X52206Y95584D01*
X53734Y91896D01*
X53734Y87904D01*
X52206Y84216D01*
X49384Y81394D01*
X45696Y79866D01*
X41704Y79866D01*
G37*
%LPD*%
%LPC*%
G36*
X16304Y79866D02*
X16304Y79866D01*
X12616Y81394D01*
X9794Y84216D01*
X8266Y87904D01*
X8266Y91896D01*
X9794Y95584D01*
X12616Y98406D01*
X16304Y99934D01*
X20296Y99934D01*
X23984Y98406D01*
X26806Y95584D01*
X28334Y91896D01*
X28334Y87904D01*
X26806Y84216D01*
X23984Y81394D01*
X20296Y79866D01*
X16304Y79866D01*
G37*
%LPD*%
%LPC*%
G36*
X41704Y54466D02*
X41704Y54466D01*
X38016Y55994D01*
X35194Y58816D01*
X33666Y62504D01*
X33666Y66496D01*
X35194Y70184D01*
X38016Y73006D01*
X41704Y74534D01*
X45696Y74534D01*
X49384Y73006D01*
X52206Y70184D01*
X53734Y66496D01*
X53734Y62504D01*
X52206Y58816D01*
X49384Y55994D01*
X45696Y54466D01*
X41704Y54466D01*
G37*
%LPD*%
%LPC*%
G36*
X16304Y29066D02*
X16304Y29066D01*
X12616Y30594D01*
X9794Y33416D01*
X8266Y37104D01*
X8266Y41096D01*
X9794Y44784D01*
X12616Y47606D01*
X16304Y49134D01*
X20296Y49134D01*
X23984Y47606D01*
X26806Y44784D01*
X28334Y41096D01*
X28334Y37104D01*
X26806Y33416D01*
X23984Y30594D01*
X20296Y29066D01*
X16304Y29066D01*
G37*
%LPD*%
%LPC*%
G36*
X41704Y384666D02*
X41704Y384666D01*
X38016Y386194D01*
X35194Y389016D01*
X33666Y392704D01*
X33666Y396696D01*
X35194Y400384D01*
X38016Y403206D01*
X41704Y404734D01*
X45696Y404734D01*
X49384Y403206D01*
X52206Y400384D01*
X53734Y396696D01*
X53734Y392704D01*
X52206Y389016D01*
X49384Y386194D01*
X45696Y384666D01*
X41704Y384666D01*
G37*
%LPD*%
%LPC*%
G36*
X16304Y384666D02*
X16304Y384666D01*
X12616Y386194D01*
X9794Y389016D01*
X8266Y392704D01*
X8266Y396696D01*
X9794Y400384D01*
X12616Y403206D01*
X16304Y404734D01*
X20296Y404734D01*
X23984Y403206D01*
X26806Y400384D01*
X28334Y396696D01*
X28334Y392704D01*
X26806Y389016D01*
X23984Y386194D01*
X20296Y384666D01*
X16304Y384666D01*
G37*
%LPD*%
%LPC*%
G36*
X16304Y283066D02*
X16304Y283066D01*
X12616Y284594D01*
X9794Y287416D01*
X8266Y291104D01*
X8266Y295096D01*
X9794Y298784D01*
X12616Y301606D01*
X16304Y303134D01*
X20296Y303134D01*
X23984Y301606D01*
X26806Y298784D01*
X28334Y295096D01*
X28334Y291104D01*
X26806Y287416D01*
X23984Y284594D01*
X20296Y283066D01*
X16304Y283066D01*
G37*
%LPD*%
%LPC*%
G36*
X41704Y283066D02*
X41704Y283066D01*
X38016Y284594D01*
X35194Y287416D01*
X33666Y291104D01*
X33666Y295096D01*
X35194Y298784D01*
X38016Y301606D01*
X41704Y303134D01*
X45696Y303134D01*
X49384Y301606D01*
X52206Y298784D01*
X53734Y295096D01*
X53734Y291104D01*
X52206Y287416D01*
X49384Y284594D01*
X45696Y283066D01*
X41704Y283066D01*
G37*
%LPD*%
%LPC*%
G36*
X16304Y333866D02*
X16304Y333866D01*
X12616Y335394D01*
X9794Y338216D01*
X8266Y341904D01*
X8266Y345896D01*
X9794Y349584D01*
X12616Y352406D01*
X16304Y353934D01*
X20296Y353934D01*
X23984Y352406D01*
X26806Y349584D01*
X28334Y345896D01*
X28334Y341904D01*
X26806Y338216D01*
X23984Y335394D01*
X20296Y333866D01*
X16304Y333866D01*
G37*
%LPD*%
%LPC*%
G36*
X41704Y257666D02*
X41704Y257666D01*
X38016Y259194D01*
X35194Y262016D01*
X33666Y265704D01*
X33666Y269696D01*
X35194Y273384D01*
X38016Y276206D01*
X41704Y277734D01*
X45696Y277734D01*
X49384Y276206D01*
X52206Y273384D01*
X53734Y269696D01*
X53734Y265704D01*
X52206Y262016D01*
X49384Y259194D01*
X45696Y257666D01*
X41704Y257666D01*
G37*
%LPD*%
%LPC*%
G36*
X41704Y359266D02*
X41704Y359266D01*
X38016Y360794D01*
X35194Y363616D01*
X33666Y367304D01*
X33666Y371296D01*
X35194Y374984D01*
X38016Y377806D01*
X41704Y379334D01*
X45696Y379334D01*
X49384Y377806D01*
X52206Y374984D01*
X53734Y371296D01*
X53734Y367304D01*
X52206Y363616D01*
X49384Y360794D01*
X45696Y359266D01*
X41704Y359266D01*
G37*
%LPD*%
%LPC*%
G36*
X45477Y485504D02*
X45477Y485504D01*
X45477Y494523D01*
X54496Y494523D01*
X54496Y487710D01*
X54323Y487064D01*
X53988Y486485D01*
X53515Y486012D01*
X52936Y485677D01*
X52290Y485504D01*
X45477Y485504D01*
G37*
%LPD*%
%LPC*%
G36*
X35110Y485504D02*
X35110Y485504D01*
X34464Y485677D01*
X33885Y486012D01*
X33412Y486485D01*
X33077Y487064D01*
X32904Y487710D01*
X32904Y494523D01*
X41923Y494523D01*
X41923Y485504D01*
X35110Y485504D01*
G37*
%LPD*%
%LPC*%
G36*
X188527Y479777D02*
X188527Y479777D01*
X188527Y486541D01*
X197085Y486541D01*
X197731Y486368D01*
X198310Y486033D01*
X198783Y485560D01*
X199118Y484981D01*
X199291Y484335D01*
X199291Y479777D01*
X188527Y479777D01*
G37*
%LPD*%
%LPC*%
G36*
X188527Y179777D02*
X188527Y179777D01*
X188527Y186541D01*
X197085Y186541D01*
X197731Y186368D01*
X198310Y186033D01*
X198783Y185560D01*
X199118Y184981D01*
X199291Y184335D01*
X199291Y179777D01*
X188527Y179777D01*
G37*
%LPD*%
%LPC*%
G36*
X188527Y379777D02*
X188527Y379777D01*
X188527Y386541D01*
X197085Y386541D01*
X197731Y386368D01*
X198310Y386033D01*
X198783Y385560D01*
X199118Y384981D01*
X199291Y384335D01*
X199291Y379777D01*
X188527Y379777D01*
G37*
%LPD*%
%LPC*%
G36*
X188527Y279777D02*
X188527Y279777D01*
X188527Y286541D01*
X197085Y286541D01*
X197731Y286368D01*
X198310Y286033D01*
X198783Y285560D01*
X199118Y284981D01*
X199291Y284335D01*
X199291Y279777D01*
X188527Y279777D01*
G37*
%LPD*%
%LPC*%
G36*
X174209Y479777D02*
X174209Y479777D01*
X174209Y484335D01*
X174382Y484981D01*
X174717Y485560D01*
X175190Y486033D01*
X175769Y486368D01*
X176415Y486541D01*
X184973Y486541D01*
X184973Y479777D01*
X174209Y479777D01*
G37*
%LPD*%
%LPC*%
G36*
X174209Y179777D02*
X174209Y179777D01*
X174209Y184335D01*
X174382Y184981D01*
X174717Y185560D01*
X175190Y186033D01*
X175769Y186368D01*
X176415Y186541D01*
X184973Y186541D01*
X184973Y179777D01*
X174209Y179777D01*
G37*
%LPD*%
%LPC*%
G36*
X174209Y379777D02*
X174209Y379777D01*
X174209Y384335D01*
X174382Y384981D01*
X174717Y385560D01*
X175190Y386033D01*
X175769Y386368D01*
X176415Y386541D01*
X184973Y386541D01*
X184973Y379777D01*
X174209Y379777D01*
G37*
%LPD*%
%LPC*%
G36*
X174209Y279777D02*
X174209Y279777D01*
X174209Y284335D01*
X174382Y284981D01*
X174717Y285560D01*
X175190Y286033D01*
X175769Y286368D01*
X176415Y286541D01*
X184973Y286541D01*
X184973Y279777D01*
X174209Y279777D01*
G37*
%LPD*%
%LPC*%
G36*
X188527Y469459D02*
X188527Y469459D01*
X188527Y476223D01*
X199291Y476223D01*
X199291Y471665D01*
X199118Y471019D01*
X198783Y470440D01*
X198310Y469967D01*
X197731Y469632D01*
X197085Y469459D01*
X188527Y469459D01*
G37*
%LPD*%
%LPC*%
G36*
X188527Y213459D02*
X188527Y213459D01*
X188527Y220223D01*
X199291Y220223D01*
X199291Y215665D01*
X199118Y215019D01*
X198783Y214440D01*
X198310Y213967D01*
X197731Y213632D01*
X197085Y213459D01*
X188527Y213459D01*
G37*
%LPD*%
%LPC*%
G36*
X188527Y413459D02*
X188527Y413459D01*
X188527Y420223D01*
X199291Y420223D01*
X199291Y415665D01*
X199118Y415019D01*
X198783Y414440D01*
X198310Y413967D01*
X197731Y413632D01*
X197085Y413459D01*
X188527Y413459D01*
G37*
%LPD*%
%LPC*%
G36*
X188527Y313459D02*
X188527Y313459D01*
X188527Y320223D01*
X199291Y320223D01*
X199291Y315665D01*
X199118Y315019D01*
X198783Y314440D01*
X198310Y313967D01*
X197731Y313632D01*
X197085Y313459D01*
X188527Y313459D01*
G37*
%LPD*%
%LPC*%
G36*
X188527Y269459D02*
X188527Y269459D01*
X188527Y276223D01*
X199291Y276223D01*
X199291Y271665D01*
X199118Y271019D01*
X198783Y270440D01*
X198310Y269967D01*
X197731Y269632D01*
X197085Y269459D01*
X188527Y269459D01*
G37*
%LPD*%
%LPC*%
G36*
X188527Y113459D02*
X188527Y113459D01*
X188527Y120223D01*
X199291Y120223D01*
X199291Y115665D01*
X199118Y115019D01*
X198783Y114440D01*
X198310Y113967D01*
X197731Y113632D01*
X197085Y113459D01*
X188527Y113459D01*
G37*
%LPD*%
%LPC*%
G36*
X188527Y369459D02*
X188527Y369459D01*
X188527Y376223D01*
X199291Y376223D01*
X199291Y371665D01*
X199118Y371019D01*
X198783Y370440D01*
X198310Y369967D01*
X197731Y369632D01*
X197085Y369459D01*
X188527Y369459D01*
G37*
%LPD*%
%LPC*%
G36*
X188527Y169459D02*
X188527Y169459D01*
X188527Y176223D01*
X199291Y176223D01*
X199291Y171665D01*
X199118Y171019D01*
X198783Y170440D01*
X198310Y169967D01*
X197731Y169632D01*
X197085Y169459D01*
X188527Y169459D01*
G37*
%LPD*%
%LPC*%
G36*
X176415Y469459D02*
X176415Y469459D01*
X175769Y469632D01*
X175190Y469967D01*
X174717Y470440D01*
X174382Y471019D01*
X174209Y471665D01*
X174209Y476223D01*
X184973Y476223D01*
X184973Y469459D01*
X176415Y469459D01*
G37*
%LPD*%
%LPC*%
G36*
X176415Y213459D02*
X176415Y213459D01*
X175769Y213632D01*
X175190Y213967D01*
X174717Y214440D01*
X174382Y215019D01*
X174209Y215665D01*
X174209Y220223D01*
X184973Y220223D01*
X184973Y213459D01*
X176415Y213459D01*
G37*
%LPD*%
%LPC*%
G36*
X176415Y413459D02*
X176415Y413459D01*
X175769Y413632D01*
X175190Y413967D01*
X174717Y414440D01*
X174382Y415019D01*
X174209Y415665D01*
X174209Y420223D01*
X184973Y420223D01*
X184973Y413459D01*
X176415Y413459D01*
G37*
%LPD*%
%LPC*%
G36*
X176415Y313459D02*
X176415Y313459D01*
X175769Y313632D01*
X175190Y313967D01*
X174717Y314440D01*
X174382Y315019D01*
X174209Y315665D01*
X174209Y320223D01*
X184973Y320223D01*
X184973Y313459D01*
X176415Y313459D01*
G37*
%LPD*%
%LPC*%
G36*
X176415Y269459D02*
X176415Y269459D01*
X175769Y269632D01*
X175190Y269967D01*
X174717Y270440D01*
X174382Y271019D01*
X174209Y271665D01*
X174209Y276223D01*
X184973Y276223D01*
X184973Y269459D01*
X176415Y269459D01*
G37*
%LPD*%
%LPC*%
G36*
X176415Y169459D02*
X176415Y169459D01*
X175769Y169632D01*
X175190Y169967D01*
X174717Y170440D01*
X174382Y171019D01*
X174209Y171665D01*
X174209Y176223D01*
X184973Y176223D01*
X184973Y169459D01*
X176415Y169459D01*
G37*
%LPD*%
%LPC*%
G36*
X176415Y369459D02*
X176415Y369459D01*
X175769Y369632D01*
X175190Y369967D01*
X174717Y370440D01*
X174382Y371019D01*
X174209Y371665D01*
X174209Y376223D01*
X184973Y376223D01*
X184973Y369459D01*
X176415Y369459D01*
G37*
%LPD*%
%LPC*%
G36*
X176415Y113459D02*
X176415Y113459D01*
X175769Y113632D01*
X175190Y113967D01*
X174717Y114440D01*
X174382Y115019D01*
X174209Y115665D01*
X174209Y120223D01*
X184973Y120223D01*
X184973Y113459D01*
X176415Y113459D01*
G37*
%LPD*%
%LPC*%
G36*
X20077Y66277D02*
X20077Y66277D01*
X20077Y75149D01*
X20828Y75030D01*
X22444Y74505D01*
X23958Y73733D01*
X25333Y72735D01*
X26535Y71533D01*
X27533Y70158D01*
X28305Y68644D01*
X28830Y67028D01*
X28949Y66277D01*
X20077Y66277D01*
G37*
%LPD*%
%LPC*%
G36*
X20077Y371077D02*
X20077Y371077D01*
X20077Y379949D01*
X20828Y379830D01*
X22444Y379305D01*
X23958Y378533D01*
X25333Y377535D01*
X26535Y376333D01*
X27533Y374958D01*
X28305Y373444D01*
X28830Y371828D01*
X28949Y371077D01*
X20077Y371077D01*
G37*
%LPD*%
%LPC*%
G36*
X45477Y320277D02*
X45477Y320277D01*
X45477Y329149D01*
X46228Y329030D01*
X47844Y328505D01*
X49358Y327733D01*
X50733Y326735D01*
X51935Y325533D01*
X52933Y324158D01*
X53705Y322644D01*
X54230Y321028D01*
X54349Y320277D01*
X45477Y320277D01*
G37*
%LPD*%
%LPC*%
G36*
X20077Y421877D02*
X20077Y421877D01*
X20077Y430749D01*
X20828Y430630D01*
X22444Y430105D01*
X23958Y429333D01*
X25333Y428335D01*
X26535Y427133D01*
X27533Y425758D01*
X28305Y424244D01*
X28830Y422628D01*
X28949Y421877D01*
X20077Y421877D01*
G37*
%LPD*%
%LPC*%
G36*
X20077Y167877D02*
X20077Y167877D01*
X20077Y176749D01*
X20828Y176630D01*
X22444Y176105D01*
X23958Y175333D01*
X25333Y174335D01*
X26535Y173133D01*
X27533Y171758D01*
X28305Y170244D01*
X28830Y168628D01*
X28949Y167877D01*
X20077Y167877D01*
G37*
%LPD*%
%LPC*%
G36*
X20077Y244077D02*
X20077Y244077D01*
X20077Y252949D01*
X20828Y252830D01*
X22444Y252305D01*
X23958Y251533D01*
X25333Y250535D01*
X26535Y249333D01*
X27533Y247958D01*
X28305Y246444D01*
X28830Y244828D01*
X28949Y244077D01*
X20077Y244077D01*
G37*
%LPD*%
%LPC*%
G36*
X20077Y62723D02*
X20077Y62723D01*
X28949Y62723D01*
X28830Y61972D01*
X28305Y60356D01*
X27533Y58842D01*
X26535Y57467D01*
X25333Y56265D01*
X23958Y55267D01*
X22444Y54495D01*
X20828Y53970D01*
X20077Y53851D01*
X20077Y62723D01*
G37*
%LPD*%
%LPC*%
G36*
X20077Y164323D02*
X20077Y164323D01*
X28949Y164323D01*
X28830Y163572D01*
X28305Y161956D01*
X27533Y160442D01*
X26535Y159067D01*
X25333Y157865D01*
X23958Y156867D01*
X22444Y156095D01*
X20828Y155570D01*
X20077Y155451D01*
X20077Y164323D01*
G37*
%LPD*%
%LPC*%
G36*
X7651Y421877D02*
X7651Y421877D01*
X7770Y422628D01*
X8295Y424244D01*
X9067Y425758D01*
X10065Y427133D01*
X11267Y428335D01*
X12642Y429333D01*
X14156Y430105D01*
X15772Y430630D01*
X16523Y430749D01*
X16523Y421877D01*
X7651Y421877D01*
G37*
%LPD*%
%LPC*%
G36*
X20077Y418323D02*
X20077Y418323D01*
X28949Y418323D01*
X28830Y417572D01*
X28305Y415956D01*
X27533Y414442D01*
X26535Y413067D01*
X25333Y411865D01*
X23958Y410867D01*
X22444Y410095D01*
X20828Y409570D01*
X20077Y409451D01*
X20077Y418323D01*
G37*
%LPD*%
%LPC*%
G36*
X33051Y320277D02*
X33051Y320277D01*
X33170Y321028D01*
X33695Y322644D01*
X34467Y324158D01*
X35465Y325533D01*
X36667Y326735D01*
X38042Y327733D01*
X39556Y328505D01*
X41172Y329030D01*
X41923Y329149D01*
X41923Y320277D01*
X33051Y320277D01*
G37*
%LPD*%
%LPC*%
G36*
X20077Y367523D02*
X20077Y367523D01*
X28949Y367523D01*
X28830Y366772D01*
X28305Y365156D01*
X27533Y363642D01*
X26535Y362267D01*
X25333Y361065D01*
X23958Y360067D01*
X22444Y359295D01*
X20828Y358770D01*
X20077Y358651D01*
X20077Y367523D01*
G37*
%LPD*%
%LPC*%
G36*
X45477Y316723D02*
X45477Y316723D01*
X54349Y316723D01*
X54230Y315972D01*
X53705Y314356D01*
X52933Y312842D01*
X51935Y311467D01*
X50733Y310265D01*
X49358Y309267D01*
X47844Y308495D01*
X46228Y307970D01*
X45477Y307851D01*
X45477Y316723D01*
G37*
%LPD*%
%LPC*%
G36*
X7651Y167877D02*
X7651Y167877D01*
X7770Y168628D01*
X8295Y170244D01*
X9067Y171758D01*
X10065Y173133D01*
X11267Y174335D01*
X12642Y175333D01*
X14156Y176105D01*
X15772Y176630D01*
X16523Y176749D01*
X16523Y167877D01*
X7651Y167877D01*
G37*
%LPD*%
%LPC*%
G36*
X33051Y117077D02*
X33051Y117077D01*
X33170Y117828D01*
X33695Y119444D01*
X34467Y120958D01*
X35465Y122333D01*
X36667Y123535D01*
X38042Y124533D01*
X39556Y125305D01*
X41172Y125830D01*
X41923Y125949D01*
X41923Y117077D01*
X33051Y117077D01*
G37*
%LPD*%
%LPC*%
G36*
X7651Y371077D02*
X7651Y371077D01*
X7770Y371828D01*
X8295Y373444D01*
X9067Y374958D01*
X10065Y376333D01*
X11267Y377535D01*
X12642Y378533D01*
X14156Y379305D01*
X15772Y379830D01*
X16523Y379949D01*
X16523Y371077D01*
X7651Y371077D01*
G37*
%LPD*%
%LPC*%
G36*
X7651Y244077D02*
X7651Y244077D01*
X7770Y244828D01*
X8295Y246444D01*
X9067Y247958D01*
X10065Y249333D01*
X11267Y250535D01*
X12642Y251533D01*
X14156Y252305D01*
X15772Y252830D01*
X16523Y252949D01*
X16523Y244077D01*
X7651Y244077D01*
G37*
%LPD*%
%LPC*%
G36*
X7651Y66277D02*
X7651Y66277D01*
X7770Y67028D01*
X8295Y68644D01*
X9067Y70158D01*
X10065Y71533D01*
X11267Y72735D01*
X12642Y73733D01*
X14156Y74505D01*
X15772Y75030D01*
X16523Y75149D01*
X16523Y66277D01*
X7651Y66277D01*
G37*
%LPD*%
%LPC*%
G36*
X20077Y240523D02*
X20077Y240523D01*
X28949Y240523D01*
X28830Y239772D01*
X28305Y238156D01*
X27533Y236642D01*
X26535Y235267D01*
X25333Y234065D01*
X23958Y233067D01*
X22444Y232295D01*
X20828Y231770D01*
X20077Y231651D01*
X20077Y240523D01*
G37*
%LPD*%
%LPC*%
G36*
X15772Y53970D02*
X15772Y53970D01*
X14156Y54495D01*
X12642Y55267D01*
X11267Y56265D01*
X10065Y57467D01*
X9067Y58842D01*
X8295Y60356D01*
X7770Y61972D01*
X7651Y62723D01*
X16523Y62723D01*
X16523Y53851D01*
X15772Y53970D01*
G37*
%LPD*%
%LPC*%
G36*
X15772Y409570D02*
X15772Y409570D01*
X14156Y410095D01*
X12642Y410867D01*
X11267Y411865D01*
X10065Y413067D01*
X9067Y414442D01*
X8295Y415956D01*
X7770Y417572D01*
X7651Y418323D01*
X16523Y418323D01*
X16523Y409451D01*
X15772Y409570D01*
G37*
%LPD*%
%LPC*%
G36*
X15772Y358770D02*
X15772Y358770D01*
X14156Y359295D01*
X12642Y360067D01*
X11267Y361065D01*
X10065Y362267D01*
X9067Y363642D01*
X8295Y365156D01*
X7770Y366772D01*
X7651Y367523D01*
X16523Y367523D01*
X16523Y358651D01*
X15772Y358770D01*
G37*
%LPD*%
%LPC*%
G36*
X15772Y155570D02*
X15772Y155570D01*
X14156Y156095D01*
X12642Y156867D01*
X11267Y157865D01*
X10065Y159067D01*
X9067Y160442D01*
X8295Y161956D01*
X7770Y163572D01*
X7651Y164323D01*
X16523Y164323D01*
X16523Y155451D01*
X15772Y155570D01*
G37*
%LPD*%
%LPC*%
G36*
X41172Y104770D02*
X41172Y104770D01*
X39556Y105295D01*
X38042Y106067D01*
X36667Y107065D01*
X35465Y108267D01*
X34467Y109642D01*
X33695Y111156D01*
X33170Y112772D01*
X33051Y113523D01*
X41923Y113523D01*
X41923Y104651D01*
X41172Y104770D01*
G37*
%LPD*%
%LPC*%
G36*
X41172Y307970D02*
X41172Y307970D01*
X39556Y308495D01*
X38042Y309267D01*
X36667Y310265D01*
X35465Y311467D01*
X34467Y312842D01*
X33695Y314356D01*
X33170Y315972D01*
X33051Y316723D01*
X41923Y316723D01*
X41923Y307851D01*
X41172Y307970D01*
G37*
%LPD*%
%LPC*%
G36*
X15772Y231770D02*
X15772Y231770D01*
X14156Y232295D01*
X12642Y233067D01*
X11267Y234065D01*
X10065Y235267D01*
X9067Y236642D01*
X8295Y238156D01*
X7770Y239772D01*
X7651Y240523D01*
X16523Y240523D01*
X16523Y231651D01*
X15772Y231770D01*
G37*
%LPD*%
%LPC*%
G36*
X151499Y166499D02*
X151499Y166499D01*
X151499Y170541D01*
X157085Y170541D01*
X157731Y170368D01*
X158310Y170033D01*
X158783Y169560D01*
X159118Y168981D01*
X159291Y168335D01*
X159291Y166499D01*
X151499Y166499D01*
G37*
%LPD*%
%LPC*%
G36*
X151499Y266499D02*
X151499Y266499D01*
X151499Y270541D01*
X157085Y270541D01*
X157731Y270368D01*
X158310Y270033D01*
X158783Y269560D01*
X159118Y268981D01*
X159291Y268335D01*
X159291Y266499D01*
X151499Y266499D01*
G37*
%LPD*%
%LPC*%
G36*
X151499Y366499D02*
X151499Y366499D01*
X151499Y370541D01*
X157085Y370541D01*
X157731Y370368D01*
X158310Y370033D01*
X158783Y369560D01*
X159118Y368981D01*
X159291Y368335D01*
X159291Y366499D01*
X151499Y366499D01*
G37*
%LPD*%
%LPC*%
G36*
X151499Y466499D02*
X151499Y466499D01*
X151499Y470541D01*
X157085Y470541D01*
X157731Y470368D01*
X158310Y470033D01*
X158783Y469560D01*
X159118Y468981D01*
X159291Y468335D01*
X159291Y466499D01*
X151499Y466499D01*
G37*
%LPD*%
%LPC*%
G36*
X140709Y466499D02*
X140709Y466499D01*
X140709Y468335D01*
X140882Y468981D01*
X141217Y469560D01*
X141690Y470033D01*
X142269Y470368D01*
X142915Y470541D01*
X148501Y470541D01*
X148501Y466499D01*
X140709Y466499D01*
G37*
%LPD*%
%LPC*%
G36*
X140709Y166499D02*
X140709Y166499D01*
X140709Y168335D01*
X140882Y168981D01*
X141217Y169560D01*
X141690Y170033D01*
X142269Y170368D01*
X142915Y170541D01*
X148501Y170541D01*
X148501Y166499D01*
X140709Y166499D01*
G37*
%LPD*%
%LPC*%
G36*
X140709Y266499D02*
X140709Y266499D01*
X140709Y268335D01*
X140882Y268981D01*
X141217Y269560D01*
X141690Y270033D01*
X142269Y270368D01*
X142915Y270541D01*
X148501Y270541D01*
X148501Y266499D01*
X140709Y266499D01*
G37*
%LPD*%
%LPC*%
G36*
X140709Y366499D02*
X140709Y366499D01*
X140709Y368335D01*
X140882Y368981D01*
X141217Y369560D01*
X141690Y370033D01*
X142269Y370368D01*
X142915Y370541D01*
X148501Y370541D01*
X148501Y366499D01*
X140709Y366499D01*
G37*
%LPD*%
%LPC*%
G36*
X18299Y166099D02*
X18299Y166099D01*
X18299Y166101D01*
X18301Y166101D01*
X18301Y166099D01*
X18299Y166099D01*
G37*
%LPD*%
%LPC*%
G36*
X18299Y242299D02*
X18299Y242299D01*
X18299Y242301D01*
X18301Y242301D01*
X18301Y242299D01*
X18299Y242299D01*
G37*
%LPD*%
%LPC*%
G36*
X18299Y64499D02*
X18299Y64499D01*
X18299Y64501D01*
X18301Y64501D01*
X18301Y64499D01*
X18299Y64499D01*
G37*
%LPD*%
%LPC*%
G36*
X18299Y420099D02*
X18299Y420099D01*
X18299Y420101D01*
X18301Y420101D01*
X18301Y420099D01*
X18299Y420099D01*
G37*
%LPD*%
%LPC*%
G36*
X43699Y318499D02*
X43699Y318499D01*
X43699Y318501D01*
X43701Y318501D01*
X43701Y318499D01*
X43699Y318499D01*
G37*
%LPD*%
%LPC*%
G36*
X18299Y369299D02*
X18299Y369299D01*
X18299Y369301D01*
X18301Y369301D01*
X18301Y369299D01*
X18299Y369299D01*
G37*
%LPD*%
%LPC*%
G36*
X186749Y377999D02*
X186749Y377999D01*
X186749Y378001D01*
X186751Y378001D01*
X186751Y377999D01*
X186749Y377999D01*
G37*
%LPD*%
%LPC*%
G36*
X186749Y177999D02*
X186749Y177999D01*
X186749Y178001D01*
X186751Y178001D01*
X186751Y177999D01*
X186749Y177999D01*
G37*
%LPD*%
%LPC*%
G36*
X186749Y277999D02*
X186749Y277999D01*
X186749Y278001D01*
X186751Y278001D01*
X186751Y277999D01*
X186749Y277999D01*
G37*
%LPD*%
%LPC*%
G36*
X186749Y477999D02*
X186749Y477999D01*
X186749Y478001D01*
X186751Y478001D01*
X186751Y477999D01*
X186749Y477999D01*
G37*
%LPD*%
D10*
X43700Y496300D03*
D11*
X43700Y470900D03*
X43700Y445500D03*
X43700Y420100D03*
X43700Y394700D03*
X43700Y369300D03*
X43700Y343900D03*
X43700Y318500D03*
X43700Y293100D03*
X43700Y267700D03*
X43700Y242300D03*
X43700Y216900D03*
X43700Y191500D03*
X43700Y166100D03*
X43700Y140700D03*
X43700Y115300D03*
X43700Y89900D03*
X43700Y64500D03*
X43700Y39100D03*
X43700Y13700D03*
X18300Y13700D03*
X18300Y39100D03*
X18300Y64500D03*
X18300Y89900D03*
X18300Y115300D03*
X18300Y140700D03*
X18300Y166100D03*
X18300Y191500D03*
X18300Y216900D03*
X18300Y242300D03*
X18300Y267700D03*
X18300Y293100D03*
X18300Y318500D03*
X18300Y343900D03*
X18300Y369300D03*
X18300Y394700D03*
X18300Y420100D03*
X18300Y445500D03*
X18300Y470900D03*
X18300Y496300D03*
D12*
X150000Y365000D03*
X150000Y355000D03*
X150000Y345000D03*
X150000Y335000D03*
D13*
X186750Y322000D03*
X186750Y378000D03*
D12*
X150000Y465000D03*
X150000Y455000D03*
X150000Y445000D03*
X150000Y435000D03*
D13*
X186750Y422000D03*
X186750Y478000D03*
D12*
X150000Y165000D03*
X150000Y155000D03*
X150000Y145000D03*
X150000Y135000D03*
D13*
X186750Y122000D03*
X186750Y178000D03*
D12*
X150000Y265000D03*
X150000Y255000D03*
X150000Y245000D03*
X150000Y235000D03*
D13*
X186750Y222000D03*
X186750Y278000D03*
D14*
X195326Y105410D03*
X195326Y97282D03*
X195326Y89154D03*
D15*
X195326Y97282D02*
X195326Y105664D01*
X195326Y97282D02*
X195326Y88646D01*
D16*
X176022Y445008D03*
D17*
X176014Y445000D01*
X150000Y445000D01*
X150000Y345000D02*
X175954Y345000D01*
X176022Y344932D01*
D16*
X176022Y344932D03*
D17*
X175878Y245000D02*
X150000Y245000D01*
X175878Y245000D02*
X176022Y244856D01*
D16*
X176022Y244856D03*
D17*
X175988Y145000D02*
X150000Y145000D01*
X175988Y145000D02*
X176022Y145034D01*
D16*
X176022Y145034D03*
X165862Y9906D03*
X175260Y9906D03*
X160274Y191516D03*
X184658Y191008D03*
X160528Y290830D03*
X183134Y290576D03*
X183642Y390906D03*
X160782Y390906D03*
X209042Y121412D03*
X167894Y435102D03*
D17*
X167792Y435000D01*
X150000Y435000D01*
D16*
X209804Y434848D03*
D17*
X209652Y435000D01*
X167792Y435000D01*
X167868Y335000D02*
X150000Y335000D01*
X167868Y335000D02*
X167894Y335026D01*
D16*
X167894Y335026D03*
D17*
X167844Y235000D02*
X150000Y235000D01*
X167844Y235000D02*
X167894Y234950D01*
D16*
X167894Y234950D03*
D17*
X167768Y135000D02*
X150000Y135000D01*
X167768Y135000D02*
X167894Y134874D01*
D16*
X167894Y134874D03*
X209296Y135128D03*
D17*
X209168Y135000D01*
X167768Y135000D01*
D16*
X209296Y234950D03*
D17*
X167894Y234950D01*
X167844Y235000D01*
D16*
X208788Y335026D03*
D17*
X167894Y335026D01*
X167868Y335000D01*
D16*
X172212Y89916D03*
D17*
X167894Y94234D01*
X167894Y108966D01*
D16*
X167894Y108966D03*
D17*
X59436Y201164D02*
X43700Y216900D01*
X59436Y29436D02*
X43700Y13700D01*
X59436Y29436D02*
X59436Y201164D01*
D16*
X177292Y70612D03*
D17*
X171069Y76581D01*
X167767Y79883D01*
X129794Y117856D01*
X129794Y151638D01*
X129794Y157988D01*
X129794Y251206D01*
X129794Y257556D01*
X129794Y352806D01*
X129794Y357124D01*
X129794Y450850D01*
X133944Y455000D01*
X150000Y455000D01*
X171872Y455000D01*
X171958Y454914D01*
D16*
X171958Y454914D03*
D17*
X150000Y355000D02*
X131918Y355000D01*
X129794Y357124D01*
X131918Y355000D02*
X129794Y352876D01*
X129794Y352806D01*
X132350Y255000D02*
X150000Y255000D01*
X132350Y255000D02*
X129794Y257556D01*
X132350Y255000D02*
X129794Y252444D01*
X129794Y251206D01*
X132782Y155000D02*
X150000Y155000D01*
X132782Y155000D02*
X129794Y157988D01*
X132782Y155000D02*
X129794Y152012D01*
X129794Y151638D01*
X150000Y355000D02*
X208442Y355000D01*
X208534Y355092D01*
D16*
X208534Y355092D03*
D17*
X208264Y255000D02*
X150000Y255000D01*
X208264Y255000D02*
X208280Y255016D01*
D16*
X208280Y255016D03*
D17*
X208220Y155000D02*
X150000Y155000D01*
X208220Y155000D02*
X208280Y154940D01*
D16*
X208280Y154940D03*
D17*
X195326Y97282D02*
X188722Y97282D01*
X171323Y79883D02*
X167767Y79883D01*
X171323Y79883D02*
X188722Y97282D01*
X171323Y79883D02*
X171069Y79629D01*
X171069Y76581D01*
D16*
X211745Y89916D03*
D17*
X196088Y89916D02*
X195326Y89154D01*
X196088Y89916D02*
X211745Y89916D01*
D16*
X211745Y104394D03*
D17*
X210729Y105410D02*
X195326Y105410D01*
X210729Y105410D02*
X211745Y104394D01*
M02*
