G04 EAGLE Gerber RS-274X export*
G75*
%MOMM*%
%FSLAX34Y34*%
%LPD*%
%AMOC8*
5,1,8,0,0,1.08239X$1,22.5*%
G01*
%ADD10R,1.752600X1.752600*%
%ADD11C,1.752600*%
%ADD12R,1.451600X0.701600*%
%ADD13R,2.101600X1.301600*%
%ADD14R,1.371600X0.736600*%
%ADD15C,0.203200*%


D10*
X43700Y496300D03*
D11*
X43700Y470900D03*
X43700Y445500D03*
X43700Y420100D03*
X43700Y394700D03*
X43700Y369300D03*
X43700Y343900D03*
X43700Y318500D03*
X43700Y293100D03*
X43700Y267700D03*
X43700Y242300D03*
X43700Y216900D03*
X43700Y191500D03*
X43700Y166100D03*
X43700Y140700D03*
X43700Y115300D03*
X43700Y89900D03*
X43700Y64500D03*
X43700Y39100D03*
X43700Y13700D03*
X18300Y13700D03*
X18300Y39100D03*
X18300Y64500D03*
X18300Y89900D03*
X18300Y115300D03*
X18300Y140700D03*
X18300Y166100D03*
X18300Y191500D03*
X18300Y216900D03*
X18300Y242300D03*
X18300Y267700D03*
X18300Y293100D03*
X18300Y318500D03*
X18300Y343900D03*
X18300Y369300D03*
X18300Y394700D03*
X18300Y420100D03*
X18300Y445500D03*
X18300Y470900D03*
X18300Y496300D03*
D12*
X150000Y365000D03*
X150000Y355000D03*
X150000Y345000D03*
X150000Y335000D03*
D13*
X186750Y322000D03*
X186750Y378000D03*
D12*
X150000Y465000D03*
X150000Y455000D03*
X150000Y445000D03*
X150000Y435000D03*
D13*
X186750Y422000D03*
X186750Y478000D03*
D12*
X150000Y165000D03*
X150000Y155000D03*
X150000Y145000D03*
X150000Y135000D03*
D13*
X186750Y122000D03*
X186750Y178000D03*
D12*
X150000Y265000D03*
X150000Y255000D03*
X150000Y245000D03*
X150000Y235000D03*
D13*
X186750Y222000D03*
X186750Y278000D03*
D14*
X195326Y105410D03*
X195326Y97282D03*
X195326Y89154D03*
D15*
X195326Y88392D02*
X195326Y105918D01*
M02*
