G04 EAGLE Gerber RS-274X export*
G75*
%MOMM*%
%FSLAX34Y34*%
%LPD*%
%AMOC8*
5,1,8,0,0,1.08239X$1,22.5*%
G01*
%ADD10C,0.101600*%
%ADD11C,0.127000*%
%ADD12C,0.400000*%
%ADD13C,0.254000*%
%ADD14C,0.152400*%
%ADD15R,0.120000X0.020000*%
%ADD16R,0.340000X0.020000*%
%ADD17R,0.320000X0.020000*%
%ADD18R,0.140000X0.020000*%
%ADD19R,0.280000X0.020000*%
%ADD20R,0.360000X0.020000*%
%ADD21R,0.420000X0.020000*%
%ADD22R,0.380000X0.020000*%
%ADD23R,0.480000X0.020000*%
%ADD24R,0.540000X0.020000*%
%ADD25R,0.560000X0.020000*%
%ADD26R,0.400000X0.020000*%
%ADD27R,0.640000X0.020000*%
%ADD28R,0.620000X0.020000*%
%ADD29R,0.700000X0.020000*%
%ADD30R,0.660000X0.020000*%
%ADD31R,0.740000X0.020000*%
%ADD32R,1.080000X0.020000*%
%ADD33R,0.800000X0.020000*%
%ADD34R,1.100000X0.020000*%
%ADD35R,0.440000X0.020000*%
%ADD36R,0.840000X0.020000*%
%ADD37R,1.120000X0.020000*%
%ADD38R,0.460000X0.020000*%
%ADD39R,0.860000X0.020000*%
%ADD40R,0.900000X0.020000*%
%ADD41R,1.140000X0.020000*%
%ADD42R,0.920000X0.020000*%
%ADD43R,1.160000X0.020000*%
%ADD44R,0.960000X0.020000*%
%ADD45R,0.500000X0.020000*%
%ADD46R,0.520000X0.020000*%
%ADD47R,0.940000X0.020000*%
%ADD48R,0.260000X0.020000*%
%ADD49R,0.180000X0.020000*%
%ADD50R,0.580000X0.020000*%
%ADD51R,0.060000X0.020000*%
%ADD52R,0.600000X0.020000*%
%ADD53R,0.300000X0.020000*%
%ADD54R,0.040000X0.020000*%
%ADD55R,0.100000X0.020000*%
%ADD56R,0.160000X0.020000*%
%ADD57R,0.220000X0.020000*%
%ADD58R,0.980000X0.020000*%
%ADD59R,0.880000X0.020000*%
%ADD60R,0.760000X0.020000*%
%ADD61R,1.060000X0.020000*%
%ADD62R,0.720000X0.020000*%
%ADD63R,0.820000X0.020000*%
%ADD64R,1.180000X0.020000*%
%ADD65R,1.340000X0.020000*%
%ADD66R,1.460000X0.020000*%
%ADD67R,1.600000X0.020000*%
%ADD68R,1.700000X0.020000*%
%ADD69R,1.820000X0.020000*%
%ADD70R,1.900000X0.020000*%
%ADD71R,1.980000X0.020000*%
%ADD72R,2.100000X0.020000*%
%ADD73R,2.160000X0.020000*%
%ADD74R,2.260000X0.020000*%
%ADD75R,2.340000X0.020000*%
%ADD76R,2.400000X0.020000*%
%ADD77R,2.480000X0.020000*%
%ADD78R,2.540000X0.020000*%
%ADD79R,2.600000X0.020000*%
%ADD80R,2.680000X0.020000*%
%ADD81R,2.720000X0.020000*%
%ADD82R,2.800000X0.020000*%
%ADD83R,2.840000X0.020000*%
%ADD84R,2.900000X0.020000*%
%ADD85R,2.960000X0.020000*%
%ADD86R,3.000000X0.020000*%
%ADD87R,3.060000X0.020000*%
%ADD88R,3.120000X0.020000*%
%ADD89R,3.160000X0.020000*%
%ADD90R,3.200000X0.020000*%
%ADD91R,3.260000X0.020000*%
%ADD92R,3.300000X0.020000*%
%ADD93R,3.340000X0.020000*%
%ADD94R,3.380000X0.020000*%
%ADD95R,3.420000X0.020000*%
%ADD96R,3.460000X0.020000*%
%ADD97R,3.520000X0.020000*%
%ADD98R,3.540000X0.020000*%
%ADD99R,3.580000X0.020000*%
%ADD100R,3.620000X0.020000*%
%ADD101R,3.660000X0.020000*%
%ADD102R,3.700000X0.020000*%
%ADD103R,3.740000X0.020000*%
%ADD104R,3.780000X0.020000*%
%ADD105R,3.800000X0.020000*%
%ADD106R,3.840000X0.020000*%
%ADD107R,3.860000X0.020000*%
%ADD108R,3.900000X0.020000*%
%ADD109R,3.940000X0.020000*%
%ADD110R,3.960000X0.020000*%
%ADD111R,3.980000X0.020000*%
%ADD112R,4.020000X0.020000*%
%ADD113R,4.060000X0.020000*%
%ADD114R,4.080000X0.020000*%
%ADD115R,4.100000X0.020000*%
%ADD116R,4.120000X0.020000*%
%ADD117R,4.160000X0.020000*%
%ADD118R,4.180000X0.020000*%
%ADD119R,4.200000X0.020000*%
%ADD120R,4.240000X0.020000*%
%ADD121R,4.260000X0.020000*%
%ADD122R,4.280000X0.020000*%
%ADD123R,4.300000X0.020000*%
%ADD124R,4.320000X0.020000*%
%ADD125R,4.340000X0.020000*%
%ADD126R,4.380000X0.020000*%
%ADD127R,4.400000X0.020000*%
%ADD128R,4.440000X0.020000*%
%ADD129R,4.460000X0.020000*%
%ADD130R,4.500000X0.020000*%
%ADD131R,4.520000X0.020000*%
%ADD132R,4.540000X0.020000*%
%ADD133R,4.560000X0.020000*%
%ADD134R,4.580000X0.020000*%
%ADD135R,4.600000X0.020000*%
%ADD136R,4.620000X0.020000*%
%ADD137R,4.640000X0.020000*%
%ADD138R,4.660000X0.020000*%
%ADD139R,4.680000X0.020000*%
%ADD140R,4.700000X0.020000*%
%ADD141R,4.720000X0.020000*%
%ADD142R,4.740000X0.020000*%
%ADD143R,0.680000X0.020000*%
%ADD144R,1.480000X0.020000*%
%ADD145R,1.580000X0.020000*%
%ADD146R,1.560000X0.020000*%
%ADD147R,1.540000X0.020000*%
%ADD148R,1.520000X0.020000*%
%ADD149R,1.500000X0.020000*%
%ADD150R,1.440000X0.020000*%
%ADD151R,1.400000X0.020000*%
%ADD152R,1.420000X0.020000*%
%ADD153R,1.380000X0.020000*%
%ADD154R,1.360000X0.020000*%
%ADD155R,1.320000X0.020000*%
%ADD156R,1.300000X0.020000*%
%ADD157R,1.260000X0.020000*%
%ADD158R,1.220000X0.020000*%
%ADD159R,1.200000X0.020000*%
%ADD160R,1.040000X0.020000*%
%ADD161R,1.020000X0.020000*%
%ADD162R,1.000000X0.020000*%
%ADD163R,1.280000X0.020000*%
%ADD164R,0.780000X0.020000*%
%ADD165R,1.240000X0.020000*%
%ADD166R,0.020000X0.020000*%
%ADD167R,1.840000X0.020000*%
%ADD168R,1.800000X0.020000*%
%ADD169R,1.780000X0.020000*%
%ADD170R,1.760000X0.020000*%
%ADD171R,1.740000X0.020000*%
%ADD172R,1.680000X0.020000*%
%ADD173R,1.660000X0.020000*%
%ADD174R,1.620000X0.020000*%

G36*
X151573Y29612D02*
X151573Y29612D01*
X151572Y29612D01*
X151573Y29613D01*
X151570Y32003D01*
X151565Y34390D01*
X151562Y36779D01*
X151557Y39169D01*
X151554Y41556D01*
X151549Y43945D01*
X151546Y46332D01*
X151546Y46335D01*
X151541Y48722D01*
X151538Y51112D01*
X151536Y53499D01*
X151530Y55888D01*
X151528Y58275D01*
X151522Y60665D01*
X151520Y63052D01*
X151515Y63058D01*
X151514Y63062D01*
X149212Y64396D01*
X146910Y65729D01*
X144611Y67063D01*
X140008Y69730D01*
X137709Y71063D01*
X133106Y73730D01*
X130807Y75064D01*
X128505Y76397D01*
X126198Y77736D01*
X123892Y79072D01*
X121587Y80408D01*
X119280Y81747D01*
X116973Y83086D01*
X114669Y84422D01*
X112362Y85761D01*
X110058Y87100D01*
X107751Y88441D01*
X105470Y89774D01*
X107864Y90810D01*
X110289Y91839D01*
X112713Y92866D01*
X115140Y93890D01*
X117567Y94911D01*
X119994Y95933D01*
X122421Y96952D01*
X124850Y97973D01*
X127277Y98989D01*
X129584Y99957D01*
X131888Y100926D01*
X134195Y101891D01*
X136500Y102859D01*
X138807Y103825D01*
X141111Y104793D01*
X143418Y105761D01*
X145722Y106729D01*
X148029Y107697D01*
X150333Y108665D01*
X150334Y108665D01*
X151512Y109167D01*
X151515Y109172D01*
X151519Y109176D01*
X151518Y109178D01*
X151519Y109181D01*
X151512Y109184D01*
X151508Y109190D01*
X146206Y109190D01*
X143555Y109192D01*
X119698Y109192D01*
X117047Y109195D01*
X95845Y109195D01*
X93194Y109198D01*
X71988Y109198D01*
X71977Y109187D01*
X71977Y109186D01*
X71976Y109186D01*
X71979Y106793D01*
X71984Y104398D01*
X71987Y102006D01*
X71992Y99611D01*
X71995Y97219D01*
X71998Y94824D01*
X72003Y92429D01*
X72006Y90037D01*
X72011Y87642D01*
X72014Y85249D01*
X72019Y82854D01*
X72022Y80462D01*
X72027Y78067D01*
X72030Y75672D01*
X72035Y75666D01*
X72036Y75662D01*
X74332Y74334D01*
X76626Y73003D01*
X78922Y71675D01*
X81218Y70344D01*
X83512Y69013D01*
X85808Y67685D01*
X88102Y66354D01*
X90398Y65023D01*
X92694Y63695D01*
X94988Y62364D01*
X101893Y58364D01*
X104194Y57027D01*
X108798Y54360D01*
X111097Y53024D01*
X113398Y51691D01*
X115697Y50352D01*
X117976Y49025D01*
X115552Y47970D01*
X113096Y46928D01*
X110642Y45890D01*
X108186Y44853D01*
X105727Y43818D01*
X103268Y42783D01*
X100809Y41751D01*
X98350Y40719D01*
X96045Y39753D01*
X93738Y38785D01*
X91432Y37817D01*
X89125Y36852D01*
X86820Y35884D01*
X84513Y34915D01*
X82206Y33950D01*
X79902Y32982D01*
X77595Y32014D01*
X75291Y31046D01*
X73611Y30339D01*
X71930Y29632D01*
X71928Y29627D01*
X71923Y29623D01*
X71925Y29621D01*
X71924Y29618D01*
X71930Y29615D01*
X71935Y29609D01*
X77242Y29609D01*
X79896Y29606D01*
X114402Y29606D01*
X117055Y29604D01*
X148907Y29604D01*
X151561Y29601D01*
X151573Y29612D01*
G37*
G36*
X120358Y8460D02*
X120358Y8460D01*
X121747Y8529D01*
X121749Y8531D01*
X121750Y8530D01*
X123935Y9279D01*
X123936Y9281D01*
X123938Y9281D01*
X125837Y10590D01*
X125837Y10592D01*
X125839Y10592D01*
X127295Y12382D01*
X127295Y12384D01*
X127297Y12385D01*
X128169Y14519D01*
X128168Y14521D01*
X128170Y14522D01*
X128351Y16541D01*
X128350Y16542D01*
X128351Y16543D01*
X128122Y18554D01*
X128120Y18556D01*
X128121Y18558D01*
X127094Y20854D01*
X127092Y20855D01*
X127092Y20857D01*
X125436Y22751D01*
X125434Y22751D01*
X125433Y22753D01*
X123902Y23692D01*
X123901Y23692D01*
X123901Y23693D01*
X122231Y24362D01*
X122229Y24361D01*
X122228Y24363D01*
X120358Y24534D01*
X120044Y24563D01*
X120042Y24562D01*
X120041Y24563D01*
X117854Y24371D01*
X117853Y24369D01*
X117851Y24370D01*
X115973Y23605D01*
X115973Y23603D01*
X115971Y23604D01*
X114291Y22473D01*
X114290Y22471D01*
X114289Y22471D01*
X112864Y20782D01*
X112864Y20780D01*
X112862Y20779D01*
X111996Y18750D01*
X111996Y18748D01*
X111995Y18746D01*
X111731Y16552D01*
X111732Y16550D01*
X111731Y16549D01*
X111872Y14736D01*
X111874Y14734D01*
X111873Y14732D01*
X112497Y13026D01*
X112499Y13025D01*
X112498Y13023D01*
X113765Y11103D01*
X113767Y11102D01*
X113767Y11100D01*
X115527Y9623D01*
X115530Y9623D01*
X115530Y9621D01*
X117640Y8698D01*
X117642Y8699D01*
X117643Y8697D01*
X119686Y8425D01*
X119687Y8426D01*
X119688Y8425D01*
X120358Y8460D01*
G37*
G36*
X151573Y8708D02*
X151573Y8708D01*
X151572Y8708D01*
X151573Y8709D01*
X151568Y10016D01*
X151562Y11323D01*
X151559Y11327D01*
X151559Y11331D01*
X150133Y12984D01*
X147279Y16291D01*
X145852Y17945D01*
X143015Y21232D01*
X145051Y21245D01*
X147115Y21259D01*
X149177Y21272D01*
X151241Y21288D01*
X151253Y21299D01*
X151252Y21299D01*
X151253Y21300D01*
X151253Y24282D01*
X151242Y24294D01*
X151242Y24293D01*
X151241Y24294D01*
X138439Y24294D01*
X138428Y24283D01*
X138428Y24282D01*
X138427Y24282D01*
X138427Y21772D01*
X138431Y21768D01*
X138430Y21764D01*
X139868Y20095D01*
X141305Y18425D01*
X142740Y16753D01*
X144178Y15083D01*
X145613Y13414D01*
X147033Y11761D01*
X146396Y11753D01*
X146394Y11753D01*
X145437Y11741D01*
X145435Y11741D01*
X144917Y11735D01*
X144478Y11729D01*
X144476Y11729D01*
X143519Y11717D01*
X143517Y11717D01*
X143516Y11717D01*
X142776Y11708D01*
X142560Y11705D01*
X142558Y11705D01*
X141602Y11693D01*
X141600Y11693D01*
X140644Y11682D01*
X140642Y11682D01*
X140642Y11681D01*
X140634Y11681D01*
X139685Y11670D01*
X139683Y11670D01*
X138726Y11658D01*
X138724Y11658D01*
X138493Y11655D01*
X138481Y11644D01*
X138481Y11643D01*
X138451Y10176D01*
X138422Y8709D01*
X138432Y8697D01*
X138433Y8698D01*
X138434Y8697D01*
X151561Y8697D01*
X151573Y8708D01*
G37*
G36*
X96536Y8540D02*
X96536Y8540D01*
X96538Y8542D01*
X96540Y8541D01*
X98860Y9399D01*
X98861Y9402D01*
X98863Y9401D01*
X100805Y10932D01*
X100805Y10934D01*
X100807Y10935D01*
X102178Y12994D01*
X102178Y12996D01*
X102179Y12996D01*
X102742Y14671D01*
X102742Y14672D01*
X102741Y14673D01*
X102743Y14674D01*
X102871Y16443D01*
X102870Y16444D01*
X102871Y16444D01*
X102716Y18373D01*
X102714Y18374D01*
X102715Y18376D01*
X102030Y20181D01*
X102028Y20182D01*
X102029Y20184D01*
X100885Y21947D01*
X100882Y21947D01*
X100882Y21949D01*
X99285Y23312D01*
X99283Y23312D01*
X99282Y23314D01*
X97378Y24205D01*
X97376Y24204D01*
X97376Y24205D01*
X96037Y24531D01*
X96035Y24530D01*
X96034Y24531D01*
X95805Y24534D01*
X95803Y24534D01*
X94923Y24546D01*
X94921Y24546D01*
X94655Y24550D01*
X94655Y24549D01*
X94655Y24550D01*
X94503Y24546D01*
X94502Y24546D01*
X94000Y24534D01*
X93999Y24534D01*
X93497Y24522D01*
X93495Y24522D01*
X93305Y24518D01*
X93304Y24517D01*
X93303Y24517D01*
X91986Y24251D01*
X91985Y24250D01*
X91984Y24250D01*
X90506Y23661D01*
X90505Y23659D01*
X90504Y23660D01*
X89187Y22771D01*
X89186Y22768D01*
X89183Y22768D01*
X88703Y22002D01*
X88705Y21993D01*
X88704Y21988D01*
X89693Y20826D01*
X89694Y20825D01*
X90718Y19689D01*
X90724Y19688D01*
X90725Y19687D01*
X90730Y19687D01*
X90730Y19688D01*
X90734Y19687D01*
X90734Y19688D01*
X91325Y20122D01*
X93051Y21104D01*
X95012Y21365D01*
X96445Y21067D01*
X97671Y20270D01*
X98869Y18551D01*
X99278Y16497D01*
X98869Y14440D01*
X97671Y12724D01*
X96435Y11923D01*
X94988Y11626D01*
X93019Y11857D01*
X91301Y12864D01*
X90609Y13404D01*
X90593Y13403D01*
X89499Y12318D01*
X88409Y11230D01*
X88408Y11226D01*
X88408Y11225D01*
X88408Y11214D01*
X88409Y11214D01*
X88409Y11213D01*
X88913Y10696D01*
X88914Y10696D01*
X88914Y10695D01*
X90127Y9716D01*
X90129Y9716D01*
X90129Y9715D01*
X91494Y8960D01*
X91497Y8961D01*
X91498Y8959D01*
X93989Y8431D01*
X93990Y8432D01*
X93992Y8430D01*
X96536Y8540D01*
G37*
G36*
X79510Y8454D02*
X79510Y8454D01*
X79511Y8456D01*
X79513Y8455D01*
X81857Y9172D01*
X81858Y9174D01*
X81860Y9174D01*
X83941Y10603D01*
X83941Y10606D01*
X83943Y10606D01*
X85448Y12630D01*
X85447Y12633D01*
X85449Y12634D01*
X86252Y15029D01*
X86251Y15031D01*
X86253Y15032D01*
X86309Y17555D01*
X86307Y17557D01*
X86308Y17557D01*
X86307Y17557D01*
X86308Y17559D01*
X85602Y19983D01*
X85599Y19985D01*
X85600Y19987D01*
X84173Y22067D01*
X84171Y22067D01*
X84171Y22069D01*
X82266Y23579D01*
X82264Y23579D01*
X82263Y23581D01*
X79986Y24426D01*
X79983Y24425D01*
X79982Y24427D01*
X77555Y24584D01*
X77554Y24583D01*
X77552Y24584D01*
X74952Y24088D01*
X74950Y24086D01*
X74948Y24087D01*
X72649Y22777D01*
X72648Y22774D01*
X72646Y22774D01*
X72112Y22062D01*
X72113Y22050D01*
X72113Y22047D01*
X73129Y20852D01*
X74177Y19689D01*
X74193Y19687D01*
X74897Y20194D01*
X76281Y21022D01*
X77854Y21365D01*
X79801Y21115D01*
X81415Y20001D01*
X82583Y17800D01*
X82604Y15305D01*
X81484Y13078D01*
X79974Y11963D01*
X78128Y11604D01*
X76321Y11918D01*
X74742Y12866D01*
X74055Y13394D01*
X74039Y13393D01*
X73009Y12361D01*
X73009Y12360D01*
X71979Y11211D01*
X71979Y11195D01*
X71980Y11195D01*
X71980Y11194D01*
X73687Y9628D01*
X73690Y9628D01*
X73690Y9626D01*
X75517Y8794D01*
X75519Y8795D01*
X75520Y8793D01*
X77496Y8415D01*
X77498Y8416D01*
X77499Y8414D01*
X79510Y8454D01*
G37*
%LPC*%
G36*
X120909Y11731D02*
X120909Y11731D01*
X120531Y11743D01*
X120357Y11748D01*
X120121Y11756D01*
X119749Y11768D01*
X119748Y11768D01*
X119376Y11780D01*
X119004Y11791D01*
X119003Y11791D01*
X118632Y11803D01*
X118631Y11803D01*
X118614Y11804D01*
X116449Y13243D01*
X115472Y15244D01*
X115427Y17468D01*
X116321Y19503D01*
X118029Y20926D01*
X120045Y21392D01*
X120355Y21326D01*
X122072Y20956D01*
X123694Y19671D01*
X124658Y17497D01*
X124559Y15121D01*
X123394Y13052D01*
X121199Y11722D01*
X120909Y11731D01*
G37*
%LPD*%
G36*
X135040Y8708D02*
X135040Y8708D01*
X135039Y8708D01*
X135040Y8709D01*
X135040Y24282D01*
X135030Y24294D01*
X135029Y24293D01*
X135028Y24294D01*
X131614Y24294D01*
X131603Y24283D01*
X131603Y24282D01*
X131603Y8709D01*
X131613Y8697D01*
X131614Y8698D01*
X131614Y8697D01*
X135028Y8697D01*
X135040Y8708D01*
G37*
G36*
X109120Y8708D02*
X109120Y8708D01*
X109119Y8708D01*
X109120Y8709D01*
X109120Y12230D01*
X109109Y12241D01*
X109108Y12241D01*
X105481Y12241D01*
X105469Y12231D01*
X105469Y12230D01*
X105469Y8709D01*
X105479Y8697D01*
X105480Y8698D01*
X105481Y8697D01*
X109108Y8697D01*
X109120Y8708D01*
G37*
D10*
X139699Y467614D02*
X133598Y467614D01*
X132072Y466089D01*
X132072Y463038D01*
X133598Y461513D01*
X139699Y461513D01*
X141224Y463038D01*
X141224Y466089D01*
X139699Y467614D01*
X138173Y464563D02*
X141224Y461513D01*
X139699Y458259D02*
X135123Y458259D01*
X139699Y458259D02*
X141224Y456734D01*
X139699Y455208D01*
X141224Y453683D01*
X139699Y452158D01*
X135123Y452158D01*
X135123Y448904D02*
X135123Y447378D01*
X141224Y447378D01*
X141224Y445853D02*
X141224Y448904D01*
X132072Y447378D02*
X130547Y447378D01*
X135123Y442667D02*
X135123Y441142D01*
X141224Y441142D01*
X141224Y442667D02*
X141224Y439616D01*
X132072Y441142D02*
X130547Y441142D01*
X135123Y434905D02*
X135123Y430329D01*
X135123Y434905D02*
X136648Y436430D01*
X139699Y436430D01*
X141224Y434905D01*
X141224Y430329D01*
X139699Y367284D02*
X133598Y367284D01*
X132072Y365759D01*
X132072Y362708D01*
X133598Y361183D01*
X139699Y361183D01*
X141224Y362708D01*
X141224Y365759D01*
X139699Y367284D01*
X138173Y364233D02*
X141224Y361183D01*
X139699Y357929D02*
X135123Y357929D01*
X139699Y357929D02*
X141224Y356404D01*
X139699Y354878D01*
X141224Y353353D01*
X139699Y351828D01*
X135123Y351828D01*
X135123Y348574D02*
X135123Y347048D01*
X141224Y347048D01*
X141224Y345523D02*
X141224Y348574D01*
X132072Y347048D02*
X130547Y347048D01*
X135123Y342337D02*
X135123Y340812D01*
X141224Y340812D01*
X141224Y342337D02*
X141224Y339286D01*
X132072Y340812D02*
X130547Y340812D01*
X135123Y334575D02*
X135123Y329999D01*
X135123Y334575D02*
X136648Y336100D01*
X139699Y336100D01*
X141224Y334575D01*
X141224Y329999D01*
X139699Y266954D02*
X133598Y266954D01*
X132072Y265429D01*
X132072Y262378D01*
X133598Y260853D01*
X139699Y260853D01*
X141224Y262378D01*
X141224Y265429D01*
X139699Y266954D01*
X138173Y263903D02*
X141224Y260853D01*
X139699Y257599D02*
X135123Y257599D01*
X139699Y257599D02*
X141224Y256074D01*
X139699Y254548D01*
X141224Y253023D01*
X139699Y251498D01*
X135123Y251498D01*
X135123Y248244D02*
X135123Y246718D01*
X141224Y246718D01*
X141224Y245193D02*
X141224Y248244D01*
X132072Y246718D02*
X130547Y246718D01*
X135123Y242007D02*
X135123Y240482D01*
X141224Y240482D01*
X141224Y242007D02*
X141224Y238956D01*
X132072Y240482D02*
X130547Y240482D01*
X135123Y234245D02*
X135123Y229669D01*
X135123Y234245D02*
X136648Y235770D01*
X139699Y235770D01*
X141224Y234245D01*
X141224Y229669D01*
X139699Y167894D02*
X133598Y167894D01*
X132072Y166369D01*
X132072Y163318D01*
X133598Y161793D01*
X139699Y161793D01*
X141224Y163318D01*
X141224Y166369D01*
X139699Y167894D01*
X138173Y164843D02*
X141224Y161793D01*
X139699Y158539D02*
X135123Y158539D01*
X139699Y158539D02*
X141224Y157014D01*
X139699Y155488D01*
X141224Y153963D01*
X139699Y152438D01*
X135123Y152438D01*
X135123Y149184D02*
X135123Y147658D01*
X141224Y147658D01*
X141224Y146133D02*
X141224Y149184D01*
X132072Y147658D02*
X130547Y147658D01*
X135123Y142947D02*
X135123Y141422D01*
X141224Y141422D01*
X141224Y142947D02*
X141224Y139896D01*
X132072Y141422D02*
X130547Y141422D01*
X135123Y135185D02*
X135123Y130609D01*
X135123Y135185D02*
X136648Y136710D01*
X139699Y136710D01*
X141224Y135185D01*
X141224Y130609D01*
X82542Y278125D02*
X82542Y284226D01*
X82542Y278125D02*
X84068Y278125D01*
X90169Y284226D01*
X91694Y284226D01*
X91694Y278125D01*
X85593Y274871D02*
X85593Y273346D01*
X91694Y273346D01*
X91694Y274871D02*
X91694Y271820D01*
X82542Y273346D02*
X81017Y273346D01*
X91694Y267109D02*
X91694Y264058D01*
X90169Y262533D01*
X87118Y262533D01*
X85593Y264058D01*
X85593Y267109D01*
X87118Y268634D01*
X90169Y268634D01*
X91694Y267109D01*
X90169Y249924D02*
X84068Y249924D01*
X82542Y248398D01*
X82542Y245348D01*
X84068Y243822D01*
X90169Y243822D01*
X91694Y245348D01*
X91694Y248398D01*
X90169Y249924D01*
X88643Y246873D02*
X91694Y243822D01*
X90169Y240568D02*
X85593Y240568D01*
X90169Y240568D02*
X91694Y239043D01*
X90169Y237518D01*
X91694Y235993D01*
X90169Y234467D01*
X85593Y234467D01*
X85593Y231213D02*
X85593Y229688D01*
X91694Y229688D01*
X91694Y231213D02*
X91694Y228163D01*
X82542Y229688D02*
X81017Y229688D01*
X85593Y224977D02*
X85593Y223451D01*
X91694Y223451D01*
X91694Y221926D02*
X91694Y224977D01*
X82542Y223451D02*
X81017Y223451D01*
X85593Y217214D02*
X85593Y212639D01*
X85593Y217214D02*
X87118Y218740D01*
X90169Y218740D01*
X91694Y217214D01*
X91694Y212639D01*
X91694Y200029D02*
X82542Y200029D01*
X87118Y200029D02*
X87118Y193928D01*
X82542Y193928D02*
X91694Y193928D01*
X91694Y190674D02*
X85593Y190674D01*
X82542Y187624D01*
X85593Y184573D01*
X91694Y184573D01*
X87118Y184573D02*
X87118Y190674D01*
X91694Y178268D02*
X82542Y178268D01*
X82542Y175218D02*
X82542Y181319D01*
X97782Y284226D02*
X106934Y284226D01*
X97782Y284226D02*
X97782Y278125D01*
X102358Y281175D02*
X102358Y284226D01*
X106934Y273346D02*
X106934Y270295D01*
X105409Y268770D01*
X102358Y268770D01*
X100833Y270295D01*
X100833Y273346D01*
X102358Y274871D01*
X105409Y274871D01*
X106934Y273346D01*
X106934Y265516D02*
X100833Y265516D01*
X103883Y265516D02*
X100833Y262465D01*
X100833Y260940D01*
X97782Y248364D02*
X106934Y248364D01*
X97782Y248364D02*
X97782Y243789D01*
X99308Y242263D01*
X102358Y242263D01*
X103883Y243789D01*
X103883Y248364D01*
X103883Y245314D02*
X106934Y242263D01*
X100833Y237484D02*
X100833Y234433D01*
X102358Y232908D01*
X106934Y232908D01*
X106934Y237484D01*
X105409Y239009D01*
X103883Y237484D01*
X103883Y232908D01*
X106934Y229654D02*
X106934Y225078D01*
X105409Y223553D01*
X103883Y225078D01*
X103883Y228129D01*
X102358Y229654D01*
X100833Y228129D01*
X100833Y223553D01*
X100833Y220299D02*
X109985Y220299D01*
X100833Y220299D02*
X100833Y215723D01*
X102358Y214198D01*
X105409Y214198D01*
X106934Y215723D01*
X106934Y220299D01*
X106934Y210944D02*
X97782Y210944D01*
X106934Y210944D02*
X106934Y206368D01*
X105409Y204843D01*
X102358Y204843D01*
X100833Y206368D01*
X100833Y210944D01*
X106934Y200063D02*
X106934Y197013D01*
X106934Y200063D02*
X105409Y201589D01*
X102358Y201589D01*
X100833Y200063D01*
X100833Y197013D01*
X102358Y195487D01*
X103883Y195487D01*
X103883Y201589D01*
X106934Y192233D02*
X100833Y192233D01*
X103883Y192233D02*
X100833Y189183D01*
X100833Y187657D01*
X100833Y184437D02*
X106934Y184437D01*
X103883Y184437D02*
X100833Y181387D01*
X100833Y179861D01*
X100833Y176641D02*
X105409Y176641D01*
X106934Y175116D01*
X106934Y170540D01*
X108459Y170540D02*
X100833Y170540D01*
X108459Y170540D02*
X109985Y172066D01*
X109985Y173591D01*
X106934Y157931D02*
X97782Y157931D01*
X97782Y153355D01*
X99308Y151830D01*
X102358Y151830D01*
X103883Y153355D01*
X103883Y157931D01*
X100833Y148576D02*
X100833Y147051D01*
X106934Y147051D01*
X106934Y148576D02*
X106934Y145525D01*
X97782Y147051D02*
X96257Y147051D01*
D11*
X56400Y509000D02*
X5600Y509000D01*
X5600Y1000D01*
X56400Y1000D01*
X56400Y509000D01*
D12*
X145586Y375000D02*
X145588Y375075D01*
X145594Y375149D01*
X145604Y375223D01*
X145617Y375296D01*
X145635Y375369D01*
X145656Y375440D01*
X145681Y375511D01*
X145710Y375580D01*
X145743Y375647D01*
X145779Y375712D01*
X145818Y375776D01*
X145860Y375837D01*
X145906Y375896D01*
X145955Y375953D01*
X146007Y376006D01*
X146061Y376057D01*
X146118Y376106D01*
X146178Y376150D01*
X146240Y376192D01*
X146304Y376231D01*
X146370Y376266D01*
X146437Y376297D01*
X146507Y376325D01*
X146577Y376349D01*
X146649Y376370D01*
X146722Y376386D01*
X146795Y376399D01*
X146870Y376408D01*
X146944Y376413D01*
X147019Y376414D01*
X147093Y376411D01*
X147168Y376404D01*
X147241Y376393D01*
X147315Y376379D01*
X147387Y376360D01*
X147458Y376338D01*
X147528Y376312D01*
X147597Y376282D01*
X147663Y376249D01*
X147728Y376212D01*
X147791Y376172D01*
X147852Y376128D01*
X147910Y376082D01*
X147966Y376032D01*
X148019Y375980D01*
X148070Y375925D01*
X148117Y375867D01*
X148161Y375807D01*
X148202Y375744D01*
X148240Y375680D01*
X148274Y375614D01*
X148305Y375545D01*
X148332Y375476D01*
X148355Y375405D01*
X148374Y375333D01*
X148390Y375260D01*
X148402Y375186D01*
X148410Y375112D01*
X148414Y375037D01*
X148414Y374963D01*
X148410Y374888D01*
X148402Y374814D01*
X148390Y374740D01*
X148374Y374667D01*
X148355Y374595D01*
X148332Y374524D01*
X148305Y374455D01*
X148274Y374386D01*
X148240Y374320D01*
X148202Y374256D01*
X148161Y374193D01*
X148117Y374133D01*
X148070Y374075D01*
X148019Y374020D01*
X147966Y373968D01*
X147910Y373918D01*
X147852Y373872D01*
X147791Y373828D01*
X147728Y373788D01*
X147663Y373751D01*
X147597Y373718D01*
X147528Y373688D01*
X147458Y373662D01*
X147387Y373640D01*
X147315Y373621D01*
X147241Y373607D01*
X147168Y373596D01*
X147093Y373589D01*
X147019Y373586D01*
X146944Y373587D01*
X146870Y373592D01*
X146795Y373601D01*
X146722Y373614D01*
X146649Y373630D01*
X146577Y373651D01*
X146507Y373675D01*
X146437Y373703D01*
X146370Y373734D01*
X146304Y373769D01*
X146240Y373808D01*
X146178Y373850D01*
X146118Y373894D01*
X146061Y373943D01*
X146007Y373994D01*
X145955Y374047D01*
X145906Y374104D01*
X145860Y374163D01*
X145818Y374224D01*
X145779Y374288D01*
X145743Y374353D01*
X145710Y374420D01*
X145681Y374489D01*
X145656Y374560D01*
X145635Y374631D01*
X145617Y374704D01*
X145604Y374777D01*
X145594Y374851D01*
X145588Y374925D01*
X145586Y375000D01*
D13*
X196000Y365000D02*
X196000Y335000D01*
X170000Y380000D02*
X153500Y380000D01*
X153500Y327500D02*
X153500Y320000D01*
X170000Y320000D01*
X153500Y372500D02*
X153500Y380000D01*
D12*
X145586Y475000D02*
X145588Y475075D01*
X145594Y475149D01*
X145604Y475223D01*
X145617Y475296D01*
X145635Y475369D01*
X145656Y475440D01*
X145681Y475511D01*
X145710Y475580D01*
X145743Y475647D01*
X145779Y475712D01*
X145818Y475776D01*
X145860Y475837D01*
X145906Y475896D01*
X145955Y475953D01*
X146007Y476006D01*
X146061Y476057D01*
X146118Y476106D01*
X146178Y476150D01*
X146240Y476192D01*
X146304Y476231D01*
X146370Y476266D01*
X146437Y476297D01*
X146507Y476325D01*
X146577Y476349D01*
X146649Y476370D01*
X146722Y476386D01*
X146795Y476399D01*
X146870Y476408D01*
X146944Y476413D01*
X147019Y476414D01*
X147093Y476411D01*
X147168Y476404D01*
X147241Y476393D01*
X147315Y476379D01*
X147387Y476360D01*
X147458Y476338D01*
X147528Y476312D01*
X147597Y476282D01*
X147663Y476249D01*
X147728Y476212D01*
X147791Y476172D01*
X147852Y476128D01*
X147910Y476082D01*
X147966Y476032D01*
X148019Y475980D01*
X148070Y475925D01*
X148117Y475867D01*
X148161Y475807D01*
X148202Y475744D01*
X148240Y475680D01*
X148274Y475614D01*
X148305Y475545D01*
X148332Y475476D01*
X148355Y475405D01*
X148374Y475333D01*
X148390Y475260D01*
X148402Y475186D01*
X148410Y475112D01*
X148414Y475037D01*
X148414Y474963D01*
X148410Y474888D01*
X148402Y474814D01*
X148390Y474740D01*
X148374Y474667D01*
X148355Y474595D01*
X148332Y474524D01*
X148305Y474455D01*
X148274Y474386D01*
X148240Y474320D01*
X148202Y474256D01*
X148161Y474193D01*
X148117Y474133D01*
X148070Y474075D01*
X148019Y474020D01*
X147966Y473968D01*
X147910Y473918D01*
X147852Y473872D01*
X147791Y473828D01*
X147728Y473788D01*
X147663Y473751D01*
X147597Y473718D01*
X147528Y473688D01*
X147458Y473662D01*
X147387Y473640D01*
X147315Y473621D01*
X147241Y473607D01*
X147168Y473596D01*
X147093Y473589D01*
X147019Y473586D01*
X146944Y473587D01*
X146870Y473592D01*
X146795Y473601D01*
X146722Y473614D01*
X146649Y473630D01*
X146577Y473651D01*
X146507Y473675D01*
X146437Y473703D01*
X146370Y473734D01*
X146304Y473769D01*
X146240Y473808D01*
X146178Y473850D01*
X146118Y473894D01*
X146061Y473943D01*
X146007Y473994D01*
X145955Y474047D01*
X145906Y474104D01*
X145860Y474163D01*
X145818Y474224D01*
X145779Y474288D01*
X145743Y474353D01*
X145710Y474420D01*
X145681Y474489D01*
X145656Y474560D01*
X145635Y474631D01*
X145617Y474704D01*
X145604Y474777D01*
X145594Y474851D01*
X145588Y474925D01*
X145586Y475000D01*
D13*
X196000Y465000D02*
X196000Y435000D01*
X170000Y480000D02*
X153500Y480000D01*
X153500Y427500D02*
X153500Y420000D01*
X170000Y420000D01*
X153500Y472500D02*
X153500Y480000D01*
D12*
X145586Y175000D02*
X145588Y175075D01*
X145594Y175149D01*
X145604Y175223D01*
X145617Y175296D01*
X145635Y175369D01*
X145656Y175440D01*
X145681Y175511D01*
X145710Y175580D01*
X145743Y175647D01*
X145779Y175712D01*
X145818Y175776D01*
X145860Y175837D01*
X145906Y175896D01*
X145955Y175953D01*
X146007Y176006D01*
X146061Y176057D01*
X146118Y176106D01*
X146178Y176150D01*
X146240Y176192D01*
X146304Y176231D01*
X146370Y176266D01*
X146437Y176297D01*
X146507Y176325D01*
X146577Y176349D01*
X146649Y176370D01*
X146722Y176386D01*
X146795Y176399D01*
X146870Y176408D01*
X146944Y176413D01*
X147019Y176414D01*
X147093Y176411D01*
X147168Y176404D01*
X147241Y176393D01*
X147315Y176379D01*
X147387Y176360D01*
X147458Y176338D01*
X147528Y176312D01*
X147597Y176282D01*
X147663Y176249D01*
X147728Y176212D01*
X147791Y176172D01*
X147852Y176128D01*
X147910Y176082D01*
X147966Y176032D01*
X148019Y175980D01*
X148070Y175925D01*
X148117Y175867D01*
X148161Y175807D01*
X148202Y175744D01*
X148240Y175680D01*
X148274Y175614D01*
X148305Y175545D01*
X148332Y175476D01*
X148355Y175405D01*
X148374Y175333D01*
X148390Y175260D01*
X148402Y175186D01*
X148410Y175112D01*
X148414Y175037D01*
X148414Y174963D01*
X148410Y174888D01*
X148402Y174814D01*
X148390Y174740D01*
X148374Y174667D01*
X148355Y174595D01*
X148332Y174524D01*
X148305Y174455D01*
X148274Y174386D01*
X148240Y174320D01*
X148202Y174256D01*
X148161Y174193D01*
X148117Y174133D01*
X148070Y174075D01*
X148019Y174020D01*
X147966Y173968D01*
X147910Y173918D01*
X147852Y173872D01*
X147791Y173828D01*
X147728Y173788D01*
X147663Y173751D01*
X147597Y173718D01*
X147528Y173688D01*
X147458Y173662D01*
X147387Y173640D01*
X147315Y173621D01*
X147241Y173607D01*
X147168Y173596D01*
X147093Y173589D01*
X147019Y173586D01*
X146944Y173587D01*
X146870Y173592D01*
X146795Y173601D01*
X146722Y173614D01*
X146649Y173630D01*
X146577Y173651D01*
X146507Y173675D01*
X146437Y173703D01*
X146370Y173734D01*
X146304Y173769D01*
X146240Y173808D01*
X146178Y173850D01*
X146118Y173894D01*
X146061Y173943D01*
X146007Y173994D01*
X145955Y174047D01*
X145906Y174104D01*
X145860Y174163D01*
X145818Y174224D01*
X145779Y174288D01*
X145743Y174353D01*
X145710Y174420D01*
X145681Y174489D01*
X145656Y174560D01*
X145635Y174631D01*
X145617Y174704D01*
X145604Y174777D01*
X145594Y174851D01*
X145588Y174925D01*
X145586Y175000D01*
D13*
X196000Y165000D02*
X196000Y135000D01*
X170000Y180000D02*
X153500Y180000D01*
X153500Y127500D02*
X153500Y120000D01*
X170000Y120000D01*
X153500Y172500D02*
X153500Y180000D01*
D12*
X145586Y275000D02*
X145588Y275075D01*
X145594Y275149D01*
X145604Y275223D01*
X145617Y275296D01*
X145635Y275369D01*
X145656Y275440D01*
X145681Y275511D01*
X145710Y275580D01*
X145743Y275647D01*
X145779Y275712D01*
X145818Y275776D01*
X145860Y275837D01*
X145906Y275896D01*
X145955Y275953D01*
X146007Y276006D01*
X146061Y276057D01*
X146118Y276106D01*
X146178Y276150D01*
X146240Y276192D01*
X146304Y276231D01*
X146370Y276266D01*
X146437Y276297D01*
X146507Y276325D01*
X146577Y276349D01*
X146649Y276370D01*
X146722Y276386D01*
X146795Y276399D01*
X146870Y276408D01*
X146944Y276413D01*
X147019Y276414D01*
X147093Y276411D01*
X147168Y276404D01*
X147241Y276393D01*
X147315Y276379D01*
X147387Y276360D01*
X147458Y276338D01*
X147528Y276312D01*
X147597Y276282D01*
X147663Y276249D01*
X147728Y276212D01*
X147791Y276172D01*
X147852Y276128D01*
X147910Y276082D01*
X147966Y276032D01*
X148019Y275980D01*
X148070Y275925D01*
X148117Y275867D01*
X148161Y275807D01*
X148202Y275744D01*
X148240Y275680D01*
X148274Y275614D01*
X148305Y275545D01*
X148332Y275476D01*
X148355Y275405D01*
X148374Y275333D01*
X148390Y275260D01*
X148402Y275186D01*
X148410Y275112D01*
X148414Y275037D01*
X148414Y274963D01*
X148410Y274888D01*
X148402Y274814D01*
X148390Y274740D01*
X148374Y274667D01*
X148355Y274595D01*
X148332Y274524D01*
X148305Y274455D01*
X148274Y274386D01*
X148240Y274320D01*
X148202Y274256D01*
X148161Y274193D01*
X148117Y274133D01*
X148070Y274075D01*
X148019Y274020D01*
X147966Y273968D01*
X147910Y273918D01*
X147852Y273872D01*
X147791Y273828D01*
X147728Y273788D01*
X147663Y273751D01*
X147597Y273718D01*
X147528Y273688D01*
X147458Y273662D01*
X147387Y273640D01*
X147315Y273621D01*
X147241Y273607D01*
X147168Y273596D01*
X147093Y273589D01*
X147019Y273586D01*
X146944Y273587D01*
X146870Y273592D01*
X146795Y273601D01*
X146722Y273614D01*
X146649Y273630D01*
X146577Y273651D01*
X146507Y273675D01*
X146437Y273703D01*
X146370Y273734D01*
X146304Y273769D01*
X146240Y273808D01*
X146178Y273850D01*
X146118Y273894D01*
X146061Y273943D01*
X146007Y273994D01*
X145955Y274047D01*
X145906Y274104D01*
X145860Y274163D01*
X145818Y274224D01*
X145779Y274288D01*
X145743Y274353D01*
X145710Y274420D01*
X145681Y274489D01*
X145656Y274560D01*
X145635Y274631D01*
X145617Y274704D01*
X145604Y274777D01*
X145594Y274851D01*
X145588Y274925D01*
X145586Y275000D01*
D13*
X196000Y265000D02*
X196000Y235000D01*
X170000Y280000D02*
X153500Y280000D01*
X153500Y227500D02*
X153500Y220000D01*
X170000Y220000D01*
X153500Y272500D02*
X153500Y280000D01*
D14*
X205486Y109982D02*
X205486Y84582D01*
X187706Y82042D02*
X187606Y82044D01*
X187507Y82050D01*
X187407Y82060D01*
X187309Y82073D01*
X187210Y82091D01*
X187113Y82112D01*
X187017Y82137D01*
X186921Y82166D01*
X186827Y82199D01*
X186734Y82235D01*
X186643Y82275D01*
X186553Y82319D01*
X186465Y82366D01*
X186379Y82416D01*
X186295Y82470D01*
X186213Y82527D01*
X186134Y82587D01*
X186056Y82651D01*
X185982Y82717D01*
X185910Y82786D01*
X185841Y82858D01*
X185775Y82932D01*
X185711Y83010D01*
X185651Y83089D01*
X185594Y83171D01*
X185540Y83255D01*
X185490Y83341D01*
X185443Y83429D01*
X185399Y83519D01*
X185359Y83610D01*
X185323Y83703D01*
X185290Y83797D01*
X185261Y83893D01*
X185236Y83989D01*
X185215Y84086D01*
X185197Y84185D01*
X185184Y84283D01*
X185174Y84383D01*
X185168Y84482D01*
X185166Y84582D01*
X185166Y109982D02*
X185168Y110082D01*
X185174Y110181D01*
X185184Y110281D01*
X185197Y110379D01*
X185215Y110478D01*
X185236Y110575D01*
X185261Y110671D01*
X185290Y110767D01*
X185323Y110861D01*
X185359Y110954D01*
X185399Y111045D01*
X185443Y111135D01*
X185490Y111223D01*
X185540Y111309D01*
X185594Y111393D01*
X185651Y111475D01*
X185711Y111554D01*
X185775Y111632D01*
X185841Y111706D01*
X185910Y111778D01*
X185982Y111847D01*
X186056Y111913D01*
X186134Y111977D01*
X186213Y112037D01*
X186295Y112094D01*
X186379Y112148D01*
X186465Y112198D01*
X186553Y112245D01*
X186643Y112289D01*
X186734Y112329D01*
X186827Y112365D01*
X186921Y112398D01*
X187017Y112427D01*
X187113Y112452D01*
X187210Y112473D01*
X187309Y112491D01*
X187407Y112504D01*
X187507Y112514D01*
X187606Y112520D01*
X187706Y112522D01*
X202946Y112522D02*
X203046Y112520D01*
X203145Y112514D01*
X203245Y112504D01*
X203343Y112491D01*
X203442Y112473D01*
X203539Y112452D01*
X203635Y112427D01*
X203731Y112398D01*
X203825Y112365D01*
X203918Y112329D01*
X204009Y112289D01*
X204099Y112245D01*
X204187Y112198D01*
X204273Y112148D01*
X204357Y112094D01*
X204439Y112037D01*
X204518Y111977D01*
X204596Y111913D01*
X204670Y111847D01*
X204742Y111778D01*
X204811Y111706D01*
X204877Y111632D01*
X204941Y111554D01*
X205001Y111475D01*
X205058Y111393D01*
X205112Y111309D01*
X205162Y111223D01*
X205209Y111135D01*
X205253Y111045D01*
X205293Y110954D01*
X205329Y110861D01*
X205362Y110767D01*
X205391Y110671D01*
X205416Y110575D01*
X205437Y110478D01*
X205455Y110379D01*
X205468Y110281D01*
X205478Y110181D01*
X205484Y110082D01*
X205486Y109982D01*
X205486Y84582D02*
X205484Y84482D01*
X205478Y84383D01*
X205468Y84283D01*
X205455Y84185D01*
X205437Y84086D01*
X205416Y83989D01*
X205391Y83893D01*
X205362Y83797D01*
X205329Y83703D01*
X205293Y83610D01*
X205253Y83519D01*
X205209Y83429D01*
X205162Y83341D01*
X205112Y83255D01*
X205058Y83171D01*
X205001Y83089D01*
X204941Y83010D01*
X204877Y82932D01*
X204811Y82858D01*
X204742Y82786D01*
X204670Y82717D01*
X204596Y82651D01*
X204518Y82587D01*
X204439Y82527D01*
X204357Y82470D01*
X204273Y82416D01*
X204187Y82366D01*
X204099Y82319D01*
X204009Y82275D01*
X203918Y82235D01*
X203825Y82199D01*
X203731Y82166D01*
X203635Y82137D01*
X203539Y82112D01*
X203442Y82091D01*
X203343Y82073D01*
X203245Y82060D01*
X203145Y82050D01*
X203046Y82044D01*
X202946Y82042D01*
X187706Y82042D01*
X187706Y112522D02*
X202946Y112522D01*
X185166Y109982D02*
X185166Y84582D01*
D15*
X114988Y500052D03*
D16*
X109688Y500052D03*
X105488Y500052D03*
D17*
X97588Y500052D03*
X89988Y500052D03*
D16*
X85888Y500052D03*
X81688Y500052D03*
D18*
X73888Y500052D03*
D19*
X114988Y499852D03*
D20*
X109588Y499852D03*
X105388Y499852D03*
X97588Y499852D03*
D16*
X89888Y499852D03*
D20*
X85988Y499852D03*
X81588Y499852D03*
D17*
X73788Y499852D03*
D21*
X115088Y499652D03*
D20*
X109588Y499652D03*
X105388Y499652D03*
D22*
X97688Y499652D03*
D20*
X89988Y499652D03*
X85988Y499652D03*
X81588Y499652D03*
D23*
X73788Y499652D03*
X114988Y499452D03*
D20*
X109588Y499452D03*
X105388Y499452D03*
D22*
X97688Y499452D03*
D16*
X90088Y499452D03*
D20*
X85988Y499452D03*
X81588Y499452D03*
D24*
X73888Y499452D03*
D25*
X114988Y499252D03*
D20*
X109588Y499252D03*
X105188Y499252D03*
D26*
X97588Y499252D03*
D16*
X90088Y499252D03*
D20*
X85988Y499252D03*
X81588Y499252D03*
D27*
X73788Y499252D03*
D28*
X115088Y499052D03*
D20*
X109588Y499052D03*
X105188Y499052D03*
D26*
X97588Y499052D03*
D20*
X90188Y499052D03*
X85988Y499052D03*
X81588Y499052D03*
D29*
X73888Y499052D03*
D30*
X115088Y498852D03*
D22*
X109688Y498852D03*
D16*
X105088Y498852D03*
D21*
X97688Y498852D03*
D16*
X90288Y498852D03*
D20*
X85988Y498852D03*
X81588Y498852D03*
D31*
X73888Y498852D03*
D32*
X113188Y498652D03*
D20*
X104988Y498652D03*
D21*
X97688Y498652D03*
D16*
X90288Y498652D03*
D20*
X85988Y498652D03*
X81588Y498652D03*
D33*
X73788Y498652D03*
D34*
X113288Y498452D03*
D20*
X104988Y498452D03*
D35*
X97588Y498452D03*
D16*
X90288Y498452D03*
D20*
X85988Y498452D03*
X81588Y498452D03*
D36*
X73788Y498452D03*
D37*
X113388Y498252D03*
D16*
X104888Y498252D03*
D38*
X97688Y498252D03*
D16*
X90488Y498252D03*
D20*
X85988Y498252D03*
X81588Y498252D03*
D39*
X73888Y498252D03*
D37*
X113388Y498052D03*
D16*
X104888Y498052D03*
D38*
X97688Y498052D03*
D16*
X90488Y498052D03*
D20*
X85988Y498052D03*
X81588Y498052D03*
D40*
X73888Y498052D03*
D41*
X113488Y497852D03*
D20*
X104788Y497852D03*
D23*
X97588Y497852D03*
D17*
X90588Y497852D03*
D20*
X85988Y497852D03*
X81588Y497852D03*
D42*
X73788Y497852D03*
D43*
X113588Y497652D03*
D16*
X104688Y497652D03*
D23*
X97588Y497652D03*
D16*
X90688Y497652D03*
D20*
X85988Y497652D03*
X81588Y497652D03*
D44*
X73788Y497652D03*
D43*
X113588Y497452D03*
D16*
X104688Y497452D03*
D45*
X97688Y497452D03*
D16*
X90688Y497452D03*
D20*
X85988Y497452D03*
X81588Y497452D03*
D44*
X73988Y497452D03*
D43*
X113588Y497252D03*
D20*
X104588Y497252D03*
D46*
X97588Y497252D03*
D16*
X90688Y497252D03*
D20*
X85988Y497252D03*
X81588Y497252D03*
D47*
X74088Y497252D03*
D23*
X117188Y497052D03*
D24*
X110488Y497052D03*
D16*
X104488Y497052D03*
D46*
X97588Y497052D03*
D17*
X90788Y497052D03*
D20*
X85988Y497052D03*
X81588Y497052D03*
D23*
X76588Y497052D03*
D17*
X71388Y497052D03*
D38*
X117488Y496852D03*
D45*
X110288Y496852D03*
D16*
X104488Y496852D03*
D46*
X97588Y496852D03*
D16*
X90888Y496852D03*
D20*
X85988Y496852D03*
X81588Y496852D03*
D35*
X76788Y496852D03*
D48*
X71288Y496852D03*
D21*
X117688Y496652D03*
D38*
X110088Y496652D03*
D20*
X104388Y496652D03*
D24*
X97688Y496652D03*
D17*
X90988Y496652D03*
D20*
X85988Y496652D03*
X81588Y496652D03*
D21*
X77088Y496652D03*
D49*
X71288Y496652D03*
D26*
X117788Y496452D03*
D35*
X109988Y496452D03*
D16*
X104288Y496452D03*
D24*
X97688Y496452D03*
D17*
X90988Y496452D03*
D20*
X85988Y496452D03*
X81588Y496452D03*
D26*
X77188Y496452D03*
D15*
X71388Y496452D03*
D26*
X117788Y496252D03*
D21*
X109888Y496252D03*
D16*
X104288Y496252D03*
D50*
X97688Y496252D03*
D16*
X91088Y496252D03*
D20*
X85988Y496252D03*
X81588Y496252D03*
D22*
X77288Y496252D03*
D51*
X71488Y496252D03*
D22*
X117888Y496052D03*
D26*
X109788Y496052D03*
D17*
X104188Y496052D03*
D50*
X97688Y496052D03*
D17*
X91188Y496052D03*
D20*
X85988Y496052D03*
X81588Y496052D03*
X77388Y496052D03*
D22*
X118088Y495852D03*
D26*
X109788Y495852D03*
D16*
X104088Y495852D03*
D52*
X97588Y495852D03*
D17*
X91188Y495852D03*
D20*
X85988Y495852D03*
X81588Y495852D03*
D22*
X77488Y495852D03*
X118088Y495652D03*
D26*
X109788Y495652D03*
D16*
X104088Y495652D03*
D52*
X97588Y495652D03*
D17*
X91388Y495652D03*
D20*
X85988Y495652D03*
X81588Y495652D03*
D22*
X77488Y495652D03*
X118088Y495452D03*
X109688Y495452D03*
D17*
X103988Y495452D03*
D19*
X99188Y495452D03*
D53*
X96088Y495452D03*
D17*
X91388Y495452D03*
D20*
X85988Y495452D03*
X81588Y495452D03*
X77588Y495452D03*
X118188Y495252D03*
D22*
X109688Y495252D03*
D16*
X103888Y495252D03*
D19*
X99388Y495252D03*
D53*
X96088Y495252D03*
D17*
X91388Y495252D03*
D20*
X85988Y495252D03*
X81588Y495252D03*
X77588Y495252D03*
X118188Y495052D03*
D22*
X109688Y495052D03*
D16*
X103888Y495052D03*
D19*
X99388Y495052D03*
D53*
X95888Y495052D03*
X91488Y495052D03*
D20*
X85988Y495052D03*
X81588Y495052D03*
X77588Y495052D03*
X118188Y494852D03*
X109588Y494852D03*
D17*
X103788Y494852D03*
D53*
X99488Y494852D03*
X95888Y494852D03*
D17*
X91588Y494852D03*
D20*
X85988Y494852D03*
X81588Y494852D03*
X77588Y494852D03*
X118188Y494652D03*
X109588Y494652D03*
D16*
X103688Y494652D03*
D53*
X99488Y494652D03*
X95888Y494652D03*
D17*
X91588Y494652D03*
D20*
X85988Y494652D03*
X81588Y494652D03*
X77588Y494652D03*
X118188Y494452D03*
X109588Y494452D03*
D17*
X103588Y494452D03*
D19*
X99588Y494452D03*
X95788Y494452D03*
D53*
X91688Y494452D03*
D20*
X85988Y494452D03*
X81588Y494452D03*
X77588Y494452D03*
X118188Y494252D03*
X109588Y494252D03*
D17*
X103588Y494252D03*
D19*
X99588Y494252D03*
D53*
X95688Y494252D03*
D17*
X91788Y494252D03*
D20*
X85988Y494252D03*
X81588Y494252D03*
X77588Y494252D03*
X118188Y494052D03*
X109588Y494052D03*
D17*
X103588Y494052D03*
D19*
X99788Y494052D03*
D53*
X95688Y494052D03*
X91888Y494052D03*
D20*
X85988Y494052D03*
X81588Y494052D03*
X77588Y494052D03*
X118188Y493852D03*
D22*
X109688Y493852D03*
D16*
X103488Y493852D03*
D19*
X99788Y493852D03*
D53*
X95488Y493852D03*
X91888Y493852D03*
D20*
X85988Y493852D03*
X81588Y493852D03*
X77588Y493852D03*
X118188Y493652D03*
D22*
X109688Y493652D03*
D17*
X103388Y493652D03*
D19*
X99788Y493652D03*
D53*
X95488Y493652D03*
X91888Y493652D03*
D20*
X85988Y493652D03*
X81588Y493652D03*
X77588Y493652D03*
D22*
X118088Y493452D03*
X109688Y493452D03*
D17*
X103388Y493452D03*
D19*
X99788Y493452D03*
D53*
X95488Y493452D03*
D17*
X91988Y493452D03*
D20*
X85988Y493452D03*
X81588Y493452D03*
D22*
X77488Y493452D03*
X118088Y493252D03*
D26*
X109788Y493252D03*
D17*
X103188Y493252D03*
D19*
X99988Y493252D03*
D53*
X95488Y493252D03*
X92088Y493252D03*
D20*
X85988Y493252D03*
X81588Y493252D03*
D22*
X77488Y493252D03*
X118088Y493052D03*
D26*
X109788Y493052D03*
D28*
X101688Y493052D03*
X93688Y493052D03*
D20*
X85988Y493052D03*
X81588Y493052D03*
D22*
X77288Y493052D03*
D54*
X71388Y493052D03*
D22*
X117888Y492852D03*
D26*
X109788Y492852D03*
D28*
X101688Y492852D03*
D52*
X93788Y492852D03*
D20*
X85988Y492852D03*
X81588Y492852D03*
D22*
X77288Y492852D03*
D55*
X71288Y492852D03*
D26*
X117788Y492652D03*
D21*
X109888Y492652D03*
D50*
X101688Y492652D03*
X93688Y492652D03*
D20*
X85988Y492652D03*
X81588Y492652D03*
D26*
X77188Y492652D03*
D56*
X71188Y492652D03*
D26*
X117788Y492452D03*
D35*
X109988Y492452D03*
D50*
X101688Y492452D03*
X93688Y492452D03*
D20*
X85988Y492452D03*
X81588Y492452D03*
D21*
X77088Y492452D03*
D57*
X71088Y492452D03*
D21*
X117688Y492252D03*
D38*
X110088Y492252D03*
D50*
X101688Y492252D03*
D25*
X93788Y492252D03*
D20*
X85988Y492252D03*
X81588Y492252D03*
D35*
X76788Y492252D03*
D19*
X71188Y492252D03*
D35*
X117388Y492052D03*
D23*
X110188Y492052D03*
D24*
X101688Y492052D03*
D25*
X93788Y492052D03*
D20*
X85988Y492052D03*
X81588Y492052D03*
D44*
X74188Y492052D03*
D38*
X117288Y491852D03*
D46*
X110388Y491852D03*
D24*
X101688Y491852D03*
X93688Y491852D03*
D20*
X85988Y491852D03*
X81588Y491852D03*
D44*
X73988Y491852D03*
D46*
X116788Y491652D03*
D52*
X110788Y491652D03*
D46*
X101588Y491652D03*
X93788Y491652D03*
D20*
X85988Y491652D03*
X81588Y491652D03*
D58*
X73888Y491652D03*
D43*
X113588Y491452D03*
D45*
X101688Y491452D03*
D46*
X93788Y491452D03*
D20*
X85988Y491452D03*
X81588Y491452D03*
D47*
X73888Y491452D03*
D43*
X113588Y491252D03*
D45*
X101688Y491252D03*
D23*
X93788Y491252D03*
D20*
X85988Y491252D03*
X81588Y491252D03*
D42*
X73788Y491252D03*
D41*
X113488Y491052D03*
D23*
X101588Y491052D03*
X93788Y491052D03*
D20*
X85988Y491052D03*
X81588Y491052D03*
D59*
X73788Y491052D03*
D37*
X113388Y490852D03*
D23*
X101588Y490852D03*
X93788Y490852D03*
D20*
X85988Y490852D03*
X81588Y490852D03*
D36*
X73788Y490852D03*
D34*
X113288Y490652D03*
D38*
X101688Y490652D03*
D35*
X93788Y490652D03*
D20*
X85988Y490652D03*
X81588Y490652D03*
D33*
X73788Y490652D03*
D32*
X113188Y490452D03*
D35*
X101588Y490452D03*
X93788Y490452D03*
D20*
X85988Y490452D03*
X81588Y490452D03*
D60*
X73788Y490452D03*
D61*
X113088Y490252D03*
D21*
X101688Y490252D03*
D35*
X93788Y490252D03*
D20*
X85988Y490252D03*
X81588Y490252D03*
D62*
X73788Y490252D03*
D27*
X114988Y490052D03*
D22*
X109688Y490052D03*
D26*
X101588Y490052D03*
D21*
X93888Y490052D03*
D20*
X85988Y490052D03*
X81588Y490052D03*
D27*
X73788Y490052D03*
D52*
X114988Y489852D03*
D20*
X109588Y489852D03*
D26*
X101588Y489852D03*
X93788Y489852D03*
D20*
X85988Y489852D03*
X81588Y489852D03*
D52*
X73788Y489852D03*
D25*
X114988Y489652D03*
D20*
X109588Y489652D03*
D26*
X101588Y489652D03*
D22*
X93888Y489652D03*
D20*
X85988Y489652D03*
X81588Y489652D03*
D45*
X73888Y489652D03*
D23*
X114988Y489452D03*
D20*
X109588Y489452D03*
X101588Y489452D03*
D22*
X93888Y489452D03*
D20*
X85988Y489452D03*
X81588Y489452D03*
X73788Y489452D03*
D26*
X114988Y489252D03*
D20*
X109588Y489252D03*
X101588Y489252D03*
X93788Y489252D03*
D16*
X85888Y489252D03*
D20*
X81588Y489252D03*
D57*
X73888Y489252D03*
D19*
X114988Y489052D03*
D20*
X109588Y489052D03*
D55*
X114888Y488852D03*
D20*
X109588Y488852D03*
X109588Y488652D03*
X109588Y488452D03*
X109588Y488252D03*
X109588Y488052D03*
X109588Y487852D03*
X109588Y487652D03*
X109588Y487452D03*
X109588Y487252D03*
X109588Y487052D03*
X109588Y486852D03*
X109588Y486652D03*
D21*
X93888Y486652D03*
D20*
X109588Y486452D03*
D63*
X93888Y486452D03*
D20*
X109588Y486252D03*
D58*
X93888Y486252D03*
D20*
X109588Y486052D03*
D64*
X93888Y486052D03*
D20*
X109588Y485852D03*
D65*
X93888Y485852D03*
D20*
X109588Y485652D03*
D66*
X93888Y485652D03*
D20*
X109588Y485452D03*
D67*
X93788Y485452D03*
D16*
X109688Y485252D03*
D68*
X93888Y485252D03*
D69*
X93888Y485052D03*
D70*
X93888Y484852D03*
D71*
X93888Y484652D03*
D72*
X93888Y484452D03*
D73*
X93788Y484252D03*
D74*
X93888Y484052D03*
D75*
X93888Y483852D03*
D76*
X93788Y483652D03*
D77*
X93788Y483452D03*
D78*
X93888Y483252D03*
D79*
X93788Y483052D03*
D80*
X93788Y482852D03*
D81*
X93788Y482652D03*
D82*
X93788Y482452D03*
D83*
X93788Y482252D03*
D84*
X93888Y482052D03*
D85*
X93788Y481852D03*
D86*
X93788Y481652D03*
D87*
X93888Y481452D03*
D88*
X93788Y481252D03*
D89*
X93788Y481052D03*
D90*
X93788Y480852D03*
D91*
X93888Y480652D03*
D92*
X93888Y480452D03*
D93*
X93888Y480252D03*
D94*
X93888Y480052D03*
D95*
X93888Y479852D03*
D96*
X93888Y479652D03*
D97*
X93788Y479452D03*
D98*
X93888Y479252D03*
D99*
X93888Y479052D03*
D100*
X93888Y478852D03*
D101*
X93888Y478652D03*
D102*
X93888Y478452D03*
D103*
X93888Y478252D03*
D104*
X93888Y478052D03*
D105*
X93788Y477852D03*
D106*
X93788Y477652D03*
D107*
X93888Y477452D03*
D108*
X93888Y477252D03*
D109*
X93888Y477052D03*
D110*
X93788Y476852D03*
D111*
X93888Y476652D03*
D112*
X93888Y476452D03*
D113*
X93888Y476252D03*
D114*
X93788Y476052D03*
D115*
X93888Y475852D03*
D116*
X93788Y475652D03*
D117*
X93788Y475452D03*
D118*
X93888Y475252D03*
D119*
X93788Y475052D03*
D120*
X93788Y474852D03*
D121*
X93888Y474652D03*
D122*
X93788Y474452D03*
D123*
X93888Y474252D03*
D124*
X93788Y474052D03*
D125*
X93888Y473852D03*
D126*
X93888Y473652D03*
X93888Y473452D03*
D127*
X93788Y473252D03*
D128*
X93788Y473052D03*
D129*
X93888Y472852D03*
X93888Y472652D03*
D130*
X93888Y472452D03*
D131*
X93788Y472252D03*
X93788Y472052D03*
D132*
X93888Y471852D03*
D133*
X93788Y471652D03*
D134*
X93888Y471452D03*
D135*
X93788Y471252D03*
X93788Y471052D03*
D136*
X93888Y470852D03*
D137*
X93788Y470652D03*
D138*
X93888Y470452D03*
X93888Y470252D03*
D139*
X93788Y470052D03*
D140*
X93888Y469852D03*
D141*
X93788Y469652D03*
X93788Y469452D03*
D142*
X93888Y469252D03*
X93888Y469052D03*
D52*
X114588Y468852D03*
D27*
X73188Y468852D03*
D52*
X114788Y468652D03*
D28*
X73088Y468652D03*
D50*
X114888Y468452D03*
D28*
X73088Y468452D03*
D50*
X114888Y468252D03*
D28*
X73088Y468252D03*
D50*
X114888Y468052D03*
D27*
X72988Y468052D03*
D52*
X114988Y467852D03*
D27*
X72988Y467852D03*
D52*
X114988Y467652D03*
D27*
X72988Y467652D03*
D52*
X114988Y467452D03*
D30*
X72888Y467452D03*
D52*
X114988Y467252D03*
D30*
X72888Y467252D03*
D28*
X115088Y467052D03*
D30*
X72888Y467052D03*
D28*
X115088Y466852D03*
D30*
X72888Y466852D03*
D28*
X115088Y466652D03*
D30*
X72888Y466652D03*
D28*
X115088Y466452D03*
D30*
X72888Y466452D03*
D28*
X115088Y466252D03*
D143*
X72788Y466252D03*
D27*
X115188Y466052D03*
D143*
X72788Y466052D03*
D27*
X115188Y465852D03*
D143*
X72788Y465852D03*
D27*
X115188Y465652D03*
D143*
X72788Y465652D03*
D27*
X115188Y465452D03*
D143*
X72788Y465452D03*
D27*
X115188Y465252D03*
D29*
X72688Y465252D03*
D27*
X115188Y465052D03*
D29*
X72688Y465052D03*
D27*
X115188Y464852D03*
D29*
X72688Y464852D03*
D27*
X115188Y464652D03*
D29*
X72688Y464652D03*
D27*
X115188Y464452D03*
D29*
X72688Y464452D03*
D27*
X115188Y464252D03*
D29*
X72688Y464252D03*
D30*
X115288Y464052D03*
D38*
X104888Y464052D03*
D23*
X97788Y464052D03*
X90588Y464052D03*
D38*
X83488Y464052D03*
D29*
X72688Y464052D03*
D30*
X115288Y463852D03*
D23*
X104988Y463852D03*
X97788Y463852D03*
D45*
X90488Y463852D03*
D23*
X83388Y463852D03*
D29*
X72688Y463852D03*
D30*
X115288Y463652D03*
D23*
X104988Y463652D03*
X97788Y463652D03*
D45*
X90488Y463652D03*
D23*
X83388Y463652D03*
D29*
X72688Y463652D03*
D30*
X115288Y463452D03*
D23*
X104988Y463452D03*
X97788Y463452D03*
D45*
X90488Y463452D03*
D23*
X83388Y463452D03*
D29*
X72688Y463452D03*
D30*
X115288Y463252D03*
D23*
X104988Y463252D03*
X97788Y463252D03*
D45*
X90488Y463252D03*
D23*
X83388Y463252D03*
D29*
X72688Y463252D03*
D30*
X115288Y463052D03*
D23*
X104988Y463052D03*
X97788Y463052D03*
D45*
X90488Y463052D03*
D23*
X83388Y463052D03*
D29*
X72688Y463052D03*
D30*
X115288Y462852D03*
D23*
X104988Y462852D03*
X97788Y462852D03*
D45*
X90488Y462852D03*
D23*
X83388Y462852D03*
D29*
X72688Y462852D03*
D30*
X115288Y462652D03*
D23*
X104988Y462652D03*
X97788Y462652D03*
D45*
X90488Y462652D03*
D23*
X83388Y462652D03*
D62*
X72588Y462652D03*
D30*
X115288Y462452D03*
D23*
X104988Y462452D03*
X97788Y462452D03*
D45*
X90488Y462452D03*
D23*
X83388Y462452D03*
D62*
X72588Y462452D03*
D30*
X115288Y462252D03*
D23*
X104988Y462252D03*
X97788Y462252D03*
D45*
X90488Y462252D03*
D23*
X83388Y462252D03*
D62*
X72588Y462252D03*
D30*
X115288Y462052D03*
D23*
X104988Y462052D03*
X97788Y462052D03*
D45*
X90488Y462052D03*
D23*
X83388Y462052D03*
D62*
X72588Y462052D03*
D30*
X115288Y461852D03*
D23*
X104988Y461852D03*
X97788Y461852D03*
D45*
X90488Y461852D03*
D23*
X83388Y461852D03*
D62*
X72588Y461852D03*
D30*
X115288Y461652D03*
D23*
X104988Y461652D03*
X97788Y461652D03*
D45*
X90488Y461652D03*
D23*
X83388Y461652D03*
D62*
X72588Y461652D03*
D30*
X115288Y461452D03*
D23*
X104988Y461452D03*
X97788Y461452D03*
D45*
X90488Y461452D03*
D23*
X83388Y461452D03*
D62*
X72588Y461452D03*
D30*
X115288Y461252D03*
D23*
X104988Y461252D03*
X97788Y461252D03*
D45*
X90488Y461252D03*
D23*
X83388Y461252D03*
D62*
X72588Y461252D03*
D30*
X115288Y461052D03*
D23*
X104988Y461052D03*
X97788Y461052D03*
D45*
X90488Y461052D03*
D23*
X83388Y461052D03*
D29*
X72688Y461052D03*
D30*
X115288Y460852D03*
D23*
X104988Y460852D03*
X97788Y460852D03*
D45*
X90488Y460852D03*
D23*
X83388Y460852D03*
D29*
X72688Y460852D03*
D30*
X115288Y460652D03*
D23*
X104988Y460652D03*
X97788Y460652D03*
D45*
X90488Y460652D03*
D23*
X83388Y460652D03*
D29*
X72688Y460652D03*
D30*
X115288Y460452D03*
D23*
X104988Y460452D03*
X97788Y460452D03*
D45*
X90488Y460452D03*
D23*
X83388Y460452D03*
D29*
X72688Y460452D03*
D30*
X115288Y460252D03*
D23*
X104988Y460252D03*
X97788Y460252D03*
D45*
X90488Y460252D03*
D23*
X83388Y460252D03*
D29*
X72688Y460252D03*
D30*
X115288Y460052D03*
D23*
X104988Y460052D03*
X97788Y460052D03*
D45*
X90488Y460052D03*
D23*
X83388Y460052D03*
D29*
X72688Y460052D03*
D30*
X115288Y459852D03*
D23*
X104988Y459852D03*
X97788Y459852D03*
D45*
X90488Y459852D03*
D23*
X83388Y459852D03*
D29*
X72688Y459852D03*
D27*
X115188Y459652D03*
D23*
X104988Y459652D03*
X97788Y459652D03*
D45*
X90488Y459652D03*
D23*
X83388Y459652D03*
D29*
X72688Y459652D03*
D27*
X115188Y459452D03*
D38*
X104888Y459452D03*
D23*
X97788Y459452D03*
X90588Y459452D03*
D38*
X83488Y459452D03*
D29*
X72688Y459452D03*
D27*
X115188Y459252D03*
D29*
X72688Y459252D03*
D27*
X115188Y459052D03*
D29*
X72688Y459052D03*
D27*
X115188Y458852D03*
D29*
X72688Y458852D03*
D27*
X115188Y458652D03*
D29*
X72688Y458652D03*
D27*
X115188Y458452D03*
D29*
X72688Y458452D03*
D27*
X115188Y458252D03*
D143*
X72788Y458252D03*
D27*
X115188Y458052D03*
D143*
X72788Y458052D03*
D27*
X115188Y457852D03*
D143*
X72788Y457852D03*
D28*
X115088Y457652D03*
D143*
X72788Y457652D03*
D28*
X115088Y457452D03*
D30*
X72888Y457452D03*
D28*
X115088Y457252D03*
D30*
X72888Y457252D03*
D28*
X115088Y457052D03*
D30*
X72888Y457052D03*
D28*
X115088Y456852D03*
D30*
X72888Y456852D03*
D52*
X114988Y456652D03*
D30*
X72888Y456652D03*
D52*
X114988Y456452D03*
D30*
X72888Y456452D03*
D52*
X114988Y456252D03*
D27*
X72988Y456252D03*
D52*
X114988Y456052D03*
D27*
X72988Y456052D03*
D50*
X114888Y455852D03*
D27*
X72988Y455852D03*
D50*
X114888Y455652D03*
D27*
X72988Y455652D03*
D50*
X114888Y455452D03*
D28*
X73088Y455452D03*
D50*
X114888Y455252D03*
D28*
X73088Y455252D03*
D25*
X114788Y455052D03*
D28*
X73088Y455052D03*
D25*
X114788Y454852D03*
D52*
X73188Y454852D03*
D50*
X114688Y454652D03*
D28*
X73288Y454652D03*
D144*
X109988Y454452D03*
D30*
X94288Y454452D03*
D145*
X78088Y454452D03*
D144*
X109988Y454252D03*
D30*
X94288Y454252D03*
D145*
X78088Y454252D03*
D144*
X109988Y454052D03*
D30*
X94288Y454052D03*
D146*
X78188Y454052D03*
D144*
X109988Y453852D03*
D143*
X94188Y453852D03*
D147*
X78088Y453852D03*
D66*
X109888Y453652D03*
D143*
X94188Y453652D03*
D148*
X78188Y453652D03*
D144*
X109788Y453452D03*
D143*
X94188Y453452D03*
D148*
X78188Y453452D03*
D66*
X109688Y453252D03*
D143*
X94188Y453252D03*
D148*
X78188Y453252D03*
D66*
X109688Y453052D03*
D29*
X94088Y453052D03*
D149*
X78088Y453052D03*
D66*
X109688Y452852D03*
D143*
X93988Y452852D03*
D144*
X78188Y452852D03*
D150*
X109588Y452652D03*
D143*
X93988Y452652D03*
D66*
X78088Y452652D03*
D150*
X109588Y452452D03*
D143*
X93988Y452452D03*
D150*
X78188Y452452D03*
X109388Y452252D03*
D29*
X93888Y452252D03*
D150*
X78188Y452252D03*
X109388Y452052D03*
D29*
X93888Y452052D03*
D151*
X78188Y452052D03*
D152*
X109288Y451852D03*
D143*
X93788Y451852D03*
D151*
X78188Y451852D03*
D152*
X109288Y451652D03*
D29*
X93688Y451652D03*
D153*
X78088Y451652D03*
D152*
X109288Y451452D03*
D29*
X93688Y451452D03*
D154*
X78188Y451452D03*
D151*
X109188Y451252D03*
D29*
X93688Y451252D03*
D155*
X78188Y451252D03*
D152*
X109088Y451052D03*
D29*
X93488Y451052D03*
D155*
X78188Y451052D03*
D151*
X108988Y450852D03*
D29*
X93488Y450852D03*
D156*
X78088Y450852D03*
D151*
X108988Y450652D03*
D29*
X93488Y450652D03*
D157*
X78088Y450652D03*
D153*
X108888Y450452D03*
D62*
X93388Y450452D03*
D157*
X78088Y450452D03*
D151*
X108788Y450252D03*
D29*
X93288Y450252D03*
D158*
X78088Y450252D03*
D153*
X108688Y450052D03*
D62*
X93188Y450052D03*
D159*
X78188Y450052D03*
D154*
X108588Y449852D03*
D62*
X93188Y449852D03*
D64*
X78088Y449852D03*
D154*
X108588Y449652D03*
D62*
X92988Y449652D03*
D41*
X78088Y449652D03*
D154*
X108388Y449452D03*
D62*
X92988Y449452D03*
D41*
X78088Y449452D03*
D154*
X108388Y449252D03*
D31*
X92888Y449252D03*
D34*
X78088Y449252D03*
D65*
X108288Y449052D03*
D62*
X92788Y449052D03*
D32*
X77988Y449052D03*
D155*
X108188Y448852D03*
D31*
X92688Y448852D03*
D160*
X77988Y448852D03*
D65*
X108088Y448652D03*
D31*
X92688Y448652D03*
D161*
X78088Y448652D03*
D155*
X107988Y448452D03*
D31*
X92488Y448452D03*
D162*
X77988Y448452D03*
D65*
X107888Y448252D03*
D31*
X92488Y448252D03*
D44*
X77988Y448252D03*
D155*
X107788Y448052D03*
D31*
X92288Y448052D03*
D42*
X77988Y448052D03*
D156*
X107688Y447852D03*
D60*
X92188Y447852D03*
D40*
X77888Y447852D03*
D156*
X107688Y447652D03*
D60*
X92188Y447652D03*
D39*
X77888Y447652D03*
D156*
X107488Y447452D03*
D60*
X91988Y447452D03*
D63*
X77888Y447452D03*
D163*
X107388Y447252D03*
D60*
X91988Y447252D03*
D33*
X77788Y447252D03*
D163*
X107188Y447052D03*
D60*
X91788Y447052D03*
X77788Y447052D03*
D163*
X107188Y446852D03*
D164*
X91688Y446852D03*
D29*
X77688Y446852D03*
D157*
X107088Y446652D03*
D164*
X91488Y446652D03*
D30*
X77688Y446652D03*
D157*
X106888Y446452D03*
D164*
X91488Y446452D03*
D27*
X77588Y446452D03*
D157*
X106888Y446252D03*
D164*
X91288Y446252D03*
D52*
X77588Y446252D03*
D158*
X106688Y446052D03*
D33*
X91188Y446052D03*
D24*
X77488Y446052D03*
D165*
X106588Y445852D03*
D33*
X90988Y445852D03*
D23*
X77388Y445852D03*
D158*
X106488Y445652D03*
D33*
X90988Y445652D03*
D35*
X77388Y445652D03*
D158*
X106288Y445452D03*
D33*
X90788Y445452D03*
D22*
X77288Y445452D03*
D159*
X106188Y445252D03*
D63*
X90688Y445252D03*
D17*
X77188Y445252D03*
D159*
X105988Y445052D03*
D63*
X90488Y445052D03*
D19*
X76988Y445052D03*
D64*
X105888Y444852D03*
D36*
X90388Y444852D03*
D57*
X76888Y444852D03*
D64*
X105688Y444652D03*
D36*
X90188Y444652D03*
D18*
X76688Y444652D03*
D43*
X105588Y444452D03*
D36*
X89988Y444452D03*
D166*
X76688Y444452D03*
D43*
X105388Y444252D03*
D39*
X89888Y444252D03*
D41*
X105288Y444052D03*
D39*
X89688Y444052D03*
D41*
X105088Y443852D03*
D59*
X89588Y443852D03*
D37*
X104988Y443652D03*
D59*
X89388Y443652D03*
D37*
X104788Y443452D03*
D59*
X89188Y443452D03*
D34*
X104688Y443252D03*
D59*
X88988Y443252D03*
D34*
X104488Y443052D03*
D42*
X88788Y443052D03*
D32*
X104388Y442852D03*
D42*
X88588Y442852D03*
D32*
X104188Y442652D03*
D42*
X88388Y442652D03*
D160*
X103988Y442452D03*
D44*
X88188Y442452D03*
D160*
X103788Y442252D03*
D44*
X87988Y442252D03*
D160*
X103588Y442052D03*
D44*
X87788Y442052D03*
D162*
X103388Y441852D03*
D58*
X87488Y441852D03*
D162*
X103188Y441652D03*
D161*
X87288Y441652D03*
D44*
X102988Y441452D03*
D161*
X87088Y441452D03*
D44*
X102788Y441252D03*
D160*
X86788Y441252D03*
D47*
X102488Y441052D03*
D61*
X86488Y441052D03*
D47*
X102288Y440852D03*
D32*
X86188Y440852D03*
D40*
X102088Y440652D03*
D34*
X85888Y440652D03*
D59*
X101788Y440452D03*
D37*
X85588Y440452D03*
D39*
X101688Y440252D03*
D43*
X85188Y440252D03*
D36*
X101388Y440052D03*
D64*
X84888Y440052D03*
D63*
X101088Y439852D03*
D165*
X84388Y439852D03*
D33*
X100788Y439652D03*
D163*
X83988Y439652D03*
D60*
X100588Y439452D03*
D65*
X83488Y439452D03*
D31*
X100288Y439252D03*
D152*
X82888Y439252D03*
D62*
X99988Y439052D03*
D147*
X82088Y439052D03*
D51*
X73088Y439052D03*
D143*
X99588Y438852D03*
D167*
X80388Y438852D03*
D30*
X99288Y438652D03*
D69*
X80288Y438652D03*
D50*
X98888Y438452D03*
D168*
X80188Y438452D03*
D24*
X98488Y438252D03*
D169*
X80088Y438252D03*
D45*
X98088Y438052D03*
D170*
X79988Y438052D03*
D35*
X97588Y437852D03*
D171*
X79888Y437852D03*
D26*
X97188Y437652D03*
D68*
X79688Y437652D03*
D53*
X96488Y437452D03*
D172*
X79588Y437452D03*
D15*
X95788Y437252D03*
D173*
X79488Y437252D03*
D174*
X79288Y437052D03*
D67*
X79188Y436852D03*
D146*
X78988Y436652D03*
D147*
X78888Y436452D03*
D148*
X78788Y436252D03*
D144*
X78588Y436052D03*
D150*
X78388Y435852D03*
D152*
X78288Y435652D03*
D153*
X78088Y435452D03*
D65*
X77888Y435252D03*
D156*
X77688Y435052D03*
D157*
X77488Y434852D03*
D158*
X77288Y434652D03*
D64*
X77088Y434452D03*
D37*
X76788Y434252D03*
D32*
X76588Y434052D03*
D161*
X76288Y433852D03*
D58*
X76088Y433652D03*
D40*
X75688Y433452D03*
D36*
X75388Y433252D03*
D164*
X75088Y433052D03*
D143*
X74588Y432852D03*
D52*
X74188Y432652D03*
D35*
X73388Y432452D03*
D14*
X99314Y338582D02*
X103124Y329946D01*
X104902Y330962D01*
X109474Y327914D01*
X113030Y331470D01*
X109982Y336042D01*
X112014Y341122D02*
X117602Y342138D01*
X117602Y347218D01*
X111760Y348234D01*
X109728Y353060D02*
X113030Y357886D01*
X109474Y361442D01*
X104648Y358140D01*
X100076Y359918D02*
X98806Y366014D01*
X93980Y366014D01*
X92710Y359918D01*
X88138Y358140D02*
X83058Y361442D01*
X79502Y357886D01*
X83058Y353060D01*
X80772Y348234D02*
X75184Y347218D01*
X75184Y342138D01*
X80772Y341122D01*
X82804Y336042D02*
X79502Y331470D01*
X83058Y327914D01*
X87630Y330962D01*
X89662Y329946D01*
X93218Y338582D01*
X93066Y338659D01*
X92917Y338739D01*
X92769Y338823D01*
X92623Y338911D01*
X92480Y339002D01*
X92339Y339097D01*
X92200Y339195D01*
X92063Y339296D01*
X91929Y339401D01*
X91798Y339509D01*
X91670Y339620D01*
X91544Y339734D01*
X91421Y339852D01*
X91301Y339972D01*
X91184Y340095D01*
X91070Y340221D01*
X90959Y340350D01*
X90851Y340482D01*
X90747Y340616D01*
X90646Y340752D01*
X90548Y340891D01*
X90454Y341033D01*
X90363Y341177D01*
X90276Y341322D01*
X90192Y341470D01*
X90112Y341620D01*
X90036Y341772D01*
X89963Y341926D01*
X89895Y342082D01*
X89830Y342239D01*
X89769Y342397D01*
X89712Y342557D01*
X89659Y342719D01*
X89609Y342882D01*
X89564Y343045D01*
X89523Y343210D01*
X89486Y343376D01*
X89453Y343543D01*
X89424Y343710D01*
X89399Y343879D01*
X89379Y344047D01*
X89362Y344216D01*
X89350Y344386D01*
X89341Y344556D01*
X89337Y344726D01*
X89338Y344896D01*
X89342Y345066D01*
X89350Y345235D01*
X89363Y345405D01*
X89380Y345574D01*
X89401Y345743D01*
X89426Y345911D01*
X89455Y346078D01*
X89488Y346245D01*
X89526Y346411D01*
X89567Y346576D01*
X89612Y346739D01*
X89662Y346902D01*
X89715Y347063D01*
X89773Y347223D01*
X89834Y347382D01*
X89899Y347539D01*
X89968Y347694D01*
X90041Y347848D01*
X90117Y348000D01*
X90198Y348149D01*
X90281Y348297D01*
X90369Y348443D01*
X90460Y348587D01*
X90554Y348728D01*
X90652Y348867D01*
X90754Y349003D01*
X90858Y349137D01*
X90966Y349269D01*
X91077Y349397D01*
X91191Y349523D01*
X91309Y349646D01*
X91429Y349766D01*
X91552Y349883D01*
X91678Y349997D01*
X91807Y350108D01*
X91938Y350216D01*
X92072Y350321D01*
X92209Y350422D01*
X92348Y350520D01*
X92489Y350614D01*
X92633Y350705D01*
X92779Y350792D01*
X92927Y350876D01*
X93076Y350956D01*
X93228Y351033D01*
X93382Y351105D01*
X93537Y351174D01*
X93694Y351239D01*
X93853Y351300D01*
X94013Y351358D01*
X94174Y351411D01*
X94337Y351460D01*
X94501Y351505D01*
X94666Y351547D01*
X94832Y351584D01*
X94998Y351617D01*
X95166Y351646D01*
X95334Y351671D01*
X95503Y351692D01*
X95672Y351708D01*
X95841Y351721D01*
X96011Y351729D01*
X96181Y351733D01*
X96351Y351733D01*
X96521Y351729D01*
X96691Y351721D01*
X96860Y351708D01*
X97029Y351692D01*
X97198Y351671D01*
X97366Y351646D01*
X97534Y351617D01*
X97700Y351584D01*
X97866Y351547D01*
X98031Y351505D01*
X98195Y351460D01*
X98358Y351411D01*
X98519Y351358D01*
X98679Y351300D01*
X98838Y351239D01*
X98995Y351174D01*
X99150Y351105D01*
X99304Y351033D01*
X99456Y350956D01*
X99605Y350876D01*
X99753Y350792D01*
X99899Y350705D01*
X100043Y350614D01*
X100184Y350520D01*
X100323Y350422D01*
X100460Y350321D01*
X100594Y350216D01*
X100725Y350108D01*
X100854Y349997D01*
X100980Y349883D01*
X101103Y349766D01*
X101223Y349646D01*
X101341Y349523D01*
X101455Y349397D01*
X101566Y349269D01*
X101674Y349137D01*
X101778Y349003D01*
X101880Y348867D01*
X101978Y348728D01*
X102072Y348587D01*
X102163Y348443D01*
X102251Y348297D01*
X102334Y348149D01*
X102415Y348000D01*
X102491Y347848D01*
X102564Y347694D01*
X102633Y347539D01*
X102698Y347382D01*
X102759Y347223D01*
X102817Y347063D01*
X102870Y346902D01*
X102920Y346739D01*
X102965Y346576D01*
X103006Y346411D01*
X103044Y346245D01*
X103077Y346078D01*
X103106Y345911D01*
X103131Y345743D01*
X103152Y345574D01*
X103169Y345405D01*
X103182Y345235D01*
X103190Y345066D01*
X103194Y344896D01*
X103195Y344726D01*
X103191Y344556D01*
X103182Y344386D01*
X103170Y344216D01*
X103153Y344047D01*
X103133Y343879D01*
X103108Y343710D01*
X103079Y343543D01*
X103046Y343376D01*
X103009Y343210D01*
X102968Y343045D01*
X102923Y342882D01*
X102873Y342719D01*
X102820Y342557D01*
X102763Y342397D01*
X102702Y342239D01*
X102637Y342082D01*
X102569Y341926D01*
X102496Y341772D01*
X102420Y341620D01*
X102340Y341470D01*
X102256Y341322D01*
X102169Y341177D01*
X102078Y341033D01*
X101984Y340891D01*
X101886Y340752D01*
X101785Y340616D01*
X101681Y340482D01*
X101573Y340350D01*
X101462Y340221D01*
X101348Y340095D01*
X101231Y339972D01*
X101111Y339852D01*
X100988Y339734D01*
X100862Y339620D01*
X100734Y339509D01*
X100603Y339401D01*
X100469Y339296D01*
X100332Y339195D01*
X100193Y339097D01*
X100052Y339002D01*
X99909Y338911D01*
X99763Y338823D01*
X99615Y338739D01*
X99466Y338659D01*
X99314Y338582D01*
X109921Y336164D02*
X110113Y336466D01*
X110298Y336771D01*
X110477Y337081D01*
X110648Y337395D01*
X110812Y337713D01*
X110968Y338034D01*
X111117Y338359D01*
X111259Y338687D01*
X111393Y339018D01*
X111519Y339353D01*
X111638Y339690D01*
X111749Y340029D01*
X111852Y340372D01*
X111948Y340716D01*
X111806Y348290D02*
X111711Y348650D01*
X111608Y349008D01*
X111497Y349364D01*
X111377Y349716D01*
X111250Y350066D01*
X111114Y350413D01*
X110970Y350757D01*
X110818Y351097D01*
X110658Y351433D01*
X110490Y351766D01*
X110315Y352095D01*
X110131Y352419D01*
X109941Y352739D01*
X109743Y353055D01*
X104587Y358033D02*
X104264Y358221D01*
X103937Y358400D01*
X103606Y358572D01*
X103271Y358736D01*
X102932Y358893D01*
X102589Y359041D01*
X102243Y359181D01*
X101894Y359313D01*
X101541Y359437D01*
X101186Y359552D01*
X100829Y359659D01*
X100469Y359757D01*
X100106Y359847D01*
X92710Y359954D02*
X92342Y359866D01*
X91976Y359768D01*
X91613Y359663D01*
X91252Y359548D01*
X90895Y359425D01*
X90540Y359293D01*
X90188Y359153D01*
X89840Y359005D01*
X89496Y358848D01*
X89155Y358683D01*
X88818Y358510D01*
X88486Y358329D01*
X88158Y358140D01*
X82931Y353019D02*
X82734Y352728D01*
X82544Y352432D01*
X82361Y352132D01*
X82184Y351827D01*
X82015Y351519D01*
X81853Y351207D01*
X81698Y350891D01*
X81550Y350572D01*
X81410Y350250D01*
X81277Y349924D01*
X81151Y349595D01*
X81034Y349264D01*
X80923Y348930D01*
X80821Y348593D01*
X80726Y348254D01*
X80797Y341142D02*
X80877Y340786D01*
X80965Y340432D01*
X81061Y340081D01*
X81166Y339731D01*
X81278Y339385D01*
X81398Y339041D01*
X81526Y338699D01*
X81662Y338361D01*
X81805Y338026D01*
X81956Y337694D01*
X82115Y337366D01*
X82281Y337042D01*
X82455Y336721D01*
X82636Y336405D01*
X82824Y336093D01*
M02*
